<svg id="Layer_1" data-name="Layer 1" xmlns="http://www.w3.org/2000/svg" viewBox="0 0 207.24 248.47">
  <defs>
    <style>
      .cls-1 {
        opacity: 0.4;
      }

      .cls-2, .cls-3, .cls-5, .cls-8 {
        fill: none;
      }

      .cls-2 {
        stroke: #000;
      }

      .cls-2, .cls-3, .cls-8 {
        stroke-linecap: round;
        stroke-linejoin: round;
      }

      .cls-3 {
        stroke: #494949;
      }

      .cls-11, .cls-4 {
        fill: #efefef;
      }

      .cls-5 {
        stroke: #d1d1d1;
        stroke-miterlimit: 10;
        stroke-width: 0.5px;
      }

      .cls-6 {
        fill: #a8ff38;
      }

      .cls-11, .cls-6 {
        opacity: 0.5;
      }

      .cls-7 {
        fill: #fff;
      }

      .cls-8 {
        stroke: #b2b2b2;
      }

      .cls-9 {
        font-size: 5px;
        fill: #082442;
        font-family: PF DinDisplay Pro;
      }

      .cls-10 {
        font-size: 3px;
        font-family: Myriad Pro;
      }
    </style>
  </defs>
  <title>apartment</title>
  <g id="фон" class="cls-1">
    <path class="cls-2" d="M162.5,66.58v9m0,0H179m-89.72-9H77.66m0,0v9m0,0H99.16m2,0h30.35m0,0v-9m-90.91,0H29.1m-2.9,0,0.26,0,9,9h5.15m0,0v-9m121.91,0-31,0-42.22,0-60.17,0H26.2"/>
    <path class="cls-2" d="M51.27,135.32V88.21m27.58,55.27v-8M183.06,75.55V61.3H162.5m0,0v5.28m-31-5.28H91.2m40.29,5.28V61.3M29.1,61.3H26.2m0,0v2.9m0,0v2.38m2.9,0V64.21m0,0V61.3m-2.9,5.28h2.9m60.17,0,2.9-2.38,70.33,2.38,0-2.37-31,2.37M92.17,64.21m39.32,0-105,136,0,1.85,0,0v-1.85"/>
    <path class="cls-2" d="M179,202.09H124.23m-1.85,0h-4.75m0,0v4.49m0,0h65.42v-131H179M92.83,202.09h-14m-1.85,0H35.44m0,0v4.49m0,0H69.21m0,0H92.83m0,0v-4.49M179,75.55V202.09M69.21,206.57m0,0"/>
    <path class="cls-2" d="M26.46,66.55V200.24m0,1.85h9m0,0v-56.6m0-1.85V75.55M78.84,202.09V183.22m-1.85.23,1.85-.23-1.85.59v18.28m1.85-37.6v-19m-1.21,18.87,1.21,0.13M77,202.09h1.85m20.32-58.45H97.89m0,0,1.34,2,0-1.85-0.06,1.72-18.34-1.85H35.44m0,1.85H35.7m43.14,0h0.92m0,0v-1.85m-44.33,0v1.85m86.95,24v32.59m1.85,0V168.71m0,0-2.39-2.44m0.54,35.82h1.85M99.16,75.55v70.26m0-.33v0.79m0,0,2,2m0-2.77V75.55m0,0h-2"/>
    <path class="cls-2" d="M35.44,145.48v56.6m0,0H77m0.64-37.74M77,183.45m-41.3-38H35.44m4.22,9.9H39.53m0,0v-0.13m0,0H39.39m0,0-0.13-.13m0,0V155m0,0v-0.13m0,0v-0.13m0,0v-0.13m0,0h0.13m0,0,0.13-.13m0,0,0.13-.13m0,0,0.13,0.13m0,0h0.13m0,0,0.13,0.13m0,0,0.13,0.13m0,0v0.13m0,0V155m0,0-0.13.13m0,0v0.13m0,0H39.92m0,0-0.13.13m0,0H39.66m-2.77,6.33V148m1.45,15.17-0.4-.13m0,0-0.4-.13m0,0-0.26-.13m0,0-0.26-.4m0,0-0.13-.26m0,0v-0.4m31.8,1.45H38.34m30.35-16.62,1.58,0.13m0,0,1.45,0.53m0,0L73,147.86m0,0,1.32,0.92m0,0,0.92,1.06m0,0,0.79,1.32m0,0,0.66,1.45m0,0L77,154.06m0,0v1.58m0,0-0.26,1.45m0,0-0.66,1.45m0,0-0.79,1.32m0,0-0.92,1.06m0,0-1.32.92m0,0-1.32.66m0,0-1.45.53m0,0-1.58.13M38.34,146.54H68.69M36.89,148v-0.4m0,0,0.13-.26m0,0,0.26-.26m0,0,0.26-.26m0,0,0.4-.13m0,0,0.4-.13m40.51,17.81H35.7m42.48-19v19m-42.48-19H78.19m-42.48,19v-19m34.44,45.12v0.13m0,0v0.13m0,0H70m0,0H69.87m0,0H69.74m0,0v-0.13m0,0v-0.13m0,0v-0.13m0,0h0.13m0,0v-0.13m0,0L70,190.34m0,0h0.13m0,0v0.13m3.3,0-0.13.92m0,0-0.26.92m0,0-0.66.66m0,0-0.66.66m0,0-0.92.26m0,0-0.92.13m0,0-0.92-.13m0,0-0.79-.26m0,0L67.37,193m0,0-0.53-.66m0,0-0.4-.92m0,0v-0.92m0,0v-0.92m0,0,0.4-.79m0,0,0.53-.79m0,0,0.79-.53m0,0,0.79-.4m0,0,0.92-.13m0,0L70.8,187m0,0,0.92,0.4m0,0L72.38,188m0,0L73,188.76m0,0,0.26,0.79m0,0,0.13,0.92M77,183.84v13.85m-14.12-14.2h16m-16,14.12V183.48M77,197.6H62.88M40.45,184.67l0.13,0.13m0,0h0.13m0,0,0.13,0.13m0,0v0.13m0,0v0.13m0,0v0.13m0,0v0.13m0,0-0.13.13m0,0H40.58m0,0-0.13.13m0,0-0.13-.13m0,0H40.19m0,0H40.05m0,0v-0.13m0,0-0.13-.13m0,0V185.2m0,0v-0.13m0,0,0.13-.13m0,0V184.8m0,0h0.13m0,0h0.13m0,0,0.13-.13M44,188v-5.54m0,0,1.06-.4m0,0,1.19-.26m0,0,1.32-.13m0,0,1.32,0.13m0,0L50.08,182m0,0,1.19,0.4m0,0L52.19,183m0,0,0.66,0.66m0,0,0.4,0.79m0,0,0.13,0.79m0,0-0.13.79m0,0-0.4.79m0,0-0.66.66m0,0-0.92.53m0,0-1.19.4m0,0-1.19.26m0,0-1.32.13m0,0-1.32-.13m0,0-1.19-.26m0,0L44,188m-1.58,1.58,0.13-.26m0,0,0.13-.26m0,0,0.13-.26m2,0.79H42.43m2.37-8.71,1.45-.26m0,0,1.45-.13m0,0,1.45,0.13m0,0,1.32,0.4m0,0,1.32,0.4m0,0L52.85,182m0,0,0.79,0.79m0,0,0.53,0.92m0,0,0.4,0.92m0,0v1.06m0,0-0.4.92m0,0-0.53.92m0,0-0.79.79m0,0L51.8,189m0,0-1.32.4m0,0-1.32.4m0,0-1.45.13m0,0-1.45-.13m0,0-1.45-.26m-2.37-8.71H44.8m-2,.79-0.13-.26m0,0-0.13-.26m0,0-0.13-.26m0.4,7.92v-7.12m-4.75,7.12v-7.12m1.19,8.31-0.4-.13m0,0H38.6m0,0-0.26-.26m0,0-0.13-.26m0,0L38.08,189m0,0v-0.26m3.56,1.19H39.26m3.56-1.19-0.13.26m0,0-0.13.26m0,0-0.13.26m0,0-0.26.26m0,0H41.9m0,0-0.26.13m1.19-8.31v7.12m-1.19-8.31,0.26,0.13m0,0h0.26m0,0,0.26,0.26m0,0,0.13,0.26m0,0,0.13,0.26m0,0,0.13,0.26m-3.56-1.19h2.38m-3.56,1.19v-0.26m0,0,0.13-.26m0,0,0.13-.26m0,0,0.26-.26"/>
    <path class="cls-2" d="M38.6,180.58h0.26m0,0,0.4-.13m-1.19-8.58H37.94m0,0-0.13-.13m0,0H37.68m0,0v-0.13m0,0-0.13-.13m0,0v-0.13m0,0v-0.13m0,0h0.13m0,0v-0.13m0,0,0.13-.13m0,0h0.13m0,0h0.13m0,0h0.13m0,0h0.13m0,0v0.13m0,0,0.13,0.13m0,0v0.13m0,0v0.13m0,0v0.13m0,0-0.13.13m0,0-0.13.13m0,0H38.08m-1.19,3.83v-8.58m0.4,9H37.15m0,0L37,176m0,0-0.13-.13m0,0V175.7m4.22,0.4H37.28m4.35-.4H41.51m0,0v0.13m0,0V176m0,0-0.13.13m0,0H41.24m0,0H41.11m0.53-9v8.58m-0.53-9h0.13m0,0h0.13m0,0,0.13,0.13m0,0V167m0,0,0.13,0.13m-4.35-.4h3.83m-4.22.4V167m0,0v-0.13m0,0H37m0,0,0.13-.13m0,0h0.13m5.54,10.56H35.7m7.12-11.74v11.74M35.7,165.54h7.12M35.7,177.28V165.54m3.56-61.35-0.53-.13m0,0-0.4-.13m0,0-0.26-.26m0,0-0.26-.26m0,0-0.13-.4m0,0-0.13-.53m0,0,0.13-.4m0,0,0.13-.4m0,0,0.26-.4m0,0,0.26-.26m0,0,0.4-.13m0,0h0.53m0,0h0.4m0,0,0.4,0.13m0,0,0.4,0.26m0,0,0.26,0.4m0,0,0.13,0.4m0,0v0.4m0,0V103m0,0-0.13.4m0,0-0.26.26m0,0-0.4.26m0,0-0.4.13m0,0-0.4.13m0,7.78-0.66-.13m0,0-0.53-.26m0,0-0.53-.26m0,0-0.4-.53m0,0-0.26-.53m0,0v-0.66m0,0v-0.66m0,0,0.26-.53m0,0,0.4-.53m0,0,0.53-.4m0,0,0.53-.13m0,0,0.66-.13m0,0,0.53,0.13m0,0,0.66,0.13m0,0,0.4,0.4m0,0,0.4,0.53m0,0,0.26,0.53m0,0,0.13,0.66m0,0-0.13.66m0,0-0.26.53m0,0-0.4.53m0,0-0.4.26m0,0-0.66.26m0,0-0.53.13m7-7.12H45.73m0,0-0.66-.26m0,0-0.4-.4m0,0-0.4-.53m0,0L44,103.13m0,0v-0.66m0,0v-0.53m0,0,0.26-.66m0,0,0.4-.4m0,0,0.4-.4m0,0,0.66-.26m0,0,0.53-.13m0,0,0.66,0.13m0,0,0.53,0.26m0,0,0.53,0.4m0,0,0.4,0.4m0,0,0.26,0.66m0,0v0.53m0,0v0.66m0,0-0.26.53m0,0-0.4.53m0,0-0.53.4m0,0-0.53.26m0,0H46.26m0,6.46-0.4-.13m0,0-0.4-.13m0,0-0.26-.26m0,0-0.26-.4m0,0-0.26-.4m0,0v-0.4m0,0v-0.4m0,0,0.26-.4m0,0,0.26-.4m0,0,0.26-.26m0,0,0.4-.13m0,0,0.4-.13m0,0L46.78,108m0,0,0.4,0.13m0,0,0.26,0.26m0,0,0.26,0.4m0,0L48,109.2m0,0v0.4m0,0V110m0,0-0.26.4m0,0-0.26.4m0,0-0.26.26m0,0-0.4.13m0,0-0.53.13m3.56,1.85H35.7M49.82,98.91v14.25M35.7,98.91H49.82M35.7,88.21H51.27m0,47.11H78.84m73.1,0.15-73.1,8,73.1-8.16M35.7,98.91m0,14.25,4.75,14.78H40.32m0,0H40.19m0,0-0.13-.13m0,0v-0.13m0,0-0.13-.13m0,0v-0.13m0,0,0.13-.13m0,0v-0.13m0,0,0.13-.13m0,0h0.13m0,0h0.13m0,0h0.13m0,0,0.13,0.13m0,0,0.13,0.13m0,0v0.13m0,0v0.13m0,0v0.13m0,0-0.13.13m0,0-0.13.13m0,0H40.45m-1.19,3.17v-7.26m0.4,7.78H39.53m0,0V131.5m0,0H39.39m0,0-0.13-.13m0,0v-0.13m0,0V131.1m6.6,0.53h-6.2m6.6-.53v0.13m0,0v0.13m0,0-0.13.13m0,0-0.13.13m0,0H45.86m0.4-7.78v7.26m-0.4-7.78H46m0,0,0.13,0.13m0,0,0.13,0.13m0,0v0.13m0,0v0.13m-6.6-.53h6.2m-6.6.53v-0.13m0,0v-0.13m0,0,0.13-.13m0,0h0.13m0,0v-0.13m0,0h0.13M47.44,141H38.08m9.37-18.87V141"/>
    <path class="cls-2" d="M38.08,122.13h9.37M38.08,141V122.13m7,17.68v-7m-1.06,7v-7m-1.19,7v-7m-1.19,7v-7m-1.19,7v-7m5.81,0v7m-7,0v-7"/>
    <path class="cls-2" d="M78.84,182.16l2.9-.26m0,0,2.77-.79m0,0,2.64-1.19"/>
    <line class="cls-2" x1="87.16" y1="179.92" x2="78.84" y2="165.54"/>
    <path class="cls-2" d="M78.84,165.54v-1.29m-1.45.5,1.45,0-1.45,0,1.45,0.79,0,16.62,0,0.79,0,0.26v-1.06"/>
    <path class="cls-2" d="M101.14,148.25l2.9,2.9m1.32-1.45M104,151.16m-2.14-74.94,4.25,74.28-5-5m17.65,20.35,3.59,3.66m-0.54-3.23L119.48,164M119,166.07m1.45-1.32"/>
    <path class="cls-2" d="M119.48,164l2.11-2.51m0,0,1.71-2.9m0,0,1.06-3"/>
    <line class="cls-2" x1="124.36" y1="155.51" x2="106.16" y2="150.63"/>
    <path class="cls-2" d="M118.16,165.27m-13.33-13.33,1.32-1.32M119.48,164"/>
    <g>
      <path class="cls-2" d="M119,166.07m-0.26-.13,1.45-1.45-0.19.19-1.16,1.16M104,151.16l0.13,0.13m0,0,1.45-1.32m0,0-0.26-.26m-1.19,1.58,14.51,14.65,1.45-1.45M105.63,150"/>
      <path class="cls-2" d="M88.08,34.26h2.24m0.26,0H91m0,0V66.58m-2.9-32.33V65.13m0-33.78v0.4m0,0.26v2.24m-28.76-2.9H88.08m-28.76,2.9H88.08m-61.88,0h0.4m0.26,0h1.58m0.26,0h0.4m0,13.85h-0.4m-0.26,0H26.86m-0.26,0H26.2m0,0V34.26m2.9,13.85V34.26"/>
      <path class="cls-2" d="M91,34.26v-2.9m0,0h-2.9m0,0v2.9m0,0H91M29.1,31.35H26.2m0,0v2.9m0,0h2.9m0,0v-2.9M91,66.58V65.13m-2.9,0v1.45m0,0H91M26.2,48.11v1.45m0,0h2.9m0,0V48.11m0,0H26.2"/>
      <path class="cls-2" d="M57.87,31.35v0.53m0,1.32v1.05m-3.83,0V33.2m0-1.32V31.35m0,0h3.83M54,34.26h3.83"/>
      <path class="cls-2" d="M29.1,34.26V32m0-.26v-0.4m0,0H52.72M29.1,34.26H52.72"/>
      <path class="cls-2" d="M54,31.35H52.72m0,0v2.9m0,0H54m0,0v-2.9"/>
      <path class="cls-2" d="M59.07,31.35H57.75m0,0v2.9m0,0h1.32m0,0v-2.9"/>
      <path class="cls-2" d="M121.59,34.26v27m-2.77,0v-27m0,27h2.77m-95.39-30h95.39m-2.77,2.9H91m-26.12,0H59.32m-6.6,0H29.1m92.49,0v-2.9"/>
    </g>
    <path class="cls-2" d="M26.2,49.56V61.3m0,0h2.9m0,0V49.56m0,0H26.2"/>
    <path class="cls-2" d="M80.82,143.64l0.26-2.9m0,0L81.75,138m0,0,1.19-2.64"/>
    <line class="cls-2" x1="82.94" y1="135.32" x2="97.32" y2="143.64"/>
    <path class="cls-2" d="M80.88,145.22m17.45,0-1-1.58-16.49,0"/>
    <path class="cls-2" d="M79.9,145.22m0-1.58-0.13,0H79.9m-0.13,1.58v-1.58m0,1.58,17.7-1.58h0.42m-0.42,0M98,145.22m0,0,1.17,0M79.9,143.64m17.57,0"/>
    <path class="cls-2" d="M26.2,31.35v0.4m0,0.26v2.24m0,0"/>
    <path class="cls-2" d="M115.79,206.57l-0.26,3.69m0,0-0.92,3.56m0,0-1.58,3.3"/>
    <line class="cls-2" x1="113.02" y1="217.13" x2="94.55" y2="206.57"/>
    <path class="cls-2" d="M94.55,203.87m21.24,0.32,0,2.38-21.24,0"/>
    <path class="cls-2" d="M117.64,204.2m-1.85,2.38,0,0h1.85m0,0V204.2m-24.8,0,0,0v2.38m0,0h1.65m0,0,0,0,21.31,0"/>
    <path class="cls-3" d="M140.59,66.58h2.24m1.19,0h2.24m-12.8,0h2.24m1.19,0h2.24m-2.9,0h10M140.59,68h5.67m-12.8,0h5.67m-2.9,0h10"/>
    <path class="cls-2" d="M134.79,68h10.16m0-1.45H134.79"/>
    <path class="cls-2" d="M134.79,66.58h-1.32m0,0V68m0,0h1.32m0,0V66.58m10.16,0V68m0,0h1.32m0,0V66.58m0,0h-1.32"/>
    <path class="cls-3" d="M146.27,66.58h-4.62m-3.56,0h-4.62M146.27,68h-12.8"/>
    <path class="cls-2" d="M133.47,68h12.8m1.45,0h12.93m-14.38-1.45h-12.8m27.18,0H147.72"/>
    <path class="cls-2" d="M147.72,66.58h-1.45m0,0V68m0,0h1.45m0,0V66.58m-14.25,0H132m0,0V68m0,0h1.45m0,0V66.58m27.18,0V68m0,0H162m0,0V66.58m0,0h-1.32"/>
    <path class="cls-2" d="M131.49,68H132m0,0V66.58m0,0h-0.53m0,0V68M162,68h0.53m0,0V66.58m0,0H162m0,0V68m0.53-6.86v5.28m-31,0V61.17m0,0h31m0,5.28-31,0,31,0-31,0,0,9.76V68m31,0v8.18m-31-8.18h31m0,8.18h-31"/>
  </g>
  <g id="kuhnia">
    <polygon class="cls-4" points="29.65 34.8 29.65 66.1 41.11 66.14 41.12 75.98 36.08 75.98 36.08 87.61 51.66 87.61 51.83 134.8 79.33 134.8 79.37 143.26 98.91 143.26 98.91 75.98 77.25 75.98 77.25 66.23 87.58 66.07 87.54 34.8 29.65 34.8"/>
    <g>
      <line class="cls-5" x1="33.91" y1="35.03" x2="33.91" y2="65.86"/>
      <line class="cls-5" x1="37.91" y1="35.03" x2="37.91" y2="65.86"/>
      <line class="cls-5" x1="41.91" y1="35.03" x2="41.91" y2="87.84"/>
      <line class="cls-5" x1="45.91" y1="35.03" x2="45.91" y2="87.84"/>
      <line class="cls-5" x1="49.91" y1="35.03" x2="49.91" y2="87.84"/>
      <line class="cls-5" x1="53.91" y1="35.03" x2="53.91" y2="134.88"/>
      <line class="cls-5" x1="57.91" y1="35.03" x2="57.91" y2="134.88"/>
      <line class="cls-5" x1="61.91" y1="35.03" x2="61.91" y2="135.03"/>
      <line class="cls-5" x1="65.91" y1="35.03" x2="65.91" y2="135.03"/>
      <line class="cls-5" x1="69.91" y1="35.03" x2="69.91" y2="135.03"/>
      <line class="cls-5" x1="73.91" y1="35.03" x2="73.91" y2="135.03"/>
      <line class="cls-5" x1="77.91" y1="35.03" x2="77.91" y2="65.86"/>
      <line class="cls-5" x1="81.91" y1="35.03" x2="81.91" y2="65.86"/>
      <line class="cls-5" x1="85.91" y1="35.03" x2="85.91" y2="65.86"/>
      <line class="cls-5" x1="77.91" y1="76.03" x2="77.91" y2="135.03"/>
      <line class="cls-5" x1="81.91" y1="76.03" x2="81.91" y2="137.96"/>
      <line class="cls-5" x1="85.91" y1="76.03" x2="85.91" y2="137.05"/>
      <line class="cls-5" x1="90.92" y1="76.03" x2="90.92" y2="139.94"/>
      <line class="cls-5" x1="95.92" y1="76.03" x2="95.92" y2="143.16"/>
    </g>
    <polygon class="cls-6" points="29.66 34.8 29.66 66.07 40.91 66.06 40.91 76.03 35.96 76.03 36.1 144.05 36.1 87.61 36.1 143.03 36.1 143.03 98.71 143.18 98.93 76.03 77.27 76.03 77.27 66.06 87.56 66.06 87.56 34.8 29.66 34.8"/>
    <polygon class="cls-7" points="80.62 38.01 46.57 38.01 41.55 41.01 40.3 38.01 34.24 38.01 34.24 23.23 80.62 23.23 80.62 38.01"/>
    <polygon class="cls-8" points="80.62 38.01 46.57 38.01 41.55 41.01 40.3 38.01 34.24 38.01 34.24 23.23 80.62 23.23 80.62 38.01"/>
    <text class="cls-9" transform="translate(42.54 32.12)">Кухня - 11.7 м</text>
    <text class="cls-10" transform="translate(72.91 29.03)">2</text>
  </g>
  <g id="balkon">
    <line class="cls-5" x1="98.66" y1="34.68" x2="98.66" y2="60.93"/>
    <line class="cls-5" x1="94.6" y1="34.68" x2="94.6" y2="60.93"/>
    <line class="cls-5" x1="102.72" y1="34.68" x2="102.72" y2="60.93"/>
    <line class="cls-5" x1="106.79" y1="34.68" x2="106.79" y2="60.93"/>
    <line class="cls-5" x1="110.85" y1="34.68" x2="110.85" y2="60.93"/>
    <line class="cls-5" x1="114.91" y1="34.68" x2="114.91" y2="60.93"/>
    <rect class="cls-11" x="91.54" y="34.8" width="26.84" height="26.01"/>
    <rect class="cls-6" x="91.54" y="34.8" width="26.84" height="26.01"/>
    <g>
      <polygon class="cls-7" points="144.94 36.55 108.95 36.55 103.64 39.55 102.33 36.55 95.92 36.55 95.92 21.78 144.94 21.78 144.94 36.55"/>
      <polygon class="cls-8" points="144.94 36.55 108.95 36.55 103.64 39.55 102.33 36.55 95.92 36.55 95.92 21.78 144.94 21.78 144.94 36.55"/>
      <text class="cls-9" transform="translate(103.62 30.66)">Балкон - 0.41 м</text>
      <text class="cls-10" transform="translate(136.63 27.57)">2</text>
    </g>
  </g>
  <g id="gostinnaya">
    <g>
      <line class="cls-5" x1="105.53" y1="75.96" x2="105.53" y2="149.19"/>
      <line class="cls-5" x1="109.5" y1="75.96" x2="109.5" y2="151.03"/>
      <line class="cls-5" x1="113.56" y1="75.96" x2="113.56" y2="151.9"/>
      <line class="cls-5" x1="117.62" y1="75.96" x2="117.62" y2="153.07"/>
      <line class="cls-5" x1="125.75" y1="75.96" x2="125.75" y2="201.65"/>
      <line class="cls-5" x1="121.68" y1="75.96" x2="121.68" y2="154.28"/>
      <line class="cls-5" x1="129.81" y1="75.96" x2="129.81" y2="201.65"/>
      <line class="cls-5" x1="133.87" y1="75.96" x2="133.87" y2="201.65"/>
      <line class="cls-5" x1="137.93" y1="75.96" x2="137.93" y2="201.65"/>
      <line class="cls-5" x1="142" y1="75.96" x2="142" y2="201.65"/>
      <line class="cls-5" x1="150.12" y1="75.96" x2="150.12" y2="201.65"/>
      <line class="cls-5" x1="146.06" y1="75.96" x2="146.06" y2="201.65"/>
      <line class="cls-5" x1="154.18" y1="75.96" x2="154.18" y2="201.65"/>
      <line class="cls-5" x1="158.25" y1="75.96" x2="158.25" y2="201.65"/>
      <line class="cls-5" x1="162.31" y1="75.96" x2="162.31" y2="201.65"/>
      <line class="cls-5" x1="166.37" y1="75.96" x2="166.37" y2="201.65"/>
      <line class="cls-5" x1="174.49" y1="75.96" x2="174.49" y2="201.65"/>
      <line class="cls-5" x1="170.43" y1="75.96" x2="170.43" y2="201.65"/>
    </g>
    <polygon class="cls-11" points="101.91 76.21 178.25 76.21 178.25 201.65 124.81 201.65 124.81 168.59 101.47 145.25 101.91 76.21"/>
    <polygon class="cls-6" points="101.91 76.21 178.25 76.21 178.25 201.65 124.81 201.65 124.81 168.59 101.47 145.25 101.91 76.21"/>
    <polygon class="cls-7" points="172.58 79.92 131.74 79.92 125.72 82.92 124.22 79.92 116.95 79.92 116.95 65.15 172.58 65.15 172.58 79.92"/>
    <text class="cls-9" transform="translate(123.93 74.41)">Г<tspan x="2.07" y="0">остинная - 14.96 м</tspan></text>
    <text class="cls-10" transform="translate(165.8 71.32)">2</text>
    <polygon class="cls-8" points="172.58 79.92 130.58 79.92 125.72 82.92 124.22 79.92 116.95 79.92 116.95 65.15 172.58 65.15 172.58 79.92"/>
  </g>
  <g id="koridor">
    <g>
      <line class="cls-5" x1="82.7" y1="144.05" x2="82.7" y2="171.07"/>
      <line class="cls-5" x1="82.7" y1="182.36" x2="82.7" y2="201.48"/>
      <line class="cls-5" x1="86.67" y1="181.04" x2="86.67" y2="201.48"/>
      <line class="cls-5" x1="86.67" y1="144.06" x2="86.67" y2="177.82"/>
      <line class="cls-5" x1="90.58" y1="144.05" x2="90.58" y2="201.48"/>
      <line class="cls-5" x1="94.49" y1="144.05" x2="94.49" y2="206.15"/>
      <line class="cls-5" x1="106.23" y1="151.36" x2="106.23" y2="212.63"/>
      <line class="cls-5" x1="110.14" y1="155.51" x2="110.14" y2="214.86"/>
      <line class="cls-5" x1="114.06" y1="159.23" x2="114.06" y2="212.95"/>
      <line class="cls-5" x1="117.96" y1="163.23" x2="118" y2="201.48"/>
      <line class="cls-5" x1="102.32" y1="149.71" x2="102.32" y2="210.49"/>
      <line class="cls-5" x1="98.4" y1="144.05" x2="98.4" y2="208.23"/>
    </g>
    <polyline class="cls-11" points="79.37 145.9 80.25 145.9 80.25 144.05 81.12 144.05 98.91 144.05 98.91 146.59 103.92 151.6 104.29 151.98 105.72 150.55 119.35 164.17 119.35 164.59 118 165.94 121.88 169.82 121.88 201.65 117.25 201.65 117.25 206.09 115.31 206.09 115.31 210.46 114.06 213.9 113.02 216.46 94.55 206.15 93.25 206.15 93.25 201.65 79.37 201.65"/>
    <polyline class="cls-6" points="79.37 145.9 80.25 145.9 80.25 144.05 81.12 144.05 98.91 144.05 98.91 146.59 103.92 151.6 104.29 151.98 105.72 150.55 119.35 164.17 119.35 164.59 118 165.94 121.88 169.82 121.88 201.65 117.25 201.65 117.25 206.09 115.31 206.09 115.31 210.46 114.06 213.9 113.02 216.46 94.55 206.15 93.25 206.15 93.25 201.65 79.37 201.65"/>
    <g>
      <polygon class="cls-7" points="144 165.62 106.15 165.62 100.56 168.62 99.18 165.62 92.43 165.62 92.43 150.85 144 150.85 144 165.62"/>
      <polygon class="cls-8" points="144 165.62 105.53 165.62 100.56 168.62 99.18 165.62 92.43 165.62 92.43 150.85 144 150.85 144 165.62"/>
      <text class="cls-9" transform="translate(100.14 159.73)">Коридор - 3.53 м</text>
      <text class="cls-10" transform="translate(136.15 156.64)">2</text>
    </g>
  </g>
  <g id="vannaya">
    <line class="cls-5" x1="39.47" y1="190.15" x2="39.47" y2="201.49"/>
    <line class="cls-5" x1="39.47" y1="177.82" x2="39.47" y2="179.92"/>
    <line class="cls-5" x1="43.44" y1="189.84" x2="43.44" y2="201.49"/>
    <line class="cls-5" x1="43.44" y1="177.53" x2="43.44" y2="180.26"/>
    <line class="cls-5" x1="47.35" y1="190.15" x2="47.35" y2="201.49"/>
    <line class="cls-5" x1="47.35" y1="164.77" x2="47.35" y2="179.96"/>
    <line class="cls-5" x1="51.26" y1="189.67" x2="51.26" y2="201.49"/>
    <line class="cls-5" x1="51.26" y1="164.77" x2="51.26" y2="180.58"/>
    <line class="cls-5" x1="55.17" y1="164.77" x2="55.17" y2="201.49"/>
    <g>
      <line class="cls-5" x1="58.9" y1="164.77" x2="58.9" y2="201.49"/>
      <line class="cls-5" x1="62.87" y1="164.77" x2="62.87" y2="182.89"/>
      <line class="cls-5" x1="66.78" y1="164.77" x2="66.78" y2="182.89"/>
      <line class="cls-5" x1="70.69" y1="164.77" x2="70.69" y2="182.89"/>
      <line class="cls-5" x1="74.6" y1="164.77" x2="74.6" y2="182.89"/>
    </g>
    <g>
      <line class="cls-5" x1="62.87" y1="197.82" x2="62.87" y2="201.54"/>
      <line class="cls-5" x1="66.78" y1="197.82" x2="66.78" y2="201.54"/>
      <line class="cls-5" x1="70.69" y1="197.82" x2="70.69" y2="201.54"/>
      <line class="cls-5" x1="74.6" y1="197.82" x2="74.6" y2="201.54"/>
    </g>
    <polyline class="cls-11" points="36.25 145.9 78.5 145.9 78.5 201.65 35.7 201.65"/>
    <polyline class="cls-6" points="36.24 145.9 78.48 145.9 78.48 201.65 35.69 201.65"/>
    <g>
      <polygon class="cls-7" points="95.92 149.05 57.69 149.05 52.05 152.05 50.65 149.05 43.84 149.05 43.84 134.28 95.92 134.28 95.92 149.05"/>
      <polygon class="cls-8" points="95.92 149.05 57.14 149.05 52.05 152.05 50.65 149.05 43.84 149.05 43.84 134.28 95.92 134.28 95.92 149.05"/>
      <text class="cls-9" transform="translate(51.55 143.16)">Сан<tspan x="7.67" y="0">у</tspan><tspan x="9.96" y="0">зел - 3.79 м</tspan></text>
      <text class="cls-10" transform="translate(86.56 140.07)">2</text>
    </g>
  </g>
</svg>
