<svg id="Шар_1" data-name="Шар 1" xmlns="http://www.w3.org/2000/svg" viewBox="0 0 1200 496">
  <defs>
    <style>
      .cls-1 {
        opacity: 0.1;
      }

      .cls-2, .cls-8 {
        fill: #fff;
      }

      .cls-3, .cls-4, .cls-6, .cls-7 {
        fill: none;
      }

      .cls-3, .cls-4, .cls-6, .cls-7, .cls-8 {
        stroke: #0a1239;
        stroke-width: 2px;
      }

      .cls-3, .cls-4, .cls-6, .cls-8 {
        stroke-miterlimit: 10;
      }

      .cls-4 {
        opacity: 0.2;
      }

      .cls-5 {
        fill: #b7b7b7;
        opacity: 0.4;
      }

      .cls-6, .cls-7 {
        stroke-linecap: round;
      }

      .cls-7 {
        stroke-linejoin: round;
      }

      .cls-9 {
        fill: #a3fb31;
      }

      .cls-10, .cls-11 {
        fill: #091239;
      }

      .cls-11 {
        font-size: 16px;
        font-weight: 700;
      }

      .cls-12 {
        fill: #fff3d5;
      }
    </style>
  </defs>
  <title>city_big_1</title>
  <g class="cls-1">
    <rect class="cls-2" x="171.09" y="314.99" width="86.44" height="180.39" rx="1.5" ry="1.5"/>
    <rect class="cls-3" x="171.09" y="314.99" width="86.44" height="180.39" rx="1.5" ry="1.5"/>
    <rect class="cls-2" x="163.93" y="309.7" width="100.77" height="8.57" rx="1.5" ry="1.5"/>
    <rect class="cls-3" x="163.93" y="309.7" width="100.77" height="8.57" rx="1.5" ry="1.5"/>
    <path class="cls-3" d="M185,425.37V402.64a1.06,1.06,0,0,1,1.06-1.06h19.31a1.06,1.06,0,0,1,1.06,1.06v22.73" transform="translate(0 -75.5)"/>
    <line class="cls-4" x1="195.66" y1="326.09" x2="195.66" y2="351.63"/>
    <rect class="cls-5" x="181.77" y="352.33" width="27.78" height="5.23" rx="1.5" ry="1.5"/>
    <rect class="cls-5" x="219.12" y="352.33" width="27.78" height="5.23" rx="1.5" ry="1.5"/>
    <rect class="cls-5" x="181.77" y="394.61" width="27.78" height="5.23" rx="1.5" ry="1.5"/>
    <rect class="cls-5" x="219.12" y="394.61" width="27.78" height="5.23" rx="1.5" ry="1.5"/>
    <rect class="cls-5" x="181.77" y="436.89" width="27.78" height="5.23" rx="1.5" ry="1.5"/>
    <rect class="cls-5" x="219.12" y="436.89" width="27.78" height="5.23" rx="1.5" ry="1.5"/>
    <rect class="cls-5" x="219.12" y="479.17" width="27.78" height="5.23" rx="1.5" ry="1.5"/>
    <rect class="cls-2" x="181.77" y="350.22" width="27.78" height="5.23" rx="1.5" ry="1.5"/>
    <rect class="cls-3" x="181.77" y="350.22" width="27.78" height="5.23" rx="1.5" ry="1.5"/>
    <path class="cls-3" d="M243.73,425.37V402.64a1.06,1.06,0,0,0-1.06-1.06H223.35a1.06,1.06,0,0,0-1.06,1.06v22.73" transform="translate(0 -75.5)"/>
    <line class="cls-4" x1="233.01" y1="326.09" x2="233.01" y2="351.63"/>
    <rect class="cls-2" x="219.12" y="350.22" width="27.78" height="5.23" rx="1.5" ry="1.5"/>
    <rect class="cls-3" x="219.12" y="350.22" width="27.78" height="5.23" rx="1.5" ry="1.5"/>
    <path class="cls-3" d="M257.52,430.95h20.73a1.06,1.06,0,0,0,1.06-1.06v-3.11a1.06,1.06,0,0,0-1.06-1.06h-20" transform="translate(0 -75.5)"/>
    <path class="cls-3" d="M185,467.65V444.92a1.06,1.06,0,0,1,1.06-1.06h19.31a1.06,1.06,0,0,1,1.06,1.06v22.73" transform="translate(0 -75.5)"/>
    <line class="cls-4" x1="195.66" y1="368.37" x2="195.66" y2="393.91"/>
    <rect class="cls-2" x="181.77" y="392.5" width="27.78" height="5.23" rx="1.5" ry="1.5"/>
    <rect class="cls-3" x="181.77" y="392.5" width="27.78" height="5.23" rx="1.5" ry="1.5"/>
    <path class="cls-3" d="M222.3,467.65V444.92a1.06,1.06,0,0,1,1.06-1.06h19.31a1.06,1.06,0,0,1,1.06,1.06v22.73" transform="translate(0 -75.5)"/>
    <line class="cls-4" x1="233.01" y1="368.37" x2="233.01" y2="393.91"/>
    <rect class="cls-2" x="219.12" y="392.5" width="27.78" height="5.23" rx="1.5" ry="1.5"/>
    <rect class="cls-3" x="219.12" y="392.5" width="27.78" height="5.23" rx="1.5" ry="1.5"/>
    <path class="cls-3" d="M185,509.93V487.2a1.06,1.06,0,0,1,1.06-1.06h19.31a1.06,1.06,0,0,1,1.06,1.06v22.73" transform="translate(0 -75.5)"/>
    <path class="cls-3" d="M181.77,570.53v-41a1.25,1.25,0,0,1,1.37-1.06h25a1.25,1.25,0,0,1,1.37,1.06v41" transform="translate(0 -75.5)"/>
    <line class="cls-4" x1="195.66" y1="410.64" x2="195.66" y2="436.19"/>
    <rect class="cls-2" x="181.77" y="434.78" width="27.78" height="5.23" rx="1.5" ry="1.5"/>
    <rect class="cls-3" x="181.77" y="434.78" width="27.78" height="5.23" rx="1.5" ry="1.5"/>
    <path class="cls-3" d="M222.3,509.93V487.2a1.06,1.06,0,0,1,1.06-1.06h19.31a1.06,1.06,0,0,1,1.06,1.06v22.73" transform="translate(0 -75.5)"/>
    <line class="cls-4" x1="233.01" y1="410.64" x2="233.01" y2="436.19"/>
    <rect class="cls-2" x="219.12" y="434.78" width="27.78" height="5.23" rx="1.5" ry="1.5"/>
    <rect class="cls-3" x="219.12" y="434.78" width="27.78" height="5.23" rx="1.5" ry="1.5"/>
    <path class="cls-3" d="M222.3,552.21V529.48a1.06,1.06,0,0,1,1.06-1.06h19.31a1.06,1.06,0,0,1,1.06,1.06v22.73" transform="translate(0 -75.5)"/>
    <line class="cls-4" x1="233.01" y1="452.92" x2="233.01" y2="478.47"/>
    <rect class="cls-2" x="219.12" y="477.06" width="27.78" height="5.23" rx="1.5" ry="1.5"/>
    <rect class="cls-3" x="219.12" y="477.06" width="27.78" height="5.23" rx="1.5" ry="1.5"/>
    <rect class="cls-3" x="186.21" y="457.77" width="18.91" height="19.29" rx="1.56" ry="1.56"/>
    <path class="cls-3" d="M186.21,571.19v-4.93a1.1,1.1,0,0,1,1.1-1.1H204a1.1,1.1,0,0,1,1.1,1.1v4.93" transform="translate(0 -75.5)"/>
    <line class="cls-4" x1="195.66" y1="457.77" x2="195.66" y2="477.06"/>
    <circle class="cls-4" cx="187.79" cy="481.66" r="0.9"/>
    <line class="cls-6" x1="257.52" y1="339.91" x2="276.11" y2="339.91"/>
    <line class="cls-6" x1="276.34" y1="349.56" x2="276.34" y2="337.98"/>
    <line class="cls-6" x1="269.29" y1="349.56" x2="269.29" y2="337.98"/>
    <line class="cls-6" x1="261.54" y1="349.56" x2="261.54" y2="337.98"/>
    <path class="cls-3" d="M257.52,473.23h20.73a1.06,1.06,0,0,0,1.06-1.06v-3.11a1.06,1.06,0,0,0-1.06-1.06h-20" transform="translate(0 -75.5)"/>
    <line class="cls-6" x1="257.52" y1="382.19" x2="276.11" y2="382.19"/>
    <line class="cls-6" x1="276.34" y1="391.84" x2="276.34" y2="380.26"/>
    <line class="cls-6" x1="269.29" y1="391.84" x2="269.29" y2="380.26"/>
    <line class="cls-6" x1="261.54" y1="391.84" x2="261.54" y2="380.26"/>
    <path class="cls-3" d="M257.52,515.51h20.73a1.06,1.06,0,0,0,1.06-1.06v-3.11a1.06,1.06,0,0,0-1.06-1.06h-20" transform="translate(0 -75.5)"/>
    <line class="cls-6" x1="257.52" y1="424.47" x2="276.11" y2="424.47"/>
    <line class="cls-6" x1="276.34" y1="434.12" x2="276.34" y2="422.54"/>
    <line class="cls-6" x1="269.29" y1="434.12" x2="269.29" y2="422.54"/>
    <line class="cls-6" x1="261.54" y1="434.12" x2="261.54" y2="422.54"/>
    <path class="cls-3" d="M257.52,557.78h20.73a1.06,1.06,0,0,0,1.06-1.06v-3.11a1.06,1.06,0,0,0-1.06-1.06h-20" transform="translate(0 -75.5)"/>
    <line class="cls-6" x1="257.52" y1="466.75" x2="276.11" y2="466.75"/>
    <line class="cls-6" x1="276.34" y1="476.4" x2="276.34" y2="464.81"/>
    <line class="cls-6" x1="269.29" y1="476.4" x2="269.29" y2="464.81"/>
    <line class="cls-6" x1="261.54" y1="476.4" x2="261.54" y2="464.81"/>
    <line class="cls-6" x1="176.73" y1="309.7" x2="176.73" y2="300.42"/>
    <line class="cls-6" x1="169.33" y1="300.42" x2="184.36" y2="300.42"/>
    <line class="cls-6" x1="180.49" y1="300.42" x2="180.49" y2="296.67"/>
    <line class="cls-6" x1="172.62" y1="300.42" x2="172.62" y2="296.96"/>
    <polyline class="cls-7" points="240.98 309.7 240.98 305.56 244.59 305.56 244.59 309.26"/>
    <rect class="cls-7" x="238.31" y="301.91" width="8.95" height="3.66" rx="0.81" ry="0.81"/>
  </g>
  <path class="cls-2" d="M194.75,552.17h29.42a1.5,1.5,0,0,0,1.5-1.5v-4.42a1.5,1.5,0,0,0-1.5-1.5H195.75" transform="translate(0 -75.5)"/>
  <path class="cls-2" d="M194.75,372.17h29.42a1.5,1.5,0,0,0,1.5-1.5v-4.42a1.5,1.5,0,0,0-1.5-1.5H195.75" transform="translate(0 -75.5)"/>
  <path class="cls-2" d="M194.75,432.17h29.42a1.5,1.5,0,0,0,1.5-1.5v-4.42a1.5,1.5,0,0,0-1.5-1.5H195.75" transform="translate(0 -75.5)"/>
  <path class="cls-2" d="M194.75,492.17h29.42a1.5,1.5,0,0,0,1.5-1.5v-4.42a1.5,1.5,0,0,0-1.5-1.5H195.75" transform="translate(0 -75.5)"/>
  <path class="cls-3" d="M194.75,552.17h29.42a1.5,1.5,0,0,0,1.5-1.5v-4.42a1.5,1.5,0,0,0-1.5-1.5H195.75" transform="translate(0 -75.5)"/>
  <path class="cls-2" d="M383.59,514.75H292.3a21.77,21.77,0,0,0-21.71,21.71v21.13a1,1,0,0,0,1,1h5a11.57,11.57,0,0,1,23.1,0h68.9a11.57,11.57,0,0,1,23.1,0h2.28a1,1,0,0,0,1-1v-31.5A11.37,11.37,0,0,0,383.59,514.75Z" transform="translate(0 -75.5)"/>
  <g class="cls-1">
    <rect class="cls-2" x="441.09" y="314.99" width="86.44" height="180.39" rx="1.5" ry="1.5"/>
    <rect class="cls-3" x="441.09" y="314.99" width="86.44" height="180.39" rx="1.5" ry="1.5"/>
    <rect class="cls-2" x="433.93" y="309.7" width="100.77" height="8.57" rx="1.5" ry="1.5"/>
    <rect class="cls-3" x="433.93" y="309.7" width="100.77" height="8.57" rx="1.5" ry="1.5"/>
    <path class="cls-3" d="M455,425.37V402.64a1.06,1.06,0,0,1,1.06-1.06h19.31a1.06,1.06,0,0,1,1.06,1.06v22.73" transform="translate(0 -75.5)"/>
    <line class="cls-4" x1="465.66" y1="326.09" x2="465.66" y2="351.63"/>
    <rect class="cls-5" x="451.77" y="352.33" width="27.78" height="5.23" rx="1.5" ry="1.5"/>
    <rect class="cls-5" x="489.12" y="352.33" width="27.78" height="5.23" rx="1.5" ry="1.5"/>
    <rect class="cls-5" x="451.77" y="394.61" width="27.78" height="5.23" rx="1.5" ry="1.5"/>
    <rect class="cls-5" x="489.12" y="394.61" width="27.78" height="5.23" rx="1.5" ry="1.5"/>
    <rect class="cls-5" x="451.77" y="436.89" width="27.78" height="5.23" rx="1.5" ry="1.5"/>
    <rect class="cls-5" x="489.12" y="436.89" width="27.78" height="5.23" rx="1.5" ry="1.5"/>
    <rect class="cls-5" x="489.12" y="479.17" width="27.78" height="5.23" rx="1.5" ry="1.5"/>
    <rect class="cls-2" x="451.77" y="350.22" width="27.78" height="5.23" rx="1.5" ry="1.5"/>
    <rect class="cls-3" x="451.77" y="350.22" width="27.78" height="5.23" rx="1.5" ry="1.5"/>
    <path class="cls-3" d="M513.73,425.37V402.64a1.06,1.06,0,0,0-1.06-1.06H493.35a1.06,1.06,0,0,0-1.06,1.06v22.73" transform="translate(0 -75.5)"/>
    <line class="cls-4" x1="503.01" y1="326.09" x2="503.01" y2="351.63"/>
    <rect class="cls-2" x="489.12" y="350.22" width="27.78" height="5.23" rx="1.5" ry="1.5"/>
    <rect class="cls-3" x="489.12" y="350.22" width="27.78" height="5.23" rx="1.5" ry="1.5"/>
    <path class="cls-3" d="M527.52,430.95h20.73a1.06,1.06,0,0,0,1.06-1.06v-3.11a1.06,1.06,0,0,0-1.06-1.06h-20" transform="translate(0 -75.5)"/>
    <path class="cls-3" d="M455,467.65V444.92a1.06,1.06,0,0,1,1.06-1.06h19.31a1.06,1.06,0,0,1,1.06,1.06v22.73" transform="translate(0 -75.5)"/>
    <line class="cls-4" x1="465.66" y1="368.37" x2="465.66" y2="393.91"/>
    <rect class="cls-2" x="451.77" y="392.5" width="27.78" height="5.23" rx="1.5" ry="1.5"/>
    <rect class="cls-3" x="451.77" y="392.5" width="27.78" height="5.23" rx="1.5" ry="1.5"/>
    <path class="cls-3" d="M492.3,467.65V444.92a1.06,1.06,0,0,1,1.06-1.06h19.31a1.06,1.06,0,0,1,1.06,1.06v22.73" transform="translate(0 -75.5)"/>
    <line class="cls-4" x1="503.01" y1="368.37" x2="503.01" y2="393.91"/>
    <rect class="cls-2" x="489.12" y="392.5" width="27.78" height="5.23" rx="1.5" ry="1.5"/>
    <rect class="cls-3" x="489.12" y="392.5" width="27.78" height="5.23" rx="1.5" ry="1.5"/>
    <path class="cls-3" d="M455,509.93V487.2a1.06,1.06,0,0,1,1.06-1.06h19.31a1.06,1.06,0,0,1,1.06,1.06v22.73" transform="translate(0 -75.5)"/>
    <path class="cls-3" d="M451.77,570.53v-41a1.25,1.25,0,0,1,1.37-1.06h25a1.25,1.25,0,0,1,1.37,1.06v41" transform="translate(0 -75.5)"/>
    <line class="cls-4" x1="465.66" y1="410.64" x2="465.66" y2="436.19"/>
    <rect class="cls-2" x="451.77" y="434.78" width="27.78" height="5.23" rx="1.5" ry="1.5"/>
    <rect class="cls-3" x="451.77" y="434.78" width="27.78" height="5.23" rx="1.5" ry="1.5"/>
    <path class="cls-3" d="M492.3,509.93V487.2a1.06,1.06,0,0,1,1.06-1.06h19.31a1.06,1.06,0,0,1,1.06,1.06v22.73" transform="translate(0 -75.5)"/>
    <line class="cls-4" x1="503.01" y1="410.64" x2="503.01" y2="436.19"/>
    <rect class="cls-2" x="489.12" y="434.78" width="27.78" height="5.23" rx="1.5" ry="1.5"/>
    <rect class="cls-3" x="489.12" y="434.78" width="27.78" height="5.23" rx="1.5" ry="1.5"/>
    <path class="cls-3" d="M492.3,552.21V529.48a1.06,1.06,0,0,1,1.06-1.06h19.31a1.06,1.06,0,0,1,1.06,1.06v22.73" transform="translate(0 -75.5)"/>
    <line class="cls-4" x1="503.01" y1="452.92" x2="503.01" y2="478.47"/>
    <rect class="cls-2" x="489.12" y="477.06" width="27.78" height="5.23" rx="1.5" ry="1.5"/>
    <rect class="cls-3" x="489.12" y="477.06" width="27.78" height="5.23" rx="1.5" ry="1.5"/>
    <rect class="cls-3" x="456.21" y="457.77" width="18.91" height="19.29" rx="1.56" ry="1.56"/>
    <path class="cls-3" d="M456.21,571.19v-4.93a1.1,1.1,0,0,1,1.1-1.1H474a1.1,1.1,0,0,1,1.1,1.1v4.93" transform="translate(0 -75.5)"/>
    <line class="cls-4" x1="465.66" y1="457.77" x2="465.66" y2="477.06"/>
    <circle class="cls-4" cx="457.79" cy="481.66" r="0.9"/>
    <line class="cls-6" x1="527.52" y1="339.91" x2="546.11" y2="339.91"/>
    <line class="cls-6" x1="546.34" y1="349.56" x2="546.34" y2="337.98"/>
    <line class="cls-6" x1="539.29" y1="349.56" x2="539.29" y2="337.98"/>
    <line class="cls-6" x1="531.54" y1="349.56" x2="531.54" y2="337.98"/>
    <path class="cls-3" d="M527.52,473.23h20.73a1.06,1.06,0,0,0,1.06-1.06v-3.11a1.06,1.06,0,0,0-1.06-1.06h-20" transform="translate(0 -75.5)"/>
    <line class="cls-6" x1="527.52" y1="382.19" x2="546.11" y2="382.19"/>
    <line class="cls-6" x1="546.34" y1="391.84" x2="546.34" y2="380.26"/>
    <line class="cls-6" x1="539.29" y1="391.84" x2="539.29" y2="380.26"/>
    <line class="cls-6" x1="531.54" y1="391.84" x2="531.54" y2="380.26"/>
    <path class="cls-3" d="M527.52,515.51h20.73a1.06,1.06,0,0,0,1.06-1.06v-3.11a1.06,1.06,0,0,0-1.06-1.06h-20" transform="translate(0 -75.5)"/>
    <line class="cls-6" x1="527.52" y1="424.47" x2="546.11" y2="424.47"/>
    <line class="cls-6" x1="546.34" y1="434.12" x2="546.34" y2="422.54"/>
    <line class="cls-6" x1="539.29" y1="434.12" x2="539.29" y2="422.54"/>
    <line class="cls-6" x1="531.54" y1="434.12" x2="531.54" y2="422.54"/>
    <path class="cls-3" d="M527.52,557.78h20.73a1.06,1.06,0,0,0,1.06-1.06v-3.11a1.06,1.06,0,0,0-1.06-1.06h-20" transform="translate(0 -75.5)"/>
    <line class="cls-6" x1="527.52" y1="466.75" x2="546.11" y2="466.75"/>
    <line class="cls-6" x1="546.34" y1="476.4" x2="546.34" y2="464.81"/>
    <line class="cls-6" x1="539.29" y1="476.4" x2="539.29" y2="464.81"/>
    <line class="cls-6" x1="531.54" y1="476.4" x2="531.54" y2="464.81"/>
    <line class="cls-6" x1="446.73" y1="309.7" x2="446.73" y2="300.42"/>
    <line class="cls-6" x1="439.33" y1="300.42" x2="454.36" y2="300.42"/>
    <line class="cls-6" x1="450.49" y1="300.42" x2="450.49" y2="296.67"/>
    <line class="cls-6" x1="442.62" y1="300.42" x2="442.62" y2="296.96"/>
    <polyline class="cls-7" points="510.98 309.7 510.98 305.56 514.59 305.56 514.59 309.26"/>
    <rect class="cls-7" x="508.31" y="301.91" width="8.95" height="3.66" rx="0.81" ry="0.81"/>
  </g>
  <g class="cls-1">
    <rect class="cls-2" x="701.09" y="314.99" width="86.44" height="180.39" rx="1.5" ry="1.5"/>
    <rect class="cls-3" x="701.09" y="314.99" width="86.44" height="180.39" rx="1.5" ry="1.5"/>
    <rect class="cls-2" x="693.93" y="309.7" width="100.77" height="8.57" rx="1.5" ry="1.5"/>
    <rect class="cls-3" x="693.93" y="309.7" width="100.77" height="8.57" rx="1.5" ry="1.5"/>
    <path class="cls-3" d="M715,425.37V402.64a1.06,1.06,0,0,1,1.06-1.06h19.31a1.06,1.06,0,0,1,1.06,1.06v22.73" transform="translate(0 -75.5)"/>
    <line class="cls-4" x1="725.66" y1="326.09" x2="725.66" y2="351.63"/>
    <rect class="cls-5" x="711.77" y="352.33" width="27.78" height="5.23" rx="1.5" ry="1.5"/>
    <rect class="cls-5" x="749.12" y="352.33" width="27.78" height="5.23" rx="1.5" ry="1.5"/>
    <rect class="cls-5" x="711.77" y="394.61" width="27.78" height="5.23" rx="1.5" ry="1.5"/>
    <rect class="cls-5" x="749.12" y="394.61" width="27.78" height="5.23" rx="1.5" ry="1.5"/>
    <rect class="cls-5" x="711.77" y="436.89" width="27.78" height="5.23" rx="1.5" ry="1.5"/>
    <rect class="cls-5" x="749.12" y="436.89" width="27.78" height="5.23" rx="1.5" ry="1.5"/>
    <rect class="cls-5" x="749.12" y="479.17" width="27.78" height="5.23" rx="1.5" ry="1.5"/>
    <rect class="cls-2" x="711.77" y="350.22" width="27.78" height="5.23" rx="1.5" ry="1.5"/>
    <rect class="cls-3" x="711.77" y="350.22" width="27.78" height="5.23" rx="1.5" ry="1.5"/>
    <path class="cls-3" d="M773.73,425.37V402.64a1.06,1.06,0,0,0-1.06-1.06H753.35a1.06,1.06,0,0,0-1.06,1.06v22.73" transform="translate(0 -75.5)"/>
    <line class="cls-4" x1="763.01" y1="326.09" x2="763.01" y2="351.63"/>
    <rect class="cls-2" x="749.12" y="350.22" width="27.78" height="5.23" rx="1.5" ry="1.5"/>
    <rect class="cls-3" x="749.12" y="350.22" width="27.78" height="5.23" rx="1.5" ry="1.5"/>
    <path class="cls-3" d="M787.52,430.95h20.73a1.06,1.06,0,0,0,1.06-1.06v-3.11a1.06,1.06,0,0,0-1.06-1.06h-20" transform="translate(0 -75.5)"/>
    <path class="cls-3" d="M715,467.65V444.92a1.06,1.06,0,0,1,1.06-1.06h19.31a1.06,1.06,0,0,1,1.06,1.06v22.73" transform="translate(0 -75.5)"/>
    <line class="cls-4" x1="725.66" y1="368.37" x2="725.66" y2="393.91"/>
    <rect class="cls-2" x="711.77" y="392.5" width="27.78" height="5.23" rx="1.5" ry="1.5"/>
    <rect class="cls-3" x="711.77" y="392.5" width="27.78" height="5.23" rx="1.5" ry="1.5"/>
    <path class="cls-3" d="M752.3,467.65V444.92a1.06,1.06,0,0,1,1.06-1.06h19.31a1.06,1.06,0,0,1,1.06,1.06v22.73" transform="translate(0 -75.5)"/>
    <line class="cls-4" x1="763.01" y1="368.37" x2="763.01" y2="393.91"/>
    <rect class="cls-2" x="749.12" y="392.5" width="27.78" height="5.23" rx="1.5" ry="1.5"/>
    <rect class="cls-3" x="749.12" y="392.5" width="27.78" height="5.23" rx="1.5" ry="1.5"/>
    <path class="cls-3" d="M715,509.93V487.2a1.06,1.06,0,0,1,1.06-1.06h19.31a1.06,1.06,0,0,1,1.06,1.06v22.73" transform="translate(0 -75.5)"/>
    <path class="cls-3" d="M711.77,570.53v-41a1.25,1.25,0,0,1,1.37-1.06h25a1.25,1.25,0,0,1,1.37,1.06v41" transform="translate(0 -75.5)"/>
    <line class="cls-4" x1="725.66" y1="410.64" x2="725.66" y2="436.19"/>
    <rect class="cls-2" x="711.77" y="434.78" width="27.78" height="5.23" rx="1.5" ry="1.5"/>
    <rect class="cls-3" x="711.77" y="434.78" width="27.78" height="5.23" rx="1.5" ry="1.5"/>
    <path class="cls-3" d="M752.3,509.93V487.2a1.06,1.06,0,0,1,1.06-1.06h19.31a1.06,1.06,0,0,1,1.06,1.06v22.73" transform="translate(0 -75.5)"/>
    <line class="cls-4" x1="763.01" y1="410.64" x2="763.01" y2="436.19"/>
    <rect class="cls-2" x="749.12" y="434.78" width="27.78" height="5.23" rx="1.5" ry="1.5"/>
    <rect class="cls-3" x="749.12" y="434.78" width="27.78" height="5.23" rx="1.5" ry="1.5"/>
    <path class="cls-3" d="M752.3,552.21V529.48a1.06,1.06,0,0,1,1.06-1.06h19.31a1.06,1.06,0,0,1,1.06,1.06v22.73" transform="translate(0 -75.5)"/>
    <line class="cls-4" x1="763.01" y1="452.92" x2="763.01" y2="478.47"/>
    <rect class="cls-2" x="749.12" y="477.06" width="27.78" height="5.23" rx="1.5" ry="1.5"/>
    <rect class="cls-3" x="749.12" y="477.06" width="27.78" height="5.23" rx="1.5" ry="1.5"/>
    <rect class="cls-3" x="716.21" y="457.77" width="18.91" height="19.29" rx="1.56" ry="1.56"/>
    <path class="cls-3" d="M716.21,571.19v-4.93a1.1,1.1,0,0,1,1.1-1.1H734a1.1,1.1,0,0,1,1.1,1.1v4.93" transform="translate(0 -75.5)"/>
    <line class="cls-4" x1="725.66" y1="457.77" x2="725.66" y2="477.06"/>
    <circle class="cls-4" cx="717.79" cy="481.66" r="0.9"/>
    <line class="cls-6" x1="787.52" y1="339.91" x2="806.11" y2="339.91"/>
    <line class="cls-6" x1="806.34" y1="349.56" x2="806.34" y2="337.98"/>
    <line class="cls-6" x1="799.29" y1="349.56" x2="799.29" y2="337.98"/>
    <line class="cls-6" x1="791.54" y1="349.56" x2="791.54" y2="337.98"/>
    <path class="cls-3" d="M787.52,473.23h20.73a1.06,1.06,0,0,0,1.06-1.06v-3.11a1.06,1.06,0,0,0-1.06-1.06h-20" transform="translate(0 -75.5)"/>
    <line class="cls-6" x1="787.52" y1="382.19" x2="806.11" y2="382.19"/>
    <line class="cls-6" x1="806.34" y1="391.84" x2="806.34" y2="380.26"/>
    <line class="cls-6" x1="799.29" y1="391.84" x2="799.29" y2="380.26"/>
    <line class="cls-6" x1="791.54" y1="391.84" x2="791.54" y2="380.26"/>
    <path class="cls-3" d="M787.52,515.51h20.73a1.06,1.06,0,0,0,1.06-1.06v-3.11a1.06,1.06,0,0,0-1.06-1.06h-20" transform="translate(0 -75.5)"/>
    <line class="cls-6" x1="787.52" y1="424.47" x2="806.11" y2="424.47"/>
    <line class="cls-6" x1="806.34" y1="434.12" x2="806.34" y2="422.54"/>
    <line class="cls-6" x1="799.29" y1="434.12" x2="799.29" y2="422.54"/>
    <line class="cls-6" x1="791.54" y1="434.12" x2="791.54" y2="422.54"/>
    <path class="cls-3" d="M787.52,557.78h20.73a1.06,1.06,0,0,0,1.06-1.06v-3.11a1.06,1.06,0,0,0-1.06-1.06h-20" transform="translate(0 -75.5)"/>
    <line class="cls-6" x1="787.52" y1="466.75" x2="806.11" y2="466.75"/>
    <line class="cls-6" x1="806.34" y1="476.4" x2="806.34" y2="464.81"/>
    <line class="cls-6" x1="799.29" y1="476.4" x2="799.29" y2="464.81"/>
    <line class="cls-6" x1="791.54" y1="476.4" x2="791.54" y2="464.81"/>
    <line class="cls-6" x1="706.73" y1="309.7" x2="706.73" y2="300.42"/>
    <line class="cls-6" x1="699.33" y1="300.42" x2="714.36" y2="300.42"/>
    <line class="cls-6" x1="710.49" y1="300.42" x2="710.49" y2="296.67"/>
    <line class="cls-6" x1="702.62" y1="300.42" x2="702.62" y2="296.96"/>
    <polyline class="cls-7" points="770.98 309.7 770.98 305.56 774.59 305.56 774.59 309.26"/>
    <rect class="cls-7" x="768.31" y="301.91" width="8.95" height="3.66" rx="0.81" ry="0.81"/>
  </g>
  <g class="cls-1">
    <rect class="cls-2" x="980.09" y="314.99" width="86.44" height="180.39" rx="1.5" ry="1.5"/>
    <rect class="cls-3" x="980.09" y="314.99" width="86.44" height="180.39" rx="1.5" ry="1.5"/>
    <rect class="cls-2" x="972.93" y="309.7" width="100.77" height="8.57" rx="1.5" ry="1.5"/>
    <rect class="cls-3" x="972.93" y="309.7" width="100.77" height="8.57" rx="1.5" ry="1.5"/>
    <path class="cls-3" d="M994,425.37V402.64a1.06,1.06,0,0,1,1.06-1.06h19.31a1.06,1.06,0,0,1,1.06,1.06v22.73" transform="translate(0 -75.5)"/>
    <line class="cls-4" x1="1004.66" y1="326.09" x2="1004.66" y2="351.63"/>
    <rect class="cls-5" x="990.77" y="352.33" width="27.78" height="5.23" rx="1.5" ry="1.5"/>
    <rect class="cls-5" x="1028.12" y="352.33" width="27.78" height="5.23" rx="1.5" ry="1.5"/>
    <rect class="cls-5" x="990.77" y="394.61" width="27.78" height="5.23" rx="1.5" ry="1.5"/>
    <rect class="cls-5" x="1028.12" y="394.61" width="27.78" height="5.23" rx="1.5" ry="1.5"/>
    <rect class="cls-5" x="990.77" y="436.89" width="27.78" height="5.23" rx="1.5" ry="1.5"/>
    <rect class="cls-5" x="1028.12" y="436.89" width="27.78" height="5.23" rx="1.5" ry="1.5"/>
    <rect class="cls-5" x="1028.12" y="479.17" width="27.78" height="5.23" rx="1.5" ry="1.5"/>
    <rect class="cls-2" x="990.77" y="350.22" width="27.78" height="5.23" rx="1.5" ry="1.5"/>
    <rect class="cls-3" x="990.77" y="350.22" width="27.78" height="5.23" rx="1.5" ry="1.5"/>
    <path class="cls-3" d="M1052.73,425.37V402.64a1.06,1.06,0,0,0-1.06-1.06h-19.31a1.06,1.06,0,0,0-1.06,1.06v22.73" transform="translate(0 -75.5)"/>
    <line class="cls-4" x1="1042.01" y1="326.09" x2="1042.01" y2="351.63"/>
    <rect class="cls-2" x="1028.12" y="350.22" width="27.78" height="5.23" rx="1.5" ry="1.5"/>
    <rect class="cls-3" x="1028.12" y="350.22" width="27.78" height="5.23" rx="1.5" ry="1.5"/>
    <path class="cls-3" d="M1066.52,430.95h20.73a1.06,1.06,0,0,0,1.06-1.06v-3.11a1.06,1.06,0,0,0-1.06-1.06h-20" transform="translate(0 -75.5)"/>
    <path class="cls-3" d="M994,467.65V444.92a1.06,1.06,0,0,1,1.06-1.06h19.31a1.06,1.06,0,0,1,1.06,1.06v22.73" transform="translate(0 -75.5)"/>
    <line class="cls-4" x1="1004.66" y1="368.37" x2="1004.66" y2="393.91"/>
    <rect class="cls-2" x="990.77" y="392.5" width="27.78" height="5.23" rx="1.5" ry="1.5"/>
    <rect class="cls-3" x="990.77" y="392.5" width="27.78" height="5.23" rx="1.5" ry="1.5"/>
    <path class="cls-3" d="M1031.3,467.65V444.92a1.06,1.06,0,0,1,1.06-1.06h19.31a1.06,1.06,0,0,1,1.06,1.06v22.73" transform="translate(0 -75.5)"/>
    <line class="cls-4" x1="1042.01" y1="368.37" x2="1042.01" y2="393.91"/>
    <rect class="cls-2" x="1028.12" y="392.5" width="27.78" height="5.23" rx="1.5" ry="1.5"/>
    <rect class="cls-3" x="1028.12" y="392.5" width="27.78" height="5.23" rx="1.5" ry="1.5"/>
    <path class="cls-3" d="M994,509.93V487.2a1.06,1.06,0,0,1,1.06-1.06h19.31a1.06,1.06,0,0,1,1.06,1.06v22.73" transform="translate(0 -75.5)"/>
    <path class="cls-3" d="M990.77,570.53v-41a1.25,1.25,0,0,1,1.37-1.06h25a1.25,1.25,0,0,1,1.37,1.06v41" transform="translate(0 -75.5)"/>
    <line class="cls-4" x1="1004.66" y1="410.64" x2="1004.66" y2="436.19"/>
    <rect class="cls-2" x="990.77" y="434.78" width="27.78" height="5.23" rx="1.5" ry="1.5"/>
    <rect class="cls-3" x="990.77" y="434.78" width="27.78" height="5.23" rx="1.5" ry="1.5"/>
    <path class="cls-3" d="M1031.3,509.93V487.2a1.06,1.06,0,0,1,1.06-1.06h19.31a1.06,1.06,0,0,1,1.06,1.06v22.73" transform="translate(0 -75.5)"/>
    <line class="cls-4" x1="1042.01" y1="410.64" x2="1042.01" y2="436.19"/>
    <rect class="cls-2" x="1028.12" y="434.78" width="27.78" height="5.23" rx="1.5" ry="1.5"/>
    <rect class="cls-3" x="1028.12" y="434.78" width="27.78" height="5.23" rx="1.5" ry="1.5"/>
    <path class="cls-3" d="M1031.3,552.21V529.48a1.06,1.06,0,0,1,1.06-1.06h19.31a1.06,1.06,0,0,1,1.06,1.06v22.73" transform="translate(0 -75.5)"/>
    <line class="cls-4" x1="1042.01" y1="452.92" x2="1042.01" y2="478.47"/>
    <rect class="cls-2" x="1028.12" y="477.06" width="27.78" height="5.23" rx="1.5" ry="1.5"/>
    <rect class="cls-3" x="1028.12" y="477.06" width="27.78" height="5.23" rx="1.5" ry="1.5"/>
    <rect class="cls-3" x="995.21" y="457.77" width="18.91" height="19.29" rx="1.56" ry="1.56"/>
    <path class="cls-3" d="M995.21,571.19v-4.93a1.1,1.1,0,0,1,1.1-1.1H1013a1.1,1.1,0,0,1,1.1,1.1v4.93" transform="translate(0 -75.5)"/>
    <line class="cls-4" x1="1004.66" y1="457.77" x2="1004.66" y2="477.06"/>
    <circle class="cls-4" cx="996.79" cy="481.66" r="0.9"/>
    <line class="cls-6" x1="1066.52" y1="339.91" x2="1085.11" y2="339.91"/>
    <line class="cls-6" x1="1085.34" y1="349.56" x2="1085.34" y2="337.98"/>
    <line class="cls-6" x1="1078.29" y1="349.56" x2="1078.29" y2="337.98"/>
    <line class="cls-6" x1="1070.54" y1="349.56" x2="1070.54" y2="337.98"/>
    <path class="cls-3" d="M1066.52,473.23h20.73a1.06,1.06,0,0,0,1.06-1.06v-3.11a1.06,1.06,0,0,0-1.06-1.06h-20" transform="translate(0 -75.5)"/>
    <line class="cls-6" x1="1066.52" y1="382.19" x2="1085.11" y2="382.19"/>
    <line class="cls-6" x1="1085.34" y1="391.84" x2="1085.34" y2="380.26"/>
    <line class="cls-6" x1="1078.29" y1="391.84" x2="1078.29" y2="380.26"/>
    <line class="cls-6" x1="1070.54" y1="391.84" x2="1070.54" y2="380.26"/>
    <path class="cls-3" d="M1066.52,515.51h20.73a1.06,1.06,0,0,0,1.06-1.06v-3.11a1.06,1.06,0,0,0-1.06-1.06h-20" transform="translate(0 -75.5)"/>
    <line class="cls-6" x1="1066.52" y1="424.47" x2="1085.11" y2="424.47"/>
    <line class="cls-6" x1="1085.34" y1="434.12" x2="1085.34" y2="422.54"/>
    <line class="cls-6" x1="1078.29" y1="434.12" x2="1078.29" y2="422.54"/>
    <line class="cls-6" x1="1070.54" y1="434.12" x2="1070.54" y2="422.54"/>
    <path class="cls-3" d="M1066.52,557.78h20.73a1.06,1.06,0,0,0,1.06-1.06v-3.11a1.06,1.06,0,0,0-1.06-1.06h-20" transform="translate(0 -75.5)"/>
    <line class="cls-6" x1="1066.52" y1="466.75" x2="1085.11" y2="466.75"/>
    <line class="cls-6" x1="1085.34" y1="476.4" x2="1085.34" y2="464.81"/>
    <line class="cls-6" x1="1078.29" y1="476.4" x2="1078.29" y2="464.81"/>
    <line class="cls-6" x1="1070.54" y1="476.4" x2="1070.54" y2="464.81"/>
    <line class="cls-6" x1="985.73" y1="309.7" x2="985.73" y2="300.42"/>
    <line class="cls-6" x1="978.33" y1="300.42" x2="993.36" y2="300.42"/>
    <line class="cls-6" x1="989.49" y1="300.42" x2="989.49" y2="296.67"/>
    <line class="cls-6" x1="981.62" y1="300.42" x2="981.62" y2="296.96"/>
    <polyline class="cls-7" points="1049.98 309.7 1049.98 305.56 1053.59 305.56 1053.59 309.26"/>
    <rect class="cls-7" x="1047.31" y="301.91" width="8.95" height="3.66" rx="0.81" ry="0.81"/>
  </g>
  <rect class="cls-2" x="72.09" y="239.25" width="122.67" height="256" rx="1.5" ry="1.5"/>
  <rect class="cls-3" x="72.09" y="239.25" width="122.67" height="256" rx="1.5" ry="1.5"/>
  <rect class="cls-2" x="61.93" y="231.75" width="143" height="12.17" rx="1.5" ry="1.5"/>
  <rect class="cls-3" x="61.93" y="231.75" width="143" height="12.17" rx="1.5" ry="1.5"/>
  <path class="cls-3" d="M91.76,364.25V332a1.5,1.5,0,0,1,1.5-1.5h27.41a1.5,1.5,0,0,1,1.5,1.5v32.25" transform="translate(0 -75.5)"/>
  <line class="cls-4" x1="106.97" y1="255" x2="106.97" y2="291.25"/>
  <rect class="cls-5" x="87.25" y="292.25" width="39.42" height="7.42" rx="1.5" ry="1.5"/>
  <rect class="cls-5" x="140.25" y="292.25" width="39.42" height="7.42" rx="1.5" ry="1.5"/>
  <rect class="cls-5" x="87.25" y="352.25" width="39.42" height="7.42" rx="1.5" ry="1.5"/>
  <rect class="cls-5" x="140.25" y="352.25" width="39.42" height="7.42" rx="1.5" ry="1.5"/>
  <rect class="cls-5" x="87.25" y="412.25" width="39.42" height="7.42" rx="1.5" ry="1.5"/>
  <rect class="cls-5" x="140.25" y="412.25" width="39.42" height="7.42" rx="1.5" ry="1.5"/>
  <rect class="cls-5" x="140.25" y="472.25" width="39.42" height="7.42" rx="1.5" ry="1.5"/>
  <rect class="cls-2" x="87.25" y="289.25" width="39.42" height="7.42" rx="1.5" ry="1.5"/>
  <rect class="cls-3" x="87.25" y="289.25" width="39.42" height="7.42" rx="1.5" ry="1.5"/>
  <path class="cls-3" d="M175.17,364.25V332a1.5,1.5,0,0,0-1.5-1.5H146.26a1.5,1.5,0,0,0-1.5,1.5v32.25" transform="translate(0 -75.5)"/>
  <line class="cls-4" x1="159.97" y1="255" x2="159.97" y2="291.25"/>
  <rect class="cls-2" x="140.25" y="289.25" width="39.42" height="7.42" rx="1.5" ry="1.5"/>
  <rect class="cls-3" x="140.25" y="289.25" width="39.42" height="7.42" rx="1.5" ry="1.5"/>
  <path class="cls-3" d="M194.75,372.17h29.42a1.5,1.5,0,0,0,1.5-1.5v-4.42a1.5,1.5,0,0,0-1.5-1.5H195.75" transform="translate(0 -75.5)"/>
  <path class="cls-3" d="M91.76,424.25V392a1.5,1.5,0,0,1,1.5-1.5h27.41a1.5,1.5,0,0,1,1.5,1.5v32.25" transform="translate(0 -75.5)"/>
  <line class="cls-4" x1="106.97" y1="315" x2="106.97" y2="351.25"/>
  <rect class="cls-2" x="87.25" y="349.25" width="39.42" height="7.42" rx="1.5" ry="1.5"/>
  <rect class="cls-3" x="87.25" y="349.25" width="39.42" height="7.42" rx="1.5" ry="1.5"/>
  <path class="cls-3" d="M144.76,424.25V392a1.5,1.5,0,0,1,1.5-1.5h27.41a1.5,1.5,0,0,1,1.5,1.5v32.25" transform="translate(0 -75.5)"/>
  <line class="cls-4" x1="159.97" y1="315" x2="159.97" y2="351.25"/>
  <rect class="cls-2" x="140.25" y="349.25" width="39.42" height="7.42" rx="1.5" ry="1.5"/>
  <rect class="cls-3" x="140.25" y="349.25" width="39.42" height="7.42" rx="1.5" ry="1.5"/>
  <path class="cls-3" d="M91.76,484.25V452a1.5,1.5,0,0,1,1.5-1.5h27.41a1.5,1.5,0,0,1,1.5,1.5v32.25" transform="translate(0 -75.5)"/>
  <path class="cls-3" d="M87.25,570.25V512a1.77,1.77,0,0,1,1.94-1.5h35.53a1.77,1.77,0,0,1,1.94,1.5v58.25" transform="translate(0 -75.5)"/>
  <line class="cls-4" x1="106.97" y1="375" x2="106.97" y2="411.25"/>
  <rect class="cls-2" x="87.25" y="409.25" width="39.42" height="7.42" rx="1.5" ry="1.5"/>
  <rect class="cls-3" x="87.25" y="409.25" width="39.42" height="7.42" rx="1.5" ry="1.5"/>
  <path class="cls-3" d="M144.76,484.25V452a1.5,1.5,0,0,1,1.5-1.5h27.41a1.5,1.5,0,0,1,1.5,1.5v32.25" transform="translate(0 -75.5)"/>
  <line class="cls-4" x1="159.97" y1="375" x2="159.97" y2="411.25"/>
  <rect class="cls-2" x="140.25" y="409.25" width="39.42" height="7.42" rx="1.5" ry="1.5"/>
  <rect class="cls-3" x="140.25" y="409.25" width="39.42" height="7.42" rx="1.5" ry="1.5"/>
  <path class="cls-3" d="M144.76,544.25V512a1.5,1.5,0,0,1,1.5-1.5h27.41a1.5,1.5,0,0,1,1.5,1.5v32.25" transform="translate(0 -75.5)"/>
  <line class="cls-4" x1="159.97" y1="435" x2="159.97" y2="471.25"/>
  <rect class="cls-2" x="140.25" y="469.25" width="39.42" height="7.42" rx="1.5" ry="1.5"/>
  <rect class="cls-3" x="140.25" y="469.25" width="39.42" height="7.42" rx="1.5" ry="1.5"/>
  <rect class="cls-3" x="93.55" y="441.88" width="26.84" height="27.38" rx="1.56" ry="1.56"/>
  <path class="cls-3" d="M94.55,571.19v-7a1.57,1.57,0,0,1,1.56-1.56h23.72a1.57,1.57,0,0,1,1.56,1.56v7" transform="translate(0 -75.5)"/>
  <line class="cls-4" x1="106.97" y1="441.88" x2="106.97" y2="469.25"/>
  <circle class="cls-3" cx="95.79" cy="475.78" r="1.28"/>
  <line class="cls-6" x1="194.75" y1="274.63" x2="221.14" y2="274.63"/>
  <line class="cls-6" x1="221.45" y1="288.31" x2="221.45" y2="271.87"/>
  <line class="cls-6" x1="211.45" y1="288.31" x2="211.45" y2="271.87"/>
  <line class="cls-6" x1="200.45" y1="288.31" x2="200.45" y2="271.87"/>
  <path class="cls-3" d="M194.75,432.17h29.42a1.5,1.5,0,0,0,1.5-1.5v-4.42a1.5,1.5,0,0,0-1.5-1.5H195.75" transform="translate(0 -75.5)"/>
  <line class="cls-6" x1="194.75" y1="334.63" x2="221.14" y2="334.63"/>
  <line class="cls-6" x1="221.45" y1="348.31" x2="221.45" y2="331.87"/>
  <line class="cls-6" x1="211.45" y1="348.31" x2="211.45" y2="331.87"/>
  <line class="cls-6" x1="200.45" y1="348.31" x2="200.45" y2="331.87"/>
  <path class="cls-3" d="M194.75,492.17h29.42a1.5,1.5,0,0,0,1.5-1.5v-4.42a1.5,1.5,0,0,0-1.5-1.5H195.75" transform="translate(0 -75.5)"/>
  <line class="cls-6" x1="194.75" y1="394.63" x2="221.14" y2="394.63"/>
  <line class="cls-6" x1="221.45" y1="408.31" x2="221.45" y2="391.87"/>
  <line class="cls-6" x1="211.45" y1="408.31" x2="211.45" y2="391.87"/>
  <line class="cls-6" x1="200.45" y1="408.31" x2="200.45" y2="391.87"/>
  <line class="cls-6" x1="194.75" y1="454.63" x2="221.14" y2="454.63"/>
  <line class="cls-6" x1="221.45" y1="468.31" x2="221.45" y2="451.87"/>
  <line class="cls-6" x1="211.45" y1="468.31" x2="211.45" y2="451.87"/>
  <line class="cls-6" x1="200.45" y1="468.31" x2="200.45" y2="451.87"/>
  <line class="cls-6" x1="80.09" y1="231.75" x2="80.09" y2="218.58"/>
  <line class="cls-6" x1="69.59" y1="218.58" x2="90.93" y2="218.58"/>
  <line class="cls-6" x1="85.43" y1="218.58" x2="85.43" y2="213.25"/>
  <line class="cls-6" x1="74.26" y1="218.58" x2="74.26" y2="213.67"/>
  <polyline class="cls-7" points="171.27 231.75 171.27 225.88 176.4 225.88 176.4 231.13"/>
  <rect class="cls-7" x="167.48" y="220.69" width="12.71" height="5.19" rx="0.81" ry="0.81"/>
  <rect class="cls-2" x="1031.09" y="239.25" width="122.67" height="256" rx="1.5" ry="1.5"/>
  <rect class="cls-3" x="1031.09" y="239.25" width="122.67" height="256" rx="1.5" ry="1.5"/>
  <rect class="cls-2" x="1020.93" y="231.75" width="143" height="12.17" rx="1.5" ry="1.5"/>
  <rect class="cls-3" x="1020.93" y="231.75" width="143" height="12.17" rx="1.5" ry="1.5"/>
  <path class="cls-3" d="M1050.76,364.25V332a1.5,1.5,0,0,1,1.5-1.5h27.41a1.5,1.5,0,0,1,1.5,1.5v32.25" transform="translate(0 -75.5)"/>
  <line class="cls-4" x1="1065.97" y1="255" x2="1065.97" y2="291.25"/>
  <rect class="cls-5" x="1046.25" y="292.25" width="39.42" height="7.42" rx="1.5" ry="1.5"/>
  <rect class="cls-5" x="1099.25" y="292.25" width="39.42" height="7.42" rx="1.5" ry="1.5"/>
  <rect class="cls-5" x="1046.25" y="352.25" width="39.42" height="7.42" rx="1.5" ry="1.5"/>
  <rect class="cls-5" x="1099.25" y="352.25" width="39.42" height="7.42" rx="1.5" ry="1.5"/>
  <rect class="cls-5" x="1046.25" y="412.25" width="39.42" height="7.42" rx="1.5" ry="1.5"/>
  <rect class="cls-5" x="1099.25" y="412.25" width="39.42" height="7.42" rx="1.5" ry="1.5"/>
  <rect class="cls-5" x="1099.25" y="472.25" width="39.42" height="7.42" rx="1.5" ry="1.5"/>
  <rect class="cls-2" x="1046.25" y="289.25" width="39.42" height="7.42" rx="1.5" ry="1.5"/>
  <rect class="cls-3" x="1046.25" y="289.25" width="39.42" height="7.42" rx="1.5" ry="1.5"/>
  <path class="cls-3" d="M1134.17,364.25V332a1.5,1.5,0,0,0-1.5-1.5h-27.41a1.5,1.5,0,0,0-1.5,1.5v32.25" transform="translate(0 -75.5)"/>
  <line class="cls-4" x1="1118.97" y1="255" x2="1118.97" y2="291.25"/>
  <rect class="cls-2" x="1099.25" y="289.25" width="39.42" height="7.42" rx="1.5" ry="1.5"/>
  <rect class="cls-3" x="1099.25" y="289.25" width="39.42" height="7.42" rx="1.5" ry="1.5"/>
  <path class="cls-3" d="M1153.75,372.17h29.42a1.5,1.5,0,0,0,1.5-1.5v-4.42a1.5,1.5,0,0,0-1.5-1.5h-28.42" transform="translate(0 -75.5)"/>
  <path class="cls-3" d="M1050.76,424.25V392a1.5,1.5,0,0,1,1.5-1.5h27.41a1.5,1.5,0,0,1,1.5,1.5v32.25" transform="translate(0 -75.5)"/>
  <line class="cls-4" x1="1065.97" y1="315" x2="1065.97" y2="351.25"/>
  <rect class="cls-2" x="1046.25" y="349.25" width="39.42" height="7.42" rx="1.5" ry="1.5"/>
  <rect class="cls-3" x="1046.25" y="349.25" width="39.42" height="7.42" rx="1.5" ry="1.5"/>
  <path class="cls-3" d="M1103.76,424.25V392a1.5,1.5,0,0,1,1.5-1.5h27.41a1.5,1.5,0,0,1,1.5,1.5v32.25" transform="translate(0 -75.5)"/>
  <line class="cls-4" x1="1118.97" y1="315" x2="1118.97" y2="351.25"/>
  <rect class="cls-2" x="1099.25" y="349.25" width="39.42" height="7.42" rx="1.5" ry="1.5"/>
  <rect class="cls-3" x="1099.25" y="349.25" width="39.42" height="7.42" rx="1.5" ry="1.5"/>
  <path class="cls-3" d="M1050.76,484.25V452a1.5,1.5,0,0,1,1.5-1.5h27.41a1.5,1.5,0,0,1,1.5,1.5v32.25" transform="translate(0 -75.5)"/>
  <path class="cls-3" d="M1046.25,570.25V512a1.77,1.77,0,0,1,1.94-1.5h35.53a1.77,1.77,0,0,1,1.94,1.5v58.25" transform="translate(0 -75.5)"/>
  <line class="cls-4" x1="1065.97" y1="375" x2="1065.97" y2="411.25"/>
  <rect class="cls-2" x="1046.25" y="409.25" width="39.42" height="7.42" rx="1.5" ry="1.5"/>
  <rect class="cls-3" x="1046.25" y="409.25" width="39.42" height="7.42" rx="1.5" ry="1.5"/>
  <path class="cls-3" d="M1103.76,484.25V452a1.5,1.5,0,0,1,1.5-1.5h27.41a1.5,1.5,0,0,1,1.5,1.5v32.25" transform="translate(0 -75.5)"/>
  <line class="cls-4" x1="1118.97" y1="375" x2="1118.97" y2="411.25"/>
  <rect class="cls-2" x="1099.25" y="409.25" width="39.42" height="7.42" rx="1.5" ry="1.5"/>
  <rect class="cls-3" x="1099.25" y="409.25" width="39.42" height="7.42" rx="1.5" ry="1.5"/>
  <path class="cls-3" d="M1103.76,544.25V512a1.5,1.5,0,0,1,1.5-1.5h27.41a1.5,1.5,0,0,1,1.5,1.5v32.25" transform="translate(0 -75.5)"/>
  <line class="cls-4" x1="1118.97" y1="435" x2="1118.97" y2="471.25"/>
  <rect class="cls-2" x="1099.25" y="469.25" width="39.42" height="7.42" rx="1.5" ry="1.5"/>
  <rect class="cls-3" x="1099.25" y="469.25" width="39.42" height="7.42" rx="1.5" ry="1.5"/>
  <rect class="cls-3" x="1052.55" y="441.88" width="26.84" height="27.38" rx="1.56" ry="1.56"/>
  <path class="cls-3" d="M1052.55,571.19v-7a1.57,1.57,0,0,1,1.56-1.56h23.72a1.57,1.57,0,0,1,1.56,1.56v7" transform="translate(0 -75.5)"/>
  <line class="cls-4" x1="1065.97" y1="441.88" x2="1065.97" y2="469.25"/>
  <circle class="cls-4" cx="1054.79" cy="475.78" r="1.28"/>
  <line class="cls-6" x1="1153.75" y1="274.63" x2="1180.14" y2="274.63"/>
  <line class="cls-6" x1="1180.45" y1="288.31" x2="1180.45" y2="271.87"/>
  <line class="cls-6" x1="1170.45" y1="288.31" x2="1170.45" y2="271.87"/>
  <line class="cls-6" x1="1159.45" y1="288.31" x2="1159.45" y2="271.87"/>
  <path class="cls-3" d="M1153.75,432.17h29.42a1.5,1.5,0,0,0,1.5-1.5v-4.42a1.5,1.5,0,0,0-1.5-1.5h-28.42" transform="translate(0 -75.5)"/>
  <line class="cls-6" x1="1153.75" y1="334.63" x2="1180.14" y2="334.63"/>
  <line class="cls-6" x1="1180.45" y1="348.31" x2="1180.45" y2="331.87"/>
  <line class="cls-6" x1="1170.45" y1="348.31" x2="1170.45" y2="331.87"/>
  <line class="cls-6" x1="1159.45" y1="348.31" x2="1159.45" y2="331.87"/>
  <path class="cls-3" d="M1153.75,492.17h29.42a1.5,1.5,0,0,0,1.5-1.5v-4.42a1.5,1.5,0,0,0-1.5-1.5h-28.42" transform="translate(0 -75.5)"/>
  <line class="cls-6" x1="1153.75" y1="394.63" x2="1180.14" y2="394.63"/>
  <line class="cls-6" x1="1180.45" y1="408.31" x2="1180.45" y2="391.87"/>
  <line class="cls-6" x1="1170.45" y1="408.31" x2="1170.45" y2="391.87"/>
  <line class="cls-6" x1="1159.45" y1="408.31" x2="1159.45" y2="391.87"/>
  <path class="cls-3" d="M1153.75,552.17h29.42a1.5,1.5,0,0,0,1.5-1.5v-4.42a1.5,1.5,0,0,0-1.5-1.5h-28.42" transform="translate(0 -75.5)"/>
  <line class="cls-6" x1="1153.75" y1="454.63" x2="1180.14" y2="454.63"/>
  <line class="cls-6" x1="1180.45" y1="468.31" x2="1180.45" y2="451.87"/>
  <line class="cls-6" x1="1170.45" y1="468.31" x2="1170.45" y2="451.87"/>
  <line class="cls-6" x1="1159.45" y1="468.31" x2="1159.45" y2="451.87"/>
  <line class="cls-6" x1="1039.09" y1="231.75" x2="1039.09" y2="218.58"/>
  <line class="cls-6" x1="1028.59" y1="218.58" x2="1049.93" y2="218.58"/>
  <line class="cls-6" x1="1044.43" y1="218.58" x2="1044.43" y2="213.25"/>
  <line class="cls-6" x1="1033.26" y1="218.58" x2="1033.26" y2="213.67"/>
  <polyline class="cls-7" points="1130.27 231.75 1130.27 225.88 1135.4 225.88 1135.4 231.13"/>
  <rect class="cls-7" x="1126.48" y="220.69" width="12.71" height="5.19" rx="0.81" ry="0.81"/>
  <path class="cls-2" d="M498,569.69V164.57a1.42,1.42,0,0,1,1.42-1.42H748.27a1.42,1.42,0,0,1,1.42,1.42V569.69" transform="translate(0 -75.5)"/>
  <path class="cls-3" d="M498,569.69V164.57a1.42,1.42,0,0,1,1.42-1.42H748.27a1.42,1.42,0,0,1,1.42,1.42V569.69" transform="translate(0 -75.5)"/>
  <line class="cls-3" x1="733.8" y1="87.65" x2="733.8" y2="494.19"/>
  <line class="cls-3" x1="623.47" y1="425.16" x2="623.47" y2="494.19"/>
  <line class="cls-4" x1="686.47" y1="87.65" x2="686.47" y2="494.19"/>
  <line class="cls-4" x1="560.56" y1="87.65" x2="560.56" y2="494.19"/>
  <line class="cls-3" x1="513.23" y1="87.65" x2="513.23" y2="494.19"/>
  <rect class="cls-5" x="491.96" y="326.69" width="263.81" height="11.04" rx="1.79" ry="1.79"/>
  <rect class="cls-5" x="491.96" y="279.35" width="263.81" height="11.04" rx="1.79" ry="1.79"/>
  <rect class="cls-5" x="491.96" y="232.02" width="263.81" height="11.04" rx="1.79" ry="1.79"/>
  <rect class="cls-5" x="491.96" y="184.69" width="263.81" height="11.04" rx="1.79" ry="1.79"/>
  <rect class="cls-5" x="491.96" y="137.35" width="263.81" height="11.04" rx="1.79" ry="1.79"/>
  <rect class="cls-2" x="491.96" y="133.56" width="263.81" height="11.04" rx="1.79" ry="1.79"/>
  <rect class="cls-3" x="491.96" y="133.56" width="263.81" height="11.04" rx="1.79" ry="1.79"/>
  <rect class="cls-5" x="491.96" y="89.07" width="263.81" height="11.04" rx="1.79" ry="1.79"/>
  <rect class="cls-2" x="491.96" y="79.92" width="263.81" height="16.41" rx="1.79" ry="1.79"/>
  <rect class="cls-3" x="491.96" y="79.92" width="263.81" height="16.41" rx="1.79" ry="1.79"/>
  <path class="cls-8" d="M501.61,155V141a1.7,1.7,0,0,1,1.7-1.7H744.41a1.7,1.7,0,0,1,1.7,1.7v14" transform="translate(0 -75.5)"/>
  <rect class="cls-2" x="491.96" y="180.9" width="263.81" height="11.04" rx="1.79" ry="1.79"/>
  <rect class="cls-3" x="491.96" y="180.9" width="263.81" height="11.04" rx="1.79" ry="1.79"/>
  <rect class="cls-2" x="491.96" y="228.23" width="263.81" height="11.04" rx="1.79" ry="1.79"/>
  <rect class="cls-3" x="491.96" y="228.23" width="263.81" height="11.04" rx="1.79" ry="1.79"/>
  <rect class="cls-2" x="491.96" y="275.57" width="263.81" height="11.04" rx="1.79" ry="1.79"/>
  <rect class="cls-3" x="491.96" y="275.57" width="263.81" height="11.04" rx="1.79" ry="1.79"/>
  <rect class="cls-2" x="491.96" y="322.9" width="263.81" height="11.04" rx="1.79" ry="1.79"/>
  <rect class="cls-3" x="491.96" y="322.9" width="263.81" height="11.04" rx="1.79" ry="1.79"/>
  <rect class="cls-5" x="491.96" y="374.23" width="263.81" height="11.04" rx="1.79" ry="1.79"/>
  <rect class="cls-5" x="491.96" y="421.57" width="263.81" height="11.04" rx="1.79" ry="1.79"/>
  <rect class="cls-2" x="491.96" y="370.23" width="263.81" height="11.04" rx="1.79" ry="1.79"/>
  <rect class="cls-3" x="491.96" y="370.23" width="263.81" height="11.04" rx="1.79" ry="1.79"/>
  <rect class="cls-2" x="491.96" y="417.57" width="263.81" height="11.04" rx="1.79" ry="1.79"/>
  <rect class="cls-3" x="491.96" y="417.57" width="263.81" height="11.04" rx="1.79" ry="1.79"/>
  <circle class="cls-9" cx="490.11" cy="455.27" r="16.27"/>
  <line class="cls-6" x1="490.11" y1="495.25" x2="490.11" y2="452.38"/>
  <circle class="cls-3" cx="490.11" cy="455.27" r="16.27"/>
  <line class="cls-6" x1="490.11" y1="462.83" x2="483.09" y2="457.58"/>
  <line class="cls-6" x1="490.11" y1="466.83" x2="497.12" y2="461.58"/>
  <circle class="cls-9" cx="757.11" cy="455.27" r="16.27"/>
  <line class="cls-6" x1="757.11" y1="495.25" x2="757.11" y2="452.38"/>
  <circle class="cls-3" cx="757.11" cy="455.27" r="16.27"/>
  <line class="cls-6" x1="757.11" y1="462.83" x2="750.09" y2="457.58"/>
  <line class="cls-6" x1="757.11" y1="466.83" x2="764.12" y2="461.58"/>
  <g>
    <circle class="cls-9" cx="234.11" cy="454.27" r="18.67"/>
    <line class="cls-6" x1="234.11" y1="495.25" x2="234.11" y2="452.38"/>
    <circle class="cls-3" cx="234.11" cy="454.27" r="18.67"/>
    <line class="cls-6" x1="234.11" y1="462.83" x2="227.09" y2="457.58"/>
    <line class="cls-6" x1="234.11" y1="466.83" x2="241.12" y2="461.58"/>
  </g>
  <path class="cls-2" d="M773.84,559.15V547.85a1.44,1.44,0,0,1,1.44-1.44h41.46a1.44,1.44,0,0,1,1.44,1.44v11.29" transform="translate(0 -75.5)"/>
  <path class="cls-3" d="M773.84,559.15V547.85a1.44,1.44,0,0,1,1.44-1.44h41.46a1.44,1.44,0,0,1,1.44,1.44v11.29" transform="translate(0 -75.5)"/>
  <rect class="cls-2" x="770.43" y="484.08" width="51.17" height="4.5"/>
  <rect class="cls-3" x="770.43" y="484.08" width="51.17" height="4.5"/>
  <line class="cls-3" x1="773.43" y1="494.58" x2="773.43" y2="489.1"/>
  <line class="cls-3" x1="778.93" y1="489.1" x2="778.93" y2="494.58"/>
  <line class="cls-3" x1="813.09" y1="494.58" x2="813.09" y2="489.1"/>
  <line class="cls-3" x1="818.59" y1="489.1" x2="818.59" y2="494.58"/>
  <line class="cls-3" x1="773.43" y1="475.94" x2="785.51" y2="475.94"/>
  <line class="cls-3" x1="805.43" y1="479.94" x2="817.51" y2="479.94"/>
  <path class="cls-2" d="M8.84,559.15V547.85a1.44,1.44,0,0,1,1.44-1.44H51.74a1.44,1.44,0,0,1,1.44,1.44v11.29" transform="translate(0 -75.5)"/>
  <path class="cls-3" d="M8.84,559.15V547.85a1.44,1.44,0,0,1,1.44-1.44H51.74a1.44,1.44,0,0,1,1.44,1.44v11.29" transform="translate(0 -75.5)"/>
  <rect class="cls-2" x="5.43" y="484.08" width="51.17" height="4.5"/>
  <rect class="cls-3" x="5.43" y="484.08" width="51.17" height="4.5"/>
  <line class="cls-3" x1="8.43" y1="494.58" x2="8.43" y2="489.1"/>
  <line class="cls-3" x1="13.93" y1="489.1" x2="13.93" y2="494.58"/>
  <line class="cls-3" x1="48.09" y1="494.58" x2="48.09" y2="489.1"/>
  <line class="cls-3" x1="53.59" y1="489.1" x2="53.59" y2="494.58"/>
  <line class="cls-3" x1="8.43" y1="475.94" x2="20.51" y2="475.94"/>
  <line class="cls-3" x1="40.43" y1="479.94" x2="52.51" y2="479.94"/>
  <path class="cls-2" d="M429.84,559.15V547.85a1.44,1.44,0,0,1,1.44-1.44h41.46a1.44,1.44,0,0,1,1.44,1.44v11.29" transform="translate(0 -75.5)"/>
  <rect class="cls-2" x="426.43" y="484.08" width="51.17" height="4.5"/>
  <path class="cls-3" d="M429.84,559.15V547.85a1.44,1.44,0,0,1,1.44-1.44h41.46a1.44,1.44,0,0,1,1.44,1.44v11.29" transform="translate(0 -75.5)"/>
  <rect class="cls-3" x="426.43" y="484.08" width="51.17" height="4.5"/>
  <line class="cls-3" x1="429.43" y1="494.58" x2="429.43" y2="489.1"/>
  <line class="cls-3" x1="434.93" y1="489.1" x2="434.93" y2="494.58"/>
  <line class="cls-3" x1="469.09" y1="494.58" x2="469.09" y2="489.1"/>
  <line class="cls-3" x1="474.59" y1="489.1" x2="474.59" y2="494.58"/>
  <line class="cls-3" x1="429.43" y1="475.94" x2="441.51" y2="475.94"/>
  <line class="cls-3" x1="461.43" y1="479.94" x2="473.51" y2="479.94"/>
  <line class="cls-3" x1="574.01" y1="63.83" x2="574.01" y2="53.5"/>
  <line class="cls-3" x1="624.01" y1="63.83" x2="624.01" y2="53.5"/>
  <line class="cls-3" x1="674.01" y1="63.83" x2="674.01" y2="53.5"/>
  <rect class="cls-8" x="555.01" y="1" width="138.75" height="52.5" rx="2" ry="2"/>
  <g>
    <path class="cls-10" d="M606.66,91.85v22.4h-2.5V91.85h2.5Z" transform="translate(0 -75.5)"/>
    <path class="cls-10" d="M614.47,91.85c3.49,0,5.09,2.11,5.09,5.57v11.29c0,3.42-1.6,5.54-5.09,5.54h-5.25V91.85h5.25Zm0,20.13c1.79,0,2.66-1.12,2.66-3.17V97.29c0-2-.86-3.17-2.69-3.17h-2.69V112h2.72Z" transform="translate(0 -75.5)"/>
    <path class="cls-10" d="M629.86,101.77V104h-5.47v8h6.72v2.27h-9.22V91.85h9.22v2.27h-6.72v7.65h5.47Z" transform="translate(0 -75.5)"/>
    <path class="cls-10" d="M635.94,109.74l-0.86,4.51h-2.3l4.29-22.4h3.62l4.29,22.4h-2.5l-0.86-4.51h-5.66Zm0.32-2.14h5l-2.53-12.93Z" transform="translate(0 -75.5)"/>
  </g>
  <text class="cls-11" transform="translate(646.93 21.25)">2</text>
  <g>
    <rect class="cls-2" x="853.76" y="394.18" width="137" height="101.07" rx="1.5" ry="1.5"/>
    <rect class="cls-3" x="853.76" y="394.18" width="137" height="101.07" rx="1.5" ry="1.5"/>
    <line class="cls-4" x1="906.72" y1="451.13" x2="906.72" y2="478.5"/>
    <rect class="cls-2" x="843.43" y="419.83" width="17.33" height="75.42"/>
    <rect class="cls-3" x="843.43" y="419.83" width="17.33" height="75.42"/>
    <rect class="cls-2" x="839.76" y="415.83" width="24.67" height="4.66"/>
    <rect class="cls-7" x="839.76" y="415.83" width="24.67" height="4.66"/>
    <rect class="cls-2" x="834.51" y="398.83" width="35.17" height="4.66"/>
    <rect class="cls-7" x="834.51" y="398.83" width="35.17" height="4.66"/>
    <rect class="cls-2" x="834.51" y="394.18" width="35.17" height="4.66"/>
    <rect class="cls-7" x="834.51" y="394.18" width="35.17" height="4.66"/>
    <polygon class="cls-2" points="864.43 415.49 839.76 415.49 835.76 402.92 868.43 402.92 864.43 415.49"/>
    <polygon class="cls-7" points="864.43 415.49 839.76 415.49 835.76 402.92 868.43 402.92 864.43 415.49"/>
    <polygon class="cls-2" points="863.76 478.25 840.43 478.25 843.43 471.21 860.76 471.21 863.76 478.25"/>
    <polygon class="cls-7" points="863.76 478.25 840.43 478.25 843.43 471.21 860.76 471.21 863.76 478.25"/>
    <line class="cls-4" x1="854.59" y1="432.75" x2="854.59" y2="460.92"/>
    <line class="cls-4" x1="849.59" y1="432.75" x2="849.59" y2="460.92"/>
    <line class="cls-4" x1="854.59" y1="406.75" x2="854.59" y2="411"/>
    <line class="cls-4" x1="973.68" y1="432.83" x2="869.51" y2="432.83"/>
    <line class="cls-4" x1="967.76" y1="412.83" x2="875.43" y2="412.83"/>
    <line class="cls-4" x1="849.59" y1="406.75" x2="849.59" y2="411"/>
    <rect class="cls-2" x="984.43" y="419.83" width="17.33" height="75.42"/>
    <rect class="cls-3" x="984.43" y="419.83" width="17.33" height="75.42"/>
    <rect class="cls-2" x="980.76" y="415.83" width="24.67" height="4.66"/>
    <rect class="cls-7" x="980.76" y="415.83" width="24.67" height="4.66"/>
    <rect class="cls-2" x="975.51" y="398.83" width="35.17" height="4.66"/>
    <rect class="cls-7" x="975.51" y="398.83" width="35.17" height="4.66"/>
    <rect class="cls-2" x="975.51" y="394.18" width="35.17" height="4.66"/>
    <rect class="cls-7" x="975.51" y="394.18" width="35.17" height="4.66"/>
    <polygon class="cls-2" points="1005.43 415.49 980.76 415.49 976.76 402.92 1009.43 402.92 1005.43 415.49"/>
    <polygon class="cls-7" points="1005.43 415.49 980.76 415.49 976.76 402.92 1009.43 402.92 1005.43 415.49"/>
    <polygon class="cls-2" points="1004.76 478.25 981.43 478.25 984.43 471.21 1001.76 471.21 1004.76 478.25"/>
    <polygon class="cls-7" points="1004.76 478.25 981.43 478.25 984.43 471.21 1001.76 471.21 1004.76 478.25"/>
    <line class="cls-4" x1="995.59" y1="432.75" x2="995.59" y2="460.92"/>
    <line class="cls-4" x1="990.59" y1="432.75" x2="990.59" y2="460.92"/>
    <line class="cls-4" x1="995.59" y1="406.75" x2="995.59" y2="411"/>
    <line class="cls-4" x1="990.59" y1="406.75" x2="990.59" y2="411"/>
    <line class="cls-6" x1="869.68" y1="403.49" x2="974.64" y2="403.49"/>
    <line class="cls-3" x1="864.43" y1="420.49" x2="980.76" y2="420.49"/>
    <line class="cls-3" x1="860.76" y1="444.49" x2="984.43" y2="444.49"/>
    <line class="cls-6" x1="871.68" y1="445.25" x2="871.68" y2="494.58"/>
    <line class="cls-6" x1="971.68" y1="445.25" x2="971.68" y2="494.58"/>
    <line class="cls-6" x1="941.68" y1="445.25" x2="941.68" y2="494.58"/>
    <rect class="cls-6" x="947.51" y="451" width="18.25" height="27.25" rx="0.5" ry="0.5"/>
    <rect class="cls-6" x="879.68" y="451" width="54.08" height="33" rx="0.5" ry="0.5"/>
    <rect class="cls-2" x="876.43" y="480" width="60.58" height="5.5" rx="0.5" ry="0.5"/>
    <rect class="cls-6" x="876.43" y="480" width="60.58" height="5.5" rx="0.5" ry="0.5"/>
    <rect class="cls-6" x="947.51" y="484" width="18.25" height="6.25" rx="0.5" ry="0.5"/>
  </g>
  <rect class="cls-3" x="298.02" y="444.83" width="21" height="15.09" rx="2.61" ry="2.61"/>
  <line class="cls-3" x1="270.59" y1="465.25" x2="393.93" y2="465.25"/>
  <path class="cls-12" d="M337.3,391.74l-0.33-.33s-0.12,0-.08,0l0.33,0.33s0.12,0,.08,0h0Z" transform="translate(0 -75.5)"/>
  <line class="cls-3" x1="305.52" y1="444.83" x2="305.52" y2="459.92"/>
  <line class="cls-3" x1="311.52" y1="444.83" x2="311.52" y2="459.92"/>
  <path class="cls-3" d="M277.63,520.33h11.78a2.62,2.62,0,0,1,2.61,2.61v9.87a2.62,2.62,0,0,1-2.61,2.61H270.63" transform="translate(0 -75.5)"/>
  <line class="cls-3" x1="278.52" y1="444.83" x2="278.52" y2="459.92"/>
  <line class="cls-3" x1="284.52" y1="444.83" x2="284.52" y2="459.92"/>
  <path class="cls-3" d="M393.22,520.33H381.44a2.62,2.62,0,0,0-2.61,2.61v9.87a2.62,2.62,0,0,0,2.61,2.61h13.78" transform="translate(0 -75.5)"/>
  <line class="cls-3" x1="387.33" y1="444.83" x2="387.33" y2="459.92"/>
  <rect class="cls-3" x="325.02" y="444.83" width="21" height="15.09" rx="2.61" ry="2.61"/>
  <path class="cls-2" d="M350,557V522.94a2.42,2.42,0,0,1,2.16-2.61h13.08a2.42,2.42,0,0,1,2.16,2.61V557" transform="translate(0 -75.5)"/>
  <path class="cls-3" d="M349.26,559V522.94a2.46,2.46,0,0,1,2.26-2.61h13.65a2.46,2.46,0,0,1,2.26,2.61V559" transform="translate(0 -75.5)"/>
  <line class="cls-3" x1="332.52" y1="444.83" x2="332.52" y2="459.92"/>
  <line class="cls-3" x1="338.52" y1="444.83" x2="338.52" y2="459.92"/>
  <line class="cls-6" x1="354.65" y1="465.25" x2="358.76" y2="465.25"/>
  <line class="cls-4" x1="588.98" y1="464.16" x2="593.09" y2="464.16"/>
  <line class="cls-4" x1="652.98" y1="464.16" x2="657.09" y2="464.16"/>
  <line class="cls-4" x1="307.41" y1="471.96" x2="338.52" y2="471.96"/>
  <line class="cls-6" x1="307.41" y1="433.5" x2="307.41" y2="438.31"/>
  <line class="cls-6" x1="367.41" y1="433.5" x2="367.41" y2="438.31"/>
  <line class="cls-4" x1="307.41" y1="475.96" x2="338.52" y2="475.96"/>
  <circle class="cls-2" cx="380.09" cy="484.75" r="8.83"/>
  <circle class="cls-3" cx="380.09" cy="484.75" r="8.83"/>
  <circle class="cls-3" cx="380.09" cy="484.75" r="4.17"/>
  <circle class="cls-2" cx="288.09" cy="484.75" r="8.83"/>
  <path class="cls-3" d="M383.59,514.75H292.3a21.77,21.77,0,0,0-21.71,21.71v21.13a1,1,0,0,0,1,1h5a11.57,11.57,0,0,1,23.1,0h68.9a11.57,11.57,0,0,1,23.1,0h2.28a1,1,0,0,0,1-1v-31.5A11.37,11.37,0,0,0,383.59,514.75Z" transform="translate(0 -75.5)"/>
  <circle class="cls-3" cx="288.09" cy="484.75" r="8.83"/>
  <circle class="cls-3" cx="288.09" cy="484.75" r="4.17"/>
  <rect class="cls-2" x="391.51" y="478.87" width="7.63" height="6.5" rx="1.62" ry="1.62"/>
  <rect class="cls-6" x="391.51" y="478.87" width="7.63" height="6.5" rx="1.62" ry="1.62"/>
  <line class="cls-3" y1="495.25" x2="1200" y2="495.25"/>
</svg>
