<svg id="Шар_1" data-name="Шар 1" xmlns="http://www.w3.org/2000/svg" viewBox="0 0 1200 496">
  <defs>
    <style>
      .cls-1, .cls-4, .cls-6, .cls-7 {
        fill: none;
      }

      .cls-1, .cls-4, .cls-6, .cls-7, .cls-8 {
        stroke: #0a1239;
        stroke-width: 2px;
      }

      .cls-1, .cls-4, .cls-6, .cls-8 {
        stroke-miterlimit: 10;
      }

      .cls-2 {
        opacity: 0.1;
      }

      .cls-3, .cls-8 {
        fill: #fff;
      }

      .cls-4 {
        opacity: 0.2;
      }

      .cls-5 {
        fill: #b7b7b7;
        opacity: 0.4;
      }

      .cls-6, .cls-7 {
        stroke-linecap: round;
      }

      .cls-7 {
        stroke-linejoin: round;
      }

      .cls-10, .cls-9 {
        fill: #091239;
      }

      .cls-10 {
        font-size: 16px;
        font-family: Bebas Neue;
        font-weight: 700;
      }

      .cls-11 {
        fill: #a3fb31;
      }
    </style>
  </defs>
  <title>city_big_3</title>
  <line class="cls-1" y1="496.43" x2="1200" y2="496.43"/>
  <g class="cls-2">
    <path class="cls-3" d="M789,632.44V534c0-.4,1.44-0.73,3.19-0.73h273.7c1.75,0,3.19.33,3.19,0.73v98.39" transform="translate(0 -136.57)"/>
    <path class="cls-1" d="M789,632.44V534c0-.4,1.44-0.73,3.19-0.73h273.7c1.75,0,3.19.33,3.19,0.73v98.39" transform="translate(0 -136.57)"/>
    <path class="cls-1" d="M845.41,587.54V565.69a12.8,12.8,0,0,1,12.76-12.76h0a12.8,12.8,0,0,1,12.76,12.76v21.85" transform="translate(0 -136.57)"/>
    <line class="cls-4" x1="845.71" y1="426.4" x2="870.64" y2="426.4"/>
    <line class="cls-4" x1="858.18" y1="426.4" x2="858.18" y2="450.97"/>
    <rect class="cls-3" x="840.81" y="449.42" width="34.68" height="6.49" rx="3.24" ry="3.24"/>
    <rect class="cls-1" x="840.81" y="449.42" width="34.68" height="6.49" rx="3.24" ry="3.24"/>
    <path class="cls-1" d="M804,587.54V565.69a12.8,12.8,0,0,1,12.76-12.76h0a12.8,12.8,0,0,1,12.76,12.76v21.85" transform="translate(0 -136.57)"/>
    <line class="cls-4" x1="804.3" y1="426.4" x2="829.24" y2="426.4"/>
    <line class="cls-4" x1="816.77" y1="426.4" x2="816.77" y2="450.97"/>
    <rect class="cls-3" x="799.41" y="449.42" width="34.68" height="6.49" rx="3.24" ry="3.24"/>
    <rect class="cls-1" x="799.41" y="449.42" width="34.68" height="6.49" rx="3.24" ry="3.24"/>
    <path class="cls-1" d="M1029.26,587.54V565.69A12.8,12.8,0,0,1,1042,552.92h0a12.8,12.8,0,0,1,12.76,12.76v21.85" transform="translate(0 -136.57)"/>
    <line class="cls-4" x1="1029.56" y1="426.4" x2="1054.5" y2="426.4"/>
    <line class="cls-4" x1="1042.03" y1="426.4" x2="1042.03" y2="450.97"/>
    <rect class="cls-3" x="1024.67" y="449.42" width="34.68" height="6.49" rx="3.24" ry="3.24"/>
    <rect class="cls-1" x="1024.67" y="449.42" width="34.68" height="6.49" rx="3.24" ry="3.24"/>
    <path class="cls-1" d="M987.85,587.54V565.69a12.8,12.8,0,0,1,12.76-12.76h0a12.8,12.8,0,0,1,12.76,12.76v21.85" transform="translate(0 -136.57)"/>
    <line class="cls-4" x1="988.15" y1="426.4" x2="1013.09" y2="426.4"/>
    <line class="cls-4" x1="1000.62" y1="426.4" x2="1000.62" y2="450.97"/>
    <rect class="cls-3" x="983.26" y="449.42" width="34.68" height="6.49" rx="3.24" ry="3.24"/>
    <rect class="cls-1" x="983.26" y="449.42" width="34.68" height="6.49" rx="3.24" ry="3.24"/>
    <path class="cls-3" d="M862.88,632.44v-198a1.5,1.5,0,0,1,1.51-1.48H993.76a1.5,1.5,0,0,1,1.51,1.48v198" transform="translate(0 -136.57)"/>
    <path class="cls-1" d="M862.88,632.44v-198a1.5,1.5,0,0,1,1.51-1.48H993.76a1.5,1.5,0,0,1,1.51,1.48v198" transform="translate(0 -136.57)"/>
    <path class="cls-3" d="M807.93,622.37V613a1.19,1.19,0,0,1,1.19-1.19h34.33a1.19,1.19,0,0,1,1.19,1.19v9.35" transform="translate(0 -136.57)"/>
    <path class="cls-1" d="M807.93,622.37V613a1.19,1.19,0,0,1,1.19-1.19h34.33a1.19,1.19,0,0,1,1.19,1.19v9.35" transform="translate(0 -136.57)"/>
    <rect class="cls-3" x="805.1" y="486.16" width="42.37" height="3.73"/>
    <rect class="cls-1" x="805.1" y="486.16" width="42.37" height="3.73"/>
    <line class="cls-1" x1="807.59" y1="494.85" x2="807.59" y2="490.32"/>
    <line class="cls-1" x1="812.14" y1="490.32" x2="812.14" y2="494.85"/>
    <line class="cls-1" x1="840.44" y1="494.85" x2="840.44" y2="490.32"/>
    <line class="cls-1" x1="844.99" y1="490.32" x2="844.99" y2="494.85"/>
    <line class="cls-1" x1="807.59" y1="479.41" x2="817.59" y2="479.41"/>
    <line class="cls-1" x1="834.09" y1="482.73" x2="844.09" y2="482.73"/>
    <path class="cls-3" d="M1012.48,622.37V613a1.19,1.19,0,0,1,1.19-1.19H1048a1.19,1.19,0,0,1,1.19,1.19v9.35" transform="translate(0 -136.57)"/>
    <path class="cls-1" d="M1012.48,622.37V613a1.19,1.19,0,0,1,1.19-1.19H1048a1.19,1.19,0,0,1,1.19,1.19v9.35" transform="translate(0 -136.57)"/>
    <rect class="cls-3" x="1009.66" y="486.16" width="42.37" height="3.73"/>
    <rect class="cls-1" x="1009.66" y="486.16" width="42.37" height="3.73"/>
    <line class="cls-1" x1="1012.14" y1="494.85" x2="1012.14" y2="490.32"/>
    <line class="cls-1" x1="1016.69" y1="490.32" x2="1016.69" y2="494.85"/>
    <line class="cls-1" x1="1044.99" y1="494.85" x2="1044.99" y2="490.32"/>
    <line class="cls-1" x1="1049.55" y1="490.32" x2="1049.55" y2="494.85"/>
    <line class="cls-1" x1="1012.14" y1="479.41" x2="1022.15" y2="479.41"/>
    <line class="cls-1" x1="1038.64" y1="482.73" x2="1048.65" y2="482.73"/>
    <rect class="cls-5" x="855.07" y="293.41" width="147.78" height="9.15" rx="1.79" ry="1.79"/>
    <rect class="cls-3" x="855.07" y="290.27" width="147.78" height="9.15" rx="1.79" ry="1.79"/>
    <rect class="cls-1" x="855.07" y="290.27" width="147.78" height="9.15" rx="1.79" ry="1.79"/>
    <path class="cls-1" d="M904.73,620.85V579.18a24.42,24.42,0,0,1,24.34-24.34h0a24.42,24.42,0,0,1,24.34,24.34v41.68" transform="translate(0 -136.57)"/>
    <path class="cls-1" d="M899.74,621V577.4a29.41,29.41,0,0,1,29.33-29.33h0A29.41,29.41,0,0,1,958.4,577.4V621" transform="translate(0 -136.57)"/>
    <rect class="cls-1" x="878.89" y="489.77" width="100.37" height="5.59" rx="1.11" ry="1.11"/>
    <path class="cls-1" d="M883.52,626.64v-4.78a0.92,0.92,0,0,1,.92-0.92H973.7a0.92,0.92,0,0,1,.92.92v4.78" transform="translate(0 -136.57)"/>
    <line class="cls-1" x1="905.29" y1="437.42" x2="952.85" y2="437.42"/>
    <line class="cls-1" x1="929.07" y1="437.42" x2="929.07" y2="484.28"/>
    <path class="cls-1" d="M874.79,481.93V460.07a12.8,12.8,0,0,1,12.76-12.76h0a12.8,12.8,0,0,1,12.76,12.76v21.85" transform="translate(0 -136.57)"/>
    <line class="cls-4" x1="875.09" y1="320.78" x2="900.03" y2="320.78"/>
    <line class="cls-1" x1="873.94" y1="345.63" x2="901.13" y2="345.63"/>
    <line class="cls-4" x1="887.56" y1="320.78" x2="887.56" y2="345.35"/>
    <rect class="cls-1" x="909.48" y="445.25" width="14.49" height="28.99"/>
    <rect class="cls-1" x="934.33" y="445.25" width="14.49" height="28.99"/>
    <rect class="cls-3" x="870.2" y="343.8" width="34.68" height="6.49" rx="3.24" ry="3.24"/>
    <rect class="cls-1" x="870.2" y="343.8" width="34.68" height="6.49" rx="3.24" ry="3.24"/>
    <path class="cls-1" d="M916.2,481.93V460.07A12.8,12.8,0,0,1,929,447.31h0a12.8,12.8,0,0,1,12.76,12.76v21.85" transform="translate(0 -136.57)"/>
    <line class="cls-4" x1="916.5" y1="320.78" x2="941.43" y2="320.78"/>
    <line class="cls-4" x1="928.97" y1="320.78" x2="928.97" y2="345.35"/>
    <rect class="cls-3" x="911.61" y="343.8" width="34.68" height="6.49" rx="3.24" ry="3.24"/>
    <rect class="cls-1" x="911.61" y="343.8" width="34.68" height="6.49" rx="3.24" ry="3.24"/>
    <path class="cls-1" d="M957.61,481.93V460.07a12.8,12.8,0,0,1,12.76-12.76h0a12.8,12.8,0,0,1,12.76,12.76v21.85" transform="translate(0 -136.57)"/>
    <line class="cls-4" x1="957.91" y1="320.78" x2="982.84" y2="320.78"/>
    <line class="cls-4" x1="970.37" y1="320.78" x2="970.37" y2="345.35"/>
    <rect class="cls-3" x="953.01" y="343.8" width="34.68" height="6.49" rx="3.24" ry="3.24"/>
    <rect class="cls-1" x="953.01" y="343.8" width="34.68" height="6.49" rx="3.24" ry="3.24"/>
    <path class="cls-1" d="M874.79,531.62V509.76A12.8,12.8,0,0,1,887.56,497h0a12.8,12.8,0,0,1,12.76,12.76v21.85" transform="translate(0 -136.57)"/>
    <line class="cls-4" x1="875.09" y1="370.47" x2="900.03" y2="370.47"/>
    <line class="cls-1" x1="873.94" y1="395.32" x2="901.13" y2="395.32"/>
    <line class="cls-4" x1="887.56" y1="370.47" x2="887.56" y2="395.04"/>
    <rect class="cls-3" x="870.2" y="393.49" width="34.68" height="6.49" rx="3.24" ry="3.24"/>
    <rect class="cls-1" x="870.2" y="393.49" width="34.68" height="6.49" rx="3.24" ry="3.24"/>
    <path class="cls-1" d="M916.2,531.62V509.76A12.8,12.8,0,0,1,929,497h0a12.8,12.8,0,0,1,12.76,12.76v21.85" transform="translate(0 -136.57)"/>
    <line class="cls-4" x1="916.5" y1="370.47" x2="941.43" y2="370.47"/>
    <line class="cls-4" x1="928.97" y1="370.47" x2="928.97" y2="395.04"/>
    <rect class="cls-3" x="911.61" y="393.49" width="34.68" height="6.49" rx="3.24" ry="3.24"/>
    <rect class="cls-1" x="911.61" y="393.49" width="34.68" height="6.49" rx="3.24" ry="3.24"/>
    <path class="cls-1" d="M957.61,531.62V509.76A12.8,12.8,0,0,1,970.37,497h0a12.8,12.8,0,0,1,12.76,12.76v21.85" transform="translate(0 -136.57)"/>
    <line class="cls-4" x1="957.91" y1="370.47" x2="982.84" y2="370.47"/>
    <line class="cls-4" x1="970.37" y1="370.47" x2="970.37" y2="395.04"/>
    <rect class="cls-3" x="953.01" y="393.49" width="34.68" height="6.49" rx="3.24" ry="3.24"/>
    <rect class="cls-1" x="953.01" y="393.49" width="34.68" height="6.49" rx="3.24" ry="3.24"/>
  </g>
  <g class="cls-2">
    <path class="cls-3" d="M1194.17,632.44V534c0-.4-1.44-0.73-3.19-0.73H917.28c-1.75,0-3.19.33-3.19,0.73v98.39" transform="translate(0 -136.57)"/>
    <path class="cls-1" d="M1194.17,632.44V534c0-.4-1.44-0.73-3.19-0.73H917.28c-1.75,0-3.19.33-3.19,0.73v98.39" transform="translate(0 -136.57)"/>
    <path class="cls-1" d="M1137.79,587.54V565.69A12.8,12.8,0,0,0,1125,552.92h0a12.8,12.8,0,0,0-12.76,12.76v21.85" transform="translate(0 -136.57)"/>
    <line class="cls-4" x1="1137.49" y1="426.4" x2="1112.55" y2="426.4"/>
    <line class="cls-4" x1="1125.02" y1="426.4" x2="1125.02" y2="450.97"/>
    <rect class="cls-3" x="1107.7" y="585.99" width="34.68" height="6.49" rx="3.24" ry="3.24" transform="translate(2250.09 1041.89) rotate(-180)"/>
    <rect class="cls-1" x="1107.7" y="585.99" width="34.68" height="6.49" rx="3.24" ry="3.24" transform="translate(2250.09 1041.89) rotate(-180)"/>
    <path class="cls-1" d="M1179.19,587.54V565.69a12.8,12.8,0,0,0-12.76-12.76h0a12.8,12.8,0,0,0-12.76,12.76v21.85" transform="translate(0 -136.57)"/>
    <line class="cls-4" x1="1178.9" y1="426.4" x2="1153.96" y2="426.4"/>
    <line class="cls-4" x1="1166.43" y1="426.4" x2="1166.43" y2="450.97"/>
    <rect class="cls-3" x="1149.11" y="585.99" width="34.68" height="6.49" rx="3.24" ry="3.24" transform="translate(2332.9 1041.89) rotate(180)"/>
    <rect class="cls-1" x="1149.11" y="585.99" width="34.68" height="6.49" rx="3.24" ry="3.24" transform="translate(2332.9 1041.89) rotate(180)"/>
    <path class="cls-1" d="M953.94,587.54V565.69a12.8,12.8,0,0,0-12.76-12.76h0a12.8,12.8,0,0,0-12.76,12.76v21.85" transform="translate(0 -136.57)"/>
    <line class="cls-4" x1="953.64" y1="426.4" x2="928.7" y2="426.4"/>
    <line class="cls-4" x1="941.17" y1="426.4" x2="941.17" y2="450.97"/>
    <rect class="cls-3" x="923.85" y="585.99" width="34.68" height="6.49" rx="3.24" ry="3.24" transform="translate(1882.38 1041.89) rotate(-180)"/>
    <rect class="cls-1" x="923.85" y="585.99" width="34.68" height="6.49" rx="3.24" ry="3.24" transform="translate(1882.38 1041.89) rotate(-180)"/>
    <path class="cls-1" d="M995.34,587.54V565.69a12.8,12.8,0,0,0-12.76-12.76h0a12.8,12.8,0,0,0-12.76,12.76v21.85" transform="translate(0 -136.57)"/>
    <line class="cls-4" x1="995.05" y1="426.4" x2="970.11" y2="426.4"/>
    <line class="cls-4" x1="982.58" y1="426.4" x2="982.58" y2="450.97"/>
    <rect class="cls-3" x="965.26" y="585.99" width="34.68" height="6.49" rx="3.24" ry="3.24" transform="translate(1965.2 1041.89) rotate(-180)"/>
    <rect class="cls-1" x="965.26" y="585.99" width="34.68" height="6.49" rx="3.24" ry="3.24" transform="translate(1965.2 1041.89) rotate(-180)"/>
    <path class="cls-3" d="M1120.32,632.44v-198a1.5,1.5,0,0,0-1.51-1.48H989.44a1.5,1.5,0,0,0-1.51,1.48v198" transform="translate(0 -136.57)"/>
    <path class="cls-1" d="M1120.32,632.44v-198a1.5,1.5,0,0,0-1.51-1.48H989.44a1.5,1.5,0,0,0-1.51,1.48v198" transform="translate(0 -136.57)"/>
    <path class="cls-3" d="M1175.27,622.37V613a1.19,1.19,0,0,0-1.19-1.19h-34.33a1.19,1.19,0,0,0-1.19,1.19v9.35" transform="translate(0 -136.57)"/>
    <path class="cls-1" d="M1175.27,622.37V613a1.19,1.19,0,0,0-1.19-1.19h-34.33a1.19,1.19,0,0,0-1.19,1.19v9.35" transform="translate(0 -136.57)"/>
    <rect class="cls-3" x="1135.72" y="622.73" width="42.37" height="3.73" transform="translate(2313.82 1112.62) rotate(-180)"/>
    <rect class="cls-1" x="1135.72" y="622.73" width="42.37" height="3.73" transform="translate(2313.82 1112.62) rotate(-180)"/>
    <line class="cls-1" x1="1175.61" y1="494.85" x2="1175.61" y2="490.32"/>
    <line class="cls-1" x1="1171.06" y1="490.32" x2="1171.06" y2="494.85"/>
    <line class="cls-1" x1="1142.76" y1="494.85" x2="1142.76" y2="490.32"/>
    <line class="cls-1" x1="1138.21" y1="490.32" x2="1138.21" y2="494.85"/>
    <line class="cls-1" x1="1175.61" y1="479.41" x2="1165.61" y2="479.41"/>
    <line class="cls-1" x1="1149.11" y1="482.73" x2="1139.1" y2="482.73"/>
    <path class="cls-3" d="M970.71,622.37V613a1.19,1.19,0,0,0-1.19-1.19H935.19A1.19,1.19,0,0,0,934,613v9.35" transform="translate(0 -136.57)"/>
    <path class="cls-1" d="M970.71,622.37V613a1.19,1.19,0,0,0-1.19-1.19H935.19A1.19,1.19,0,0,0,934,613v9.35" transform="translate(0 -136.57)"/>
    <rect class="cls-3" x="931.17" y="622.73" width="42.37" height="3.73" transform="translate(1904.71 1112.62) rotate(-180)"/>
    <rect class="cls-1" x="931.17" y="622.73" width="42.37" height="3.73" transform="translate(1904.71 1112.62) rotate(-180)"/>
    <line class="cls-1" x1="971.06" y1="494.85" x2="971.06" y2="490.32"/>
    <line class="cls-1" x1="966.5" y1="490.32" x2="966.5" y2="494.85"/>
    <line class="cls-1" x1="938.21" y1="494.85" x2="938.21" y2="490.32"/>
    <line class="cls-1" x1="933.65" y1="490.32" x2="933.65" y2="494.85"/>
    <line class="cls-1" x1="971.06" y1="479.41" x2="961.05" y2="479.41"/>
    <line class="cls-1" x1="944.56" y1="482.73" x2="934.55" y2="482.73"/>
    <rect class="cls-5" x="980.34" y="429.98" width="147.78" height="9.15" rx="1.79" ry="1.79" transform="translate(2108.46 732.54) rotate(-180)"/>
    <rect class="cls-3" x="980.34" y="426.85" width="147.78" height="9.15" rx="1.79" ry="1.79" transform="translate(2108.46 726.27) rotate(-180)"/>
    <rect class="cls-1" x="980.34" y="426.85" width="147.78" height="9.15" rx="1.79" ry="1.79" transform="translate(2108.46 726.27) rotate(-180)"/>
    <path class="cls-1" d="M1078.47,620.85V579.18a24.42,24.42,0,0,0-24.34-24.34h0a24.42,24.42,0,0,0-24.34,24.34v41.68" transform="translate(0 -136.57)"/>
    <path class="cls-1" d="M1083.45,621V577.4a29.41,29.41,0,0,0-29.33-29.33h0a29.41,29.41,0,0,0-29.33,29.33V621" transform="translate(0 -136.57)"/>
    <rect class="cls-1" x="1003.94" y="626.34" width="100.37" height="5.59" rx="1.11" ry="1.11" transform="translate(2108.25 1121.7) rotate(180)"/>
    <path class="cls-1" d="M1099.68,626.64v-4.78a0.92,0.92,0,0,0-.92-0.92H1009.5a0.92,0.92,0,0,0-.92.92v4.78" transform="translate(0 -136.57)"/>
    <line class="cls-1" x1="1077.91" y1="437.42" x2="1030.35" y2="437.42"/>
    <line class="cls-1" x1="1054.13" y1="437.42" x2="1054.13" y2="484.28"/>
    <path class="cls-1" d="M1108.4,481.93V460.07a12.8,12.8,0,0,0-12.76-12.76h0a12.8,12.8,0,0,0-12.76,12.76v21.85" transform="translate(0 -136.57)"/>
    <line class="cls-4" x1="1108.11" y1="320.78" x2="1083.17" y2="320.78"/>
    <line class="cls-1" x1="1109.26" y1="345.63" x2="1082.07" y2="345.63"/>
    <line class="cls-4" x1="1095.64" y1="320.78" x2="1095.64" y2="345.35"/>
    <rect class="cls-1" x="1059.22" y="581.82" width="14.49" height="28.99" transform="translate(2132.94 1056.06) rotate(-180)"/>
    <rect class="cls-1" x="1034.38" y="581.82" width="14.49" height="28.99" transform="translate(2083.25 1056.06) rotate(-180)"/>
    <rect class="cls-3" x="1078.32" y="480.37" width="34.68" height="6.49" rx="3.24" ry="3.24" transform="translate(2191.32 830.66) rotate(-180)"/>
    <rect class="cls-1" x="1078.32" y="480.37" width="34.68" height="6.49" rx="3.24" ry="3.24" transform="translate(2191.32 830.66) rotate(-180)"/>
    <path class="cls-1" d="M1067,481.93V460.07a12.8,12.8,0,0,0-12.76-12.76h0a12.8,12.8,0,0,0-12.76,12.76v21.85" transform="translate(0 -136.57)"/>
    <line class="cls-4" x1="1066.7" y1="320.78" x2="1041.76" y2="320.78"/>
    <line class="cls-4" x1="1054.23" y1="320.78" x2="1054.23" y2="345.35"/>
    <rect class="cls-3" x="1036.91" y="480.37" width="34.68" height="6.49" rx="3.24" ry="3.24" transform="translate(2108.51 830.66) rotate(-180)"/>
    <rect class="cls-1" x="1036.91" y="480.37" width="34.68" height="6.49" rx="3.24" ry="3.24" transform="translate(2108.51 830.66) rotate(-180)"/>
    <path class="cls-1" d="M1025.59,481.93V460.07a12.8,12.8,0,0,0-12.76-12.76h0a12.8,12.8,0,0,0-12.76,12.76v21.85" transform="translate(0 -136.57)"/>
    <line class="cls-4" x1="1025.29" y1="320.78" x2="1000.36" y2="320.78"/>
    <line class="cls-4" x1="1012.82" y1="320.78" x2="1012.82" y2="345.35"/>
    <rect class="cls-3" x="995.51" y="480.37" width="34.68" height="6.49" rx="3.24" ry="3.24" transform="translate(2025.69 830.66) rotate(-180)"/>
    <rect class="cls-1" x="995.51" y="480.37" width="34.68" height="6.49" rx="3.24" ry="3.24" transform="translate(2025.69 830.66) rotate(-180)"/>
    <path class="cls-1" d="M1108.4,531.62V509.76A12.8,12.8,0,0,0,1095.64,497h0a12.8,12.8,0,0,0-12.76,12.76v21.85" transform="translate(0 -136.57)"/>
    <line class="cls-4" x1="1108.11" y1="370.47" x2="1083.17" y2="370.47"/>
    <line class="cls-1" x1="1109.26" y1="395.32" x2="1082.07" y2="395.32"/>
    <line class="cls-4" x1="1095.64" y1="370.47" x2="1095.64" y2="395.04"/>
    <rect class="cls-3" x="1078.32" y="530.06" width="34.68" height="6.49" rx="3.24" ry="3.24" transform="translate(2191.32 930.04) rotate(-180)"/>
    <rect class="cls-1" x="1078.32" y="530.06" width="34.68" height="6.49" rx="3.24" ry="3.24" transform="translate(2191.32 930.04) rotate(-180)"/>
    <path class="cls-1" d="M1067,531.62V509.76A12.8,12.8,0,0,0,1054.23,497h0a12.8,12.8,0,0,0-12.76,12.76v21.85" transform="translate(0 -136.57)"/>
    <line class="cls-4" x1="1066.7" y1="370.47" x2="1041.76" y2="370.47"/>
    <line class="cls-4" x1="1054.23" y1="370.47" x2="1054.23" y2="395.04"/>
    <rect class="cls-3" x="1036.91" y="530.06" width="34.68" height="6.49" rx="3.24" ry="3.24" transform="translate(2108.51 930.04) rotate(180)"/>
    <rect class="cls-1" x="1036.91" y="530.06" width="34.68" height="6.49" rx="3.24" ry="3.24" transform="translate(2108.51 930.04) rotate(180)"/>
    <path class="cls-1" d="M1025.59,531.62V509.76A12.8,12.8,0,0,0,1012.82,497h0a12.8,12.8,0,0,0-12.76,12.76v21.85" transform="translate(0 -136.57)"/>
    <line class="cls-4" x1="1025.29" y1="370.47" x2="1000.36" y2="370.47"/>
    <line class="cls-4" x1="1012.82" y1="370.47" x2="1012.82" y2="395.04"/>
    <rect class="cls-3" x="995.51" y="530.06" width="34.68" height="6.49" rx="3.24" ry="3.24" transform="translate(2025.69 930.04) rotate(-180)"/>
    <rect class="cls-1" x="995.51" y="530.06" width="34.68" height="6.49" rx="3.24" ry="3.24" transform="translate(2025.69 930.04) rotate(-180)"/>
  </g>
  <g>
    <path class="cls-3" d="M829,632.44V513.62c0-.49,1.73-0.89,3.85-0.89h330.49c2.12,0,3.85.4,3.85,0.89V632.44" transform="translate(0 -136.57)"/>
    <path class="cls-1" d="M829,632.44V513.62c0-.49,1.73-0.89,3.85-0.89h330.49c2.12,0,3.85.4,3.85,0.89V632.44" transform="translate(0 -136.57)"/>
    <path class="cls-1" d="M897.11,578.22V551.84a15.46,15.46,0,0,1,15.41-15.41h0a15.46,15.46,0,0,1,15.41,15.41v26.39" transform="translate(0 -136.57)"/>
    <line class="cls-4" x1="897.47" y1="411.98" x2="927.58" y2="411.98"/>
    <line class="cls-4" x1="912.52" y1="411.98" x2="912.52" y2="441.65"/>
    <rect class="cls-5" x="891.56" y="443.78" width="41.88" height="7.83" rx="3.92" ry="3.92"/>
    <rect class="cls-5" x="841.56" y="443.78" width="41.88" height="7.83" rx="3.92" ry="3.92"/>
    <rect class="cls-5" x="1113.56" y="443.78" width="41.88" height="7.83" rx="3.92" ry="3.92"/>
    <rect class="cls-5" x="1063.56" y="443.78" width="41.88" height="7.83" rx="3.92" ry="3.92"/>
    <rect class="cls-3" x="891.56" y="439.78" width="41.88" height="7.83" rx="3.92" ry="3.92"/>
    <rect class="cls-1" x="891.56" y="439.78" width="41.88" height="7.83" rx="3.92" ry="3.92"/>
    <path class="cls-1" d="M847.11,578.22V551.84a15.46,15.46,0,0,1,15.41-15.41h0a15.46,15.46,0,0,1,15.41,15.41v26.39" transform="translate(0 -136.57)"/>
    <line class="cls-4" x1="847.47" y1="411.98" x2="877.58" y2="411.98"/>
    <line class="cls-4" x1="862.52" y1="411.98" x2="862.52" y2="441.65"/>
    <rect class="cls-3" x="841.56" y="439.78" width="41.88" height="7.83" rx="3.92" ry="3.92"/>
    <rect class="cls-1" x="841.56" y="439.78" width="41.88" height="7.83" rx="3.92" ry="3.92"/>
    <path class="cls-1" d="M1119.11,578.22V551.84a15.46,15.46,0,0,1,15.41-15.41h0a15.46,15.46,0,0,1,15.41,15.41v26.39" transform="translate(0 -136.57)"/>
    <line class="cls-4" x1="1119.47" y1="411.98" x2="1149.58" y2="411.98"/>
    <line class="cls-4" x1="1134.52" y1="411.98" x2="1134.52" y2="441.65"/>
    <rect class="cls-3" x="1113.56" y="439.78" width="41.88" height="7.83" rx="3.92" ry="3.92"/>
    <rect class="cls-1" x="1113.56" y="439.78" width="41.88" height="7.83" rx="3.92" ry="3.92"/>
    <path class="cls-1" d="M1069.11,578.22V551.84a15.46,15.46,0,0,1,15.41-15.41h0a15.46,15.46,0,0,1,15.41,15.41v26.39" transform="translate(0 -136.57)"/>
    <line class="cls-4" x1="1069.47" y1="411.98" x2="1099.58" y2="411.98"/>
    <line class="cls-4" x1="1084.52" y1="411.98" x2="1084.52" y2="441.65"/>
    <rect class="cls-3" x="1063.56" y="439.78" width="41.88" height="7.83" rx="3.92" ry="3.92"/>
    <rect class="cls-1" x="1063.56" y="439.78" width="41.88" height="7.83" rx="3.92" ry="3.92"/>
    <path class="cls-3" d="M918.2,632.44V393.39A1.81,1.81,0,0,1,920,391.6h156.22a1.81,1.81,0,0,1,1.82,1.78V632.44" transform="translate(0 -136.57)"/>
    <path class="cls-1" d="M918.2,632.44V393.39A1.81,1.81,0,0,1,920,391.6h156.22a1.81,1.81,0,0,1,1.82,1.78V632.44" transform="translate(0 -136.57)"/>
    <path class="cls-3" d="M851.85,620.28V609a1.44,1.44,0,0,1,1.44-1.44h41.46a1.44,1.44,0,0,1,1.44,1.44v11.29" transform="translate(0 -136.57)"/>
    <rect class="cls-5" x="927.04" y="316.25" width="41.88" height="7.83" rx="3.92" ry="3.92"/>
    <rect class="cls-5" x="977.04" y="316.25" width="41.88" height="7.83" rx="3.92" ry="3.92"/>
    <rect class="cls-5" x="1027.04" y="316.25" width="41.88" height="7.83" rx="3.92" ry="3.92"/>
    <rect class="cls-5" x="927.04" y="376.25" width="41.88" height="7.83" rx="3.92" ry="3.92"/>
    <rect class="cls-5" x="977.04" y="376.25" width="41.88" height="7.83" rx="3.92" ry="3.92"/>
    <rect class="cls-5" x="1027.04" y="376.25" width="41.88" height="7.83" rx="3.92" ry="3.92"/>
    <path class="cls-1" d="M851.85,620.28V609a1.44,1.44,0,0,1,1.44-1.44h41.46a1.44,1.44,0,0,1,1.44,1.44v11.29" transform="translate(0 -136.57)"/>
    <rect class="cls-3" x="848.43" y="484.15" width="51.17" height="4.5"/>
    <rect class="cls-1" x="848.43" y="484.15" width="51.17" height="4.5"/>
    <line class="cls-1" x1="851.43" y1="494.65" x2="851.43" y2="489.17"/>
    <line class="cls-1" x1="856.93" y1="489.17" x2="856.93" y2="494.65"/>
    <line class="cls-1" x1="891.1" y1="494.65" x2="891.1" y2="489.17"/>
    <line class="cls-1" x1="896.6" y1="489.17" x2="896.6" y2="494.65"/>
    <line class="cls-1" x1="851.43" y1="476" x2="863.52" y2="476"/>
    <line class="cls-1" x1="883.43" y1="480" x2="895.52" y2="480"/>
    <path class="cls-3" d="M1098.85,620.28V609a1.44,1.44,0,0,1,1.44-1.44h41.46a1.44,1.44,0,0,1,1.44,1.44v11.29" transform="translate(0 -136.57)"/>
    <path class="cls-1" d="M1098.85,620.28V609a1.44,1.44,0,0,1,1.44-1.44h41.46a1.44,1.44,0,0,1,1.44,1.44v11.29" transform="translate(0 -136.57)"/>
    <rect class="cls-3" x="1095.43" y="484.15" width="51.17" height="4.5"/>
    <rect class="cls-1" x="1095.43" y="484.15" width="51.17" height="4.5"/>
    <line class="cls-1" x1="1098.43" y1="494.65" x2="1098.43" y2="489.17"/>
    <line class="cls-1" x1="1103.93" y1="489.17" x2="1103.93" y2="494.65"/>
    <line class="cls-1" x1="1138.1" y1="494.65" x2="1138.1" y2="489.17"/>
    <line class="cls-1" x1="1143.6" y1="489.17" x2="1143.6" y2="494.65"/>
    <line class="cls-1" x1="1098.43" y1="476" x2="1110.52" y2="476"/>
    <line class="cls-1" x1="1130.43" y1="480" x2="1142.52" y2="480"/>
    <rect class="cls-5" x="908.78" y="251.4" width="178.45" height="11.04" rx="1.79" ry="1.79"/>
    <rect class="cls-3" x="908.78" y="247.61" width="178.45" height="11.04" rx="1.79" ry="1.79"/>
    <rect class="cls-1" x="908.78" y="247.61" width="178.45" height="11.04" rx="1.79" ry="1.79"/>
    <path class="cls-1" d="M968.73,618.45V568.13a29.48,29.48,0,0,1,29.4-29.4h0a29.48,29.48,0,0,1,29.4,29.4v50.33" transform="translate(0 -136.57)"/>
    <path class="cls-1" d="M962.72,618.61V566a35.52,35.52,0,0,1,35.41-35.41h0A35.52,35.52,0,0,1,1033.54,566v52.63" transform="translate(0 -136.57)"/>
    <rect class="cls-1" x="937.53" y="488.5" width="121.19" height="6.75" rx="1.11" ry="1.11"/>
    <path class="cls-1" d="M943.13,625.44v-5.77a1.11,1.11,0,0,1,1.11-1.11H1052a1.11,1.11,0,0,1,1.11,1.11v5.77" transform="translate(0 -136.57)"/>
    <line class="cls-1" x1="969.42" y1="425.29" x2="1026.84" y2="425.29"/>
    <line class="cls-1" x1="998.13" y1="425.29" x2="998.13" y2="481.88"/>
    <path class="cls-1" d="M932.59,450.7V424.31A15.46,15.46,0,0,1,948,408.89h0a15.46,15.46,0,0,1,15.41,15.41V450.7" transform="translate(0 -136.57)"/>
    <line class="cls-4" x1="932.95" y1="284.45" x2="963.06" y2="284.45"/>
    <line class="cls-1" x1="931.56" y1="314.45" x2="964.39" y2="314.45"/>
    <line class="cls-4" x1="948" y1="284.45" x2="948" y2="314.12"/>
    <rect class="cls-4" x="974.48" y="434.75" width="17.5" height="35"/>
    <rect class="cls-4" x="1004.48" y="434.75" width="17.5" height="35"/>
    <rect class="cls-3" x="927.04" y="312.25" width="41.88" height="7.83" rx="3.92" ry="3.92"/>
    <rect class="cls-1" x="927.04" y="312.25" width="41.88" height="7.83" rx="3.92" ry="3.92"/>
    <path class="cls-1" d="M982.59,450.7V424.31A15.46,15.46,0,0,1,998,408.89h0a15.46,15.46,0,0,1,15.41,15.41V450.7" transform="translate(0 -136.57)"/>
    <line class="cls-4" x1="982.95" y1="284.45" x2="1013.06" y2="284.45"/>
    <line class="cls-4" x1="998" y1="284.45" x2="998" y2="314.12"/>
    <rect class="cls-3" x="977.04" y="312.25" width="41.88" height="7.83" rx="3.92" ry="3.92"/>
    <rect class="cls-1" x="977.04" y="312.25" width="41.88" height="7.83" rx="3.92" ry="3.92"/>
    <path class="cls-1" d="M1032.59,450.7V424.31A15.46,15.46,0,0,1,1048,408.89h0a15.46,15.46,0,0,1,15.41,15.41V450.7" transform="translate(0 -136.57)"/>
    <line class="cls-4" x1="1032.95" y1="284.45" x2="1063.06" y2="284.45"/>
    <line class="cls-4" x1="1048" y1="284.45" x2="1048" y2="314.12"/>
    <rect class="cls-3" x="1027.04" y="312.25" width="41.88" height="7.83" rx="3.92" ry="3.92"/>
    <rect class="cls-1" x="1027.04" y="312.25" width="41.88" height="7.83" rx="3.92" ry="3.92"/>
    <path class="cls-1" d="M932.59,510.7V484.31A15.46,15.46,0,0,1,948,468.89h0a15.46,15.46,0,0,1,15.41,15.41V510.7" transform="translate(0 -136.57)"/>
    <line class="cls-4" x1="932.95" y1="344.45" x2="963.06" y2="344.45"/>
    <line class="cls-1" x1="931.56" y1="374.45" x2="964.39" y2="374.45"/>
    <line class="cls-4" x1="948" y1="344.45" x2="948" y2="374.12"/>
    <rect class="cls-3" x="927.04" y="372.25" width="41.88" height="7.83" rx="3.92" ry="3.92"/>
    <rect class="cls-1" x="927.04" y="372.25" width="41.88" height="7.83" rx="3.92" ry="3.92"/>
    <path class="cls-1" d="M982.59,510.7V484.31A15.46,15.46,0,0,1,998,468.89h0a15.46,15.46,0,0,1,15.41,15.41V510.7" transform="translate(0 -136.57)"/>
    <line class="cls-4" x1="982.95" y1="344.45" x2="1013.06" y2="344.45"/>
    <line class="cls-4" x1="998" y1="344.45" x2="998" y2="374.12"/>
    <rect class="cls-3" x="977.04" y="372.25" width="41.88" height="7.83" rx="3.92" ry="3.92"/>
    <rect class="cls-1" x="977.04" y="372.25" width="41.88" height="7.83" rx="3.92" ry="3.92"/>
    <path class="cls-1" d="M1032.59,510.7V484.31A15.46,15.46,0,0,1,1048,468.89h0a15.46,15.46,0,0,1,15.41,15.41V510.7" transform="translate(0 -136.57)"/>
    <line class="cls-4" x1="1032.95" y1="344.45" x2="1063.06" y2="344.45"/>
    <line class="cls-4" x1="1048" y1="344.45" x2="1048" y2="374.12"/>
    <rect class="cls-3" x="1027.04" y="372.25" width="41.88" height="7.83" rx="3.92" ry="3.92"/>
    <rect class="cls-1" x="1027.04" y="372.25" width="41.88" height="7.83" rx="3.92" ry="3.92"/>
  </g>
  <g class="cls-2">
    <rect class="cls-3" x="52.52" y="331.21" width="32.16" height="24.62" rx="1.5" ry="1.5"/>
    <rect class="cls-1" x="52.52" y="331.21" width="32.16" height="24.62" rx="1.5" ry="1.5"/>
    <path class="cls-1" d="M25.12,631.48V498.95c0-.54,1.41-1,3.14-1H297.47c1.73,0,3.14.45,3.14,1V631.48" transform="translate(0 -136.57)"/>
    <path class="cls-1" d="M241.76,622.05v-4.37a1.15,1.15,0,0,1,1.26-1h19.14a1.15,1.15,0,0,1,1.26,1v4.37" transform="translate(0 -136.57)"/>
    <rect class="cls-1" x="53.43" y="386.61" width="32.16" height="29.23" rx="1.5" ry="1.5"/>
    <line class="cls-4" x1="69.51" y1="386.61" x2="69.51" y2="415.83"/>
    <rect class="cls-5" x="50.21" y="414.69" width="38.6" height="6.62" rx="1.5" ry="1.5"/>
    <rect class="cls-3" x="50.21" y="411.64" width="38.6" height="6.62" rx="1.5" ry="1.5"/>
    <rect class="cls-1" x="50.21" y="411.64" width="38.6" height="6.62" rx="1.5" ry="1.5"/>
    <rect class="cls-1" x="99.2" y="386.61" width="32.16" height="29.23" rx="1.5" ry="1.5"/>
    <line class="cls-4" x1="115.28" y1="386.61" x2="115.28" y2="415.83"/>
    <line class="cls-4" x1="131.36" y1="399.7" x2="99.2" y2="399.7"/>
    <line class="cls-4" x1="85.59" y1="399.7" x2="53.43" y2="399.7"/>
    <line class="cls-4" x1="84.88" y1="354.36" x2="53.59" y2="334.84"/>
    <line class="cls-4" x1="222.9" y1="399.7" x2="190.74" y2="399.7"/>
    <line class="cls-4" x1="177.13" y1="399.7" x2="144.97" y2="399.7"/>
    <rect class="cls-5" x="95.98" y="414.69" width="38.6" height="6.62" rx="1.5" ry="1.5"/>
    <rect class="cls-3" x="95.98" y="411.64" width="38.6" height="6.62" rx="1.5" ry="1.5"/>
    <rect class="cls-1" x="95.98" y="411.64" width="38.6" height="6.62" rx="1.5" ry="1.5"/>
    <rect class="cls-1" x="144.97" y="386.61" width="32.16" height="29.23" rx="1.5" ry="1.5"/>
    <line class="cls-4" x1="161.05" y1="386.61" x2="161.05" y2="415.83"/>
    <rect class="cls-5" x="141.75" y="414.69" width="38.6" height="6.62" rx="1.5" ry="1.5"/>
    <rect class="cls-3" x="141.75" y="411.64" width="38.6" height="6.62" rx="1.5" ry="1.5"/>
    <rect class="cls-1" x="141.75" y="411.64" width="38.6" height="6.62" rx="1.5" ry="1.5"/>
    <rect class="cls-1" x="190.74" y="386.61" width="32.16" height="29.23" rx="1.5" ry="1.5"/>
    <line class="cls-4" x1="206.82" y1="386.61" x2="206.82" y2="415.83"/>
    <rect class="cls-5" x="187.52" y="414.69" width="38.6" height="6.62" rx="1.5" ry="1.5"/>
    <rect class="cls-3" x="187.52" y="411.64" width="38.6" height="6.62" rx="1.5" ry="1.5"/>
    <rect class="cls-1" x="187.52" y="411.64" width="38.6" height="6.62" rx="1.5" ry="1.5"/>
    <rect class="cls-1" x="53.43" y="433.14" width="32.16" height="29.23" rx="1.5" ry="1.5"/>
    <line class="cls-4" x1="69.51" y1="433.14" x2="69.51" y2="462.37"/>
    <rect class="cls-5" x="50.21" y="461.22" width="38.6" height="6.62" rx="1.5" ry="1.5"/>
    <rect class="cls-3" x="50.21" y="458.17" width="38.6" height="6.62" rx="1.5" ry="1.5"/>
    <rect class="cls-1" x="50.21" y="458.17" width="38.6" height="6.62" rx="1.5" ry="1.5"/>
    <rect class="cls-1" x="99.2" y="433.14" width="32.16" height="29.23" rx="1.5" ry="1.5"/>
    <line class="cls-4" x1="115.28" y1="433.14" x2="115.28" y2="462.37"/>
    <line class="cls-4" x1="131.36" y1="446.23" x2="99.2" y2="446.23"/>
    <line class="cls-4" x1="85.59" y1="446.23" x2="53.43" y2="446.23"/>
    <line class="cls-4" x1="222.9" y1="446.23" x2="190.74" y2="446.23"/>
    <line class="cls-4" x1="177.13" y1="446.23" x2="144.97" y2="446.23"/>
    <rect class="cls-5" x="95.98" y="461.22" width="38.6" height="6.62" rx="1.5" ry="1.5"/>
    <rect class="cls-3" x="95.98" y="458.17" width="38.6" height="6.62" rx="1.5" ry="1.5"/>
    <rect class="cls-1" x="95.98" y="458.17" width="38.6" height="6.62" rx="1.5" ry="1.5"/>
    <rect class="cls-1" x="144.97" y="433.14" width="32.16" height="29.23" rx="1.5" ry="1.5"/>
    <line class="cls-4" x1="161.05" y1="433.14" x2="161.05" y2="462.37"/>
    <rect class="cls-5" x="141.75" y="461.22" width="38.6" height="6.62" rx="1.5" ry="1.5"/>
    <rect class="cls-3" x="141.75" y="458.17" width="38.6" height="6.62" rx="1.5" ry="1.5"/>
    <rect class="cls-1" x="141.75" y="458.17" width="38.6" height="6.62" rx="1.5" ry="1.5"/>
    <rect class="cls-1" x="190.74" y="433.14" width="32.16" height="29.23" rx="1.5" ry="1.5"/>
    <line class="cls-4" x1="206.82" y1="433.14" x2="206.82" y2="462.37"/>
    <rect class="cls-5" x="187.52" y="461.22" width="38.6" height="6.62" rx="1.5" ry="1.5"/>
    <rect class="cls-3" x="187.52" y="458.17" width="38.6" height="6.62" rx="1.5" ry="1.5"/>
    <rect class="cls-1" x="187.52" y="458.17" width="38.6" height="6.62" rx="1.5" ry="1.5"/>
    <line class="cls-4" x1="268.67" y1="399.7" x2="236.51" y2="399.7"/>
    <rect class="cls-1" x="236.51" y="386.61" width="32.16" height="29.23" rx="1.5" ry="1.5"/>
    <line class="cls-4" x1="252.59" y1="386.61" x2="252.59" y2="415.83"/>
    <rect class="cls-5" x="233.29" y="414.69" width="38.6" height="6.62" rx="1.5" ry="1.5"/>
    <rect class="cls-3" x="233.29" y="411.64" width="38.6" height="6.62" rx="1.5" ry="1.5"/>
    <rect class="cls-1" x="233.29" y="411.64" width="38.6" height="6.62" rx="1.5" ry="1.5"/>
    <rect class="cls-1" x="236.51" y="433.14" width="32.16" height="52.57" rx="1.5" ry="1.5"/>
    <line class="cls-4" x1="252.59" y1="433.14" x2="252.59" y2="480.14"/>
    <path class="cls-1" d="M300.6,550.17H323a1.15,1.15,0,0,0,1.14-1.14v-3.37a1.15,1.15,0,0,0-1.14-1.14H301.37" transform="translate(0 -136.57)"/>
    <line class="cls-6" x1="300.6" y1="396.79" x2="320.73" y2="396.79"/>
    <line class="cls-6" x1="320.97" y1="407.23" x2="320.97" y2="394.69"/>
    <line class="cls-6" x1="313.34" y1="407.23" x2="313.34" y2="394.69"/>
    <line class="cls-6" x1="304.95" y1="407.23" x2="304.95" y2="394.69"/>
    <path class="cls-1" d="M300.6,597.46H323a1.15,1.15,0,0,0,1.14-1.14V593a1.15,1.15,0,0,0-1.14-1.14H301.37" transform="translate(0 -136.57)"/>
    <line class="cls-6" x1="300.6" y1="444.08" x2="320.73" y2="444.08"/>
    <line class="cls-6" x1="320.97" y1="454.52" x2="320.97" y2="441.98"/>
    <line class="cls-6" x1="313.34" y1="454.52" x2="313.34" y2="441.98"/>
    <line class="cls-6" x1="304.95" y1="454.52" x2="304.95" y2="441.98"/>
    <line class="cls-6" x1="202.21" y1="356.04" x2="202.21" y2="345.99"/>
    <line class="cls-6" x1="194.07" y1="345.99" x2="210.34" y2="345.99"/>
    <line class="cls-6" x1="194.07" y1="341.42" x2="210.34" y2="341.42"/>
    <line class="cls-6" x1="197.63" y1="341.42" x2="197.63" y2="335.57"/>
    <line class="cls-6" x1="206.79" y1="341.42" x2="206.79" y2="335.57"/>
    <line class="cls-6" x1="202.21" y1="345.99" x2="202.21" y2="341.92"/>
    <polyline class="cls-7" points="271.88 356.04 271.88 351.56 275.79 351.56 275.79 355.56"/>
    <rect class="cls-7" x="268.99" y="347.6" width="9.69" height="3.96" rx="0.81" ry="0.81"/>
    <rect class="cls-5" x="21.18" y="363.02" width="284.4" height="8.42" rx="1.79" ry="1.79"/>
    <rect class="cls-3" x="21.18" y="356.04" width="284.4" height="12.52" rx="1.79" ry="1.79"/>
    <rect class="cls-1" x="21.18" y="356.04" width="284.4" height="12.52" rx="1.79" ry="1.79"/>
    <rect class="cls-3" x="21.18" y="485.72" width="284.4" height="9.34" rx="1.79" ry="1.79"/>
    <rect class="cls-1" x="21.18" y="485.72" width="284.4" height="9.34" rx="1.79" ry="1.79"/>
    <polygon class="cls-3" points="45.56 333.54 48.87 336.27 68.51 332.01 89.36 336.65 91.65 333.54 68.6 325.14 45.56 333.54"/>
    <polygon class="cls-1" points="45.56 333.54 48.87 336.27 68.51 331.25 89.36 336.65 91.65 333.54 68.6 325.14 45.56 333.54"/>
    <line class="cls-4" x1="240.67" y1="458.94" x2="245.44" y2="458.94"/>
    <line class="cls-4" x1="259.74" y1="458.94" x2="264.51" y2="458.94"/>
  </g>
  <g class="cls-2">
    <rect class="cls-3" x="419.65" y="467.78" width="32.16" height="24.62" rx="1.5" ry="1.5" transform="translate(871.47 823.6) rotate(-180)"/>
    <rect class="cls-1" x="419.65" y="467.78" width="32.16" height="24.62" rx="1.5" ry="1.5" transform="translate(871.47 823.6) rotate(-180)"/>
    <path class="cls-1" d="M479.22,631.48V498.95c0-.54-1.41-1-3.14-1H206.87c-1.73,0-3.14.45-3.14,1V631.48" transform="translate(0 -136.57)"/>
    <path class="cls-1" d="M262.58,622.05v-4.37a1.15,1.15,0,0,0-1.26-1H242.18a1.15,1.15,0,0,0-1.26,1v4.37" transform="translate(0 -136.57)"/>
    <rect class="cls-1" x="418.75" y="523.18" width="32.16" height="29.23" rx="1.5" ry="1.5" transform="translate(869.66 939.02) rotate(-180)"/>
    <line class="cls-4" x1="434.83" y1="386.61" x2="434.83" y2="415.83"/>
    <rect class="cls-5" x="415.53" y="551.26" width="38.6" height="6.62" rx="1.5" ry="1.5" transform="translate(869.66 972.58) rotate(-180)"/>
    <rect class="cls-3" x="415.53" y="548.21" width="38.6" height="6.62" rx="1.5" ry="1.5" transform="translate(869.66 966.48) rotate(-180)"/>
    <rect class="cls-1" x="415.53" y="548.21" width="38.6" height="6.62" rx="1.5" ry="1.5" transform="translate(869.66 966.48) rotate(-180)"/>
    <rect class="cls-1" x="372.98" y="523.18" width="32.16" height="29.23" rx="1.5" ry="1.5" transform="translate(778.12 939.02) rotate(-180)"/>
    <line class="cls-4" x1="389.06" y1="386.61" x2="389.06" y2="415.83"/>
    <line class="cls-4" x1="372.98" y1="399.7" x2="405.14" y2="399.7"/>
    <line class="cls-4" x1="418.75" y1="399.7" x2="450.91" y2="399.7"/>
    <line class="cls-4" x1="419.46" y1="354.36" x2="450.75" y2="334.84"/>
    <line class="cls-4" x1="281.44" y1="399.7" x2="313.6" y2="399.7"/>
    <line class="cls-4" x1="327.21" y1="399.7" x2="359.37" y2="399.7"/>
    <rect class="cls-5" x="369.76" y="551.26" width="38.6" height="6.62" rx="1.5" ry="1.5" transform="translate(778.12 972.58) rotate(-180)"/>
    <rect class="cls-3" x="369.76" y="548.21" width="38.6" height="6.62" rx="1.5" ry="1.5" transform="translate(778.12 966.48) rotate(-180)"/>
    <rect class="cls-1" x="369.76" y="548.21" width="38.6" height="6.62" rx="1.5" ry="1.5" transform="translate(778.12 966.48) rotate(-180)"/>
    <rect class="cls-1" x="327.21" y="523.18" width="32.16" height="29.23" rx="1.5" ry="1.5" transform="translate(686.58 939.02) rotate(-180)"/>
    <line class="cls-4" x1="343.29" y1="386.61" x2="343.29" y2="415.83"/>
    <rect class="cls-5" x="323.99" y="551.26" width="38.6" height="6.62" rx="1.5" ry="1.5" transform="translate(686.58 972.58) rotate(-180)"/>
    <rect class="cls-3" x="323.99" y="548.21" width="38.6" height="6.62" rx="1.5" ry="1.5" transform="translate(686.58 966.48) rotate(-180)"/>
    <rect class="cls-1" x="323.99" y="548.21" width="38.6" height="6.62" rx="1.5" ry="1.5" transform="translate(686.58 966.48) rotate(-180)"/>
    <rect class="cls-1" x="281.44" y="523.18" width="32.16" height="29.23" rx="1.5" ry="1.5" transform="translate(595.04 939.02) rotate(-180)"/>
    <line class="cls-4" x1="297.52" y1="386.61" x2="297.52" y2="415.83"/>
    <rect class="cls-5" x="278.22" y="551.26" width="38.6" height="6.62" rx="1.5" ry="1.5" transform="translate(595.04 972.58) rotate(-180)"/>
    <rect class="cls-3" x="278.22" y="548.21" width="38.6" height="6.62" rx="1.5" ry="1.5" transform="translate(595.04 966.48) rotate(-180)"/>
    <rect class="cls-1" x="278.22" y="548.21" width="38.6" height="6.62" rx="1.5" ry="1.5" transform="translate(595.04 966.48) rotate(-180)"/>
    <rect class="cls-1" x="418.75" y="569.71" width="32.16" height="29.23" rx="1.5" ry="1.5" transform="translate(869.66 1032.08) rotate(-180)"/>
    <line class="cls-4" x1="434.83" y1="433.14" x2="434.83" y2="462.37"/>
    <rect class="cls-5" x="415.53" y="597.8" width="38.6" height="6.62" rx="1.5" ry="1.5" transform="translate(869.66 1065.64) rotate(-180)"/>
    <rect class="cls-3" x="415.53" y="594.74" width="38.6" height="6.62" rx="1.5" ry="1.5" transform="translate(869.66 1059.54) rotate(-180)"/>
    <rect class="cls-1" x="415.53" y="594.74" width="38.6" height="6.62" rx="1.5" ry="1.5" transform="translate(869.66 1059.54) rotate(-180)"/>
    <rect class="cls-1" x="372.98" y="569.71" width="32.16" height="29.23" rx="1.5" ry="1.5" transform="translate(778.12 1032.08) rotate(-180)"/>
    <line class="cls-4" x1="389.06" y1="433.14" x2="389.06" y2="462.37"/>
    <line class="cls-4" x1="372.98" y1="446.23" x2="405.14" y2="446.23"/>
    <line class="cls-4" x1="418.75" y1="446.23" x2="450.91" y2="446.23"/>
    <line class="cls-4" x1="281.44" y1="446.23" x2="313.6" y2="446.23"/>
    <line class="cls-4" x1="327.21" y1="446.23" x2="359.37" y2="446.23"/>
    <rect class="cls-5" x="369.76" y="597.8" width="38.6" height="6.62" rx="1.5" ry="1.5" transform="translate(778.12 1065.64) rotate(-180)"/>
    <rect class="cls-3" x="369.76" y="594.74" width="38.6" height="6.62" rx="1.5" ry="1.5" transform="translate(778.12 1059.54) rotate(-180)"/>
    <rect class="cls-1" x="369.76" y="594.74" width="38.6" height="6.62" rx="1.5" ry="1.5" transform="translate(778.12 1059.54) rotate(-180)"/>
    <rect class="cls-1" x="327.21" y="569.71" width="32.16" height="29.23" rx="1.5" ry="1.5" transform="translate(686.58 1032.08) rotate(-180)"/>
    <line class="cls-4" x1="343.29" y1="433.14" x2="343.29" y2="462.37"/>
    <rect class="cls-5" x="323.99" y="597.8" width="38.6" height="6.62" rx="1.5" ry="1.5" transform="translate(686.58 1065.64) rotate(-180)"/>
    <rect class="cls-3" x="323.99" y="594.74" width="38.6" height="6.62" rx="1.5" ry="1.5" transform="translate(686.58 1059.54) rotate(-180)"/>
    <rect class="cls-1" x="323.99" y="594.74" width="38.6" height="6.62" rx="1.5" ry="1.5" transform="translate(686.58 1059.54) rotate(-180)"/>
    <rect class="cls-1" x="281.44" y="569.71" width="32.16" height="29.23" rx="1.5" ry="1.5" transform="translate(595.04 1032.08) rotate(-180)"/>
    <line class="cls-4" x1="297.52" y1="433.14" x2="297.52" y2="462.37"/>
    <rect class="cls-5" x="278.22" y="597.8" width="38.6" height="6.62" rx="1.5" ry="1.5" transform="translate(595.04 1065.64) rotate(-180)"/>
    <rect class="cls-3" x="278.22" y="594.74" width="38.6" height="6.62" rx="1.5" ry="1.5" transform="translate(595.04 1059.54) rotate(-180)"/>
    <rect class="cls-1" x="278.22" y="594.74" width="38.6" height="6.62" rx="1.5" ry="1.5" transform="translate(595.04 1059.54) rotate(-180)"/>
    <line class="cls-4" x1="235.67" y1="399.7" x2="267.83" y2="399.7"/>
    <rect class="cls-1" x="235.67" y="523.18" width="32.16" height="29.23" rx="1.5" ry="1.5" transform="translate(503.5 939.02) rotate(-180)"/>
    <line class="cls-4" x1="251.75" y1="386.61" x2="251.75" y2="415.83"/>
    <rect class="cls-5" x="232.45" y="551.26" width="38.6" height="6.62" rx="1.5" ry="1.5" transform="translate(503.5 972.58) rotate(-180)"/>
    <rect class="cls-3" x="232.45" y="548.21" width="38.6" height="6.62" rx="1.5" ry="1.5" transform="translate(503.5 966.48) rotate(-180)"/>
    <rect class="cls-1" x="232.45" y="548.21" width="38.6" height="6.62" rx="1.5" ry="1.5" transform="translate(503.5 966.48) rotate(-180)"/>
    <rect class="cls-1" x="235.67" y="569.71" width="32.16" height="52.57" rx="1.5" ry="1.5" transform="translate(503.5 1055.43) rotate(-180)"/>
    <line class="cls-4" x1="251.75" y1="433.14" x2="251.75" y2="480.14"/>
    <path class="cls-1" d="M203.73,550.17H181.29a1.15,1.15,0,0,1-1.14-1.14v-3.37a1.15,1.15,0,0,1,1.14-1.14H203" transform="translate(0 -136.57)"/>
    <line class="cls-6" x1="203.73" y1="396.79" x2="183.61" y2="396.79"/>
    <line class="cls-6" x1="183.37" y1="407.23" x2="183.37" y2="394.69"/>
    <line class="cls-6" x1="191" y1="407.23" x2="191" y2="394.69"/>
    <line class="cls-6" x1="199.39" y1="407.23" x2="199.39" y2="394.69"/>
    <path class="cls-1" d="M203.73,597.46H181.29a1.15,1.15,0,0,1-1.14-1.14V593a1.15,1.15,0,0,1,1.14-1.14H203" transform="translate(0 -136.57)"/>
    <line class="cls-6" x1="203.73" y1="444.08" x2="183.61" y2="444.08"/>
    <line class="cls-6" x1="183.37" y1="454.52" x2="183.37" y2="441.98"/>
    <line class="cls-6" x1="191" y1="454.52" x2="191" y2="441.98"/>
    <line class="cls-6" x1="199.39" y1="454.52" x2="199.39" y2="441.98"/>
    <line class="cls-6" x1="302.13" y1="356.04" x2="302.13" y2="345.99"/>
    <line class="cls-6" x1="310.27" y1="345.99" x2="293.99" y2="345.99"/>
    <line class="cls-6" x1="310.27" y1="341.42" x2="293.99" y2="341.42"/>
    <line class="cls-6" x1="306.71" y1="341.42" x2="306.71" y2="335.57"/>
    <line class="cls-6" x1="297.55" y1="341.42" x2="297.55" y2="335.57"/>
    <line class="cls-6" x1="302.13" y1="345.99" x2="302.13" y2="341.92"/>
    <polyline class="cls-7" points="232.46 356.04 232.46 351.56 228.55 351.56 228.55 355.56"/>
    <rect class="cls-7" x="225.65" y="484.17" width="9.69" height="3.96" rx="0.81" ry="0.81" transform="translate(461 835.72) rotate(-180)"/>
    <rect class="cls-5" x="198.76" y="499.59" width="284.4" height="8.42" rx="1.79" ry="1.79" transform="translate(681.92 871.03) rotate(-180)"/>
    <rect class="cls-3" x="198.76" y="492.61" width="284.4" height="12.52" rx="1.79" ry="1.79" transform="translate(681.92 861.16) rotate(-180)"/>
    <rect class="cls-1" x="198.76" y="492.61" width="284.4" height="12.52" rx="1.79" ry="1.79" transform="translate(681.92 861.16) rotate(-180)"/>
    <rect class="cls-3" x="198.76" y="622.29" width="284.4" height="9.34" rx="1.79" ry="1.79" transform="translate(681.92 1117.34) rotate(-180)"/>
    <rect class="cls-1" x="198.76" y="622.29" width="284.4" height="9.34" rx="1.79" ry="1.79" transform="translate(681.92 1117.34) rotate(-180)"/>
    <polygon class="cls-3" points="458.78 333.54 455.47 336.27 435.83 332.01 414.98 336.65 412.69 333.54 435.74 325.14 458.78 333.54"/>
    <polygon class="cls-1" points="458.78 333.54 455.47 336.27 435.83 331.25 414.98 336.65 412.69 333.54 435.74 325.14 458.78 333.54"/>
    <line class="cls-4" x1="263.67" y1="458.94" x2="258.9" y2="458.94"/>
    <line class="cls-4" x1="244.6" y1="458.94" x2="239.83" y2="458.94"/>
  </g>
  <path class="cls-3" d="M507.49,630.76V225.64a1.42,1.42,0,0,1,1.42-1.42H757.73a1.42,1.42,0,0,1,1.42,1.42V630.76" transform="translate(0 -136.57)"/>
  <path class="cls-1" d="M507.49,630.76V225.64a1.42,1.42,0,0,1,1.42-1.42H757.73a1.42,1.42,0,0,1,1.42,1.42V630.76" transform="translate(0 -136.57)"/>
  <line class="cls-1" x1="743.27" y1="87.65" x2="743.27" y2="494.19"/>
  <line class="cls-1" x1="632.94" y1="425.16" x2="632.94" y2="494.19"/>
  <line class="cls-4" x1="695.94" y1="87.65" x2="695.94" y2="494.19"/>
  <line class="cls-4" x1="570.03" y1="87.65" x2="570.03" y2="494.19"/>
  <line class="cls-1" x1="522.69" y1="87.65" x2="522.69" y2="494.19"/>
  <rect class="cls-5" x="501.42" y="326.69" width="263.81" height="11.04" rx="1.79" ry="1.79"/>
  <rect class="cls-5" x="501.42" y="279.35" width="263.81" height="11.04" rx="1.79" ry="1.79"/>
  <rect class="cls-5" x="501.42" y="232.02" width="263.81" height="11.04" rx="1.79" ry="1.79"/>
  <rect class="cls-5" x="501.42" y="184.69" width="263.81" height="11.04" rx="1.79" ry="1.79"/>
  <rect class="cls-5" x="501.42" y="137.35" width="263.81" height="11.04" rx="1.79" ry="1.79"/>
  <rect class="cls-3" x="501.42" y="133.56" width="263.81" height="11.04" rx="1.79" ry="1.79"/>
  <rect class="cls-1" x="501.42" y="133.56" width="263.81" height="11.04" rx="1.79" ry="1.79"/>
  <rect class="cls-5" x="501.42" y="89.07" width="263.81" height="11.04" rx="1.79" ry="1.79"/>
  <rect class="cls-3" x="501.42" y="79.92" width="263.81" height="16.41" rx="1.79" ry="1.79"/>
  <rect class="cls-1" x="501.42" y="79.92" width="263.81" height="16.41" rx="1.79" ry="1.79"/>
  <path class="cls-8" d="M511.07,216.06v-14a1.7,1.7,0,0,1,1.7-1.7H753.88a1.7,1.7,0,0,1,1.7,1.7v14" transform="translate(0 -136.57)"/>
  <rect class="cls-3" x="501.42" y="180.9" width="263.81" height="11.04" rx="1.79" ry="1.79"/>
  <rect class="cls-1" x="501.42" y="180.9" width="263.81" height="11.04" rx="1.79" ry="1.79"/>
  <rect class="cls-3" x="501.42" y="228.23" width="263.81" height="11.04" rx="1.79" ry="1.79"/>
  <rect class="cls-1" x="501.42" y="228.23" width="263.81" height="11.04" rx="1.79" ry="1.79"/>
  <rect class="cls-3" x="501.42" y="275.57" width="263.81" height="11.04" rx="1.79" ry="1.79"/>
  <rect class="cls-1" x="501.42" y="275.57" width="263.81" height="11.04" rx="1.79" ry="1.79"/>
  <rect class="cls-3" x="501.42" y="322.9" width="263.81" height="11.04" rx="1.79" ry="1.79"/>
  <rect class="cls-1" x="501.42" y="322.9" width="263.81" height="11.04" rx="1.79" ry="1.79"/>
  <rect class="cls-5" x="501.42" y="374.23" width="263.81" height="11.04" rx="1.79" ry="1.79"/>
  <rect class="cls-5" x="501.42" y="421.57" width="263.81" height="11.04" rx="1.79" ry="1.79"/>
  <rect class="cls-3" x="501.42" y="370.23" width="263.81" height="11.04" rx="1.79" ry="1.79"/>
  <rect class="cls-1" x="501.42" y="370.23" width="263.81" height="11.04" rx="1.79" ry="1.79"/>
  <rect class="cls-3" x="501.42" y="417.57" width="263.81" height="11.04" rx="1.79" ry="1.79"/>
  <rect class="cls-1" x="501.42" y="417.57" width="263.81" height="11.04" rx="1.79" ry="1.79"/>
  <line class="cls-1" x1="583.48" y1="63.83" x2="583.48" y2="53.5"/>
  <line class="cls-1" x1="633.48" y1="63.83" x2="633.48" y2="53.5"/>
  <line class="cls-1" x1="683.48" y1="63.83" x2="683.48" y2="53.5"/>
  <rect class="cls-1" x="564.48" y="1" width="138.75" height="52.5" rx="2" ry="2"/>
  <g>
    <path class="cls-9" d="M616.13,152.92v22.4h-2.5v-22.4h2.5Z" transform="translate(0 -136.57)"/>
    <path class="cls-9" d="M623.93,152.92c3.49,0,5.09,2.11,5.09,5.57v11.29c0,3.42-1.6,5.54-5.09,5.54h-5.25v-22.4h5.25Zm0,20.13c1.79,0,2.66-1.12,2.66-3.17V158.36c0-2-.86-3.17-2.69-3.17h-2.69V173h2.72Z" transform="translate(0 -136.57)"/>
    <path class="cls-9" d="M639.33,162.84v2.24h-5.47v8h6.72v2.27h-9.22v-22.4h9.22v2.27h-6.72v7.65h5.47Z" transform="translate(0 -136.57)"/>
    <path class="cls-9" d="M645.41,170.81l-0.86,4.51h-2.3l4.29-22.4h3.62l4.29,22.4h-2.5l-0.86-4.51h-5.66Zm0.32-2.14h5l-2.53-12.93Z" transform="translate(0 -136.57)"/>
  </g>
  <text class="cls-10" transform="translate(656.39 21.25)">2</text>
  <g>
    <circle class="cls-11" cx="543.42" cy="441.37" r="24.57"/>
    <line class="cls-6" x1="543.42" y1="495.28" x2="543.42" y2="438.88"/>
    <circle class="cls-1" cx="543.42" cy="441.37" r="24.57"/>
    <line class="cls-6" x1="543.42" y1="452.63" x2="534.19" y2="445.73"/>
    <line class="cls-6" x1="543.42" y1="457.89" x2="552.64" y2="450.99"/>
  </g>
  <g>
    <circle class="cls-11" cx="723.42" cy="441.37" r="24.57"/>
    <line class="cls-6" x1="723.42" y1="495.28" x2="723.42" y2="438.88"/>
    <circle class="cls-1" cx="723.42" cy="441.37" r="24.57"/>
    <line class="cls-6" x1="723.42" y1="452.63" x2="714.19" y2="445.73"/>
    <line class="cls-6" x1="723.42" y1="457.89" x2="732.64" y2="450.99"/>
  </g>
  <circle class="cls-11" cx="30.4" cy="441.23" r="24.57"/>
  <line class="cls-6" x1="30.4" y1="495.14" x2="30.4" y2="438.74"/>
  <circle class="cls-1" cx="30.4" cy="441.23" r="24.57"/>
  <line class="cls-6" x1="30.4" y1="452.5" x2="21.18" y2="445.59"/>
  <line class="cls-6" x1="30.4" y1="457.76" x2="39.62" y2="450.85"/>
  <line class="cls-6" x1="785.39" y1="494.88" x2="785.39" y2="428.61"/>
  <circle class="cls-3" cx="785.39" cy="468.5" r="2.62"/>
  <circle class="cls-1" cx="785.39" cy="468.5" r="2.62"/>
  <circle class="cls-3" cx="785.39" cy="441.5" r="6.75"/>
  <circle class="cls-1" cx="785.39" cy="441.5" r="6.75"/>
  <line class="cls-6" x1="778.64" y1="434.75" x2="792.14" y2="434.75"/>
  <polygon class="cls-3" points="782.78 495.25 785.39 482 788.01 495.25 782.78 495.25"/>
  <polygon class="cls-1" points="782.78 495.25 785.39 482 788.01 495.25 782.78 495.25"/>
  <line class="cls-6" x1="483.39" y1="494.88" x2="483.39" y2="428.61"/>
  <circle class="cls-3" cx="483.39" cy="468.5" r="2.62"/>
  <circle class="cls-1" cx="483.39" cy="468.5" r="2.62"/>
  <circle class="cls-3" cx="483.39" cy="441.5" r="6.75"/>
  <circle class="cls-1" cx="483.39" cy="441.5" r="6.75"/>
  <line class="cls-6" x1="476.64" y1="434.75" x2="490.14" y2="434.75"/>
  <polygon class="cls-3" points="480.78 495.25 483.39 482 486.01 495.25 480.78 495.25"/>
  <polygon class="cls-1" points="480.78 495.25 483.39 482 486.01 495.25 480.78 495.25"/>
  <path class="cls-8" d="M969.56,202.24c0,20.78-17.8,49.63-39.75,49.63S890.06,223,890.06,202.24s17.8-37.62,39.75-37.62S969.56,181.46,969.56,202.24Z" transform="translate(0 -136.57)"/>
  <rect class="cls-3" x="917.81" y="112.41" width="23.37" height="10.89" rx="1.81" ry="1.81"/>
  <rect class="cls-8" x="917.81" y="112.41" width="23.37" height="10.89" rx="1.81" ry="1.81"/>
  <rect class="cls-3" x="919.44" y="133.32" width="20.12" height="14.89" rx="1.81" ry="1.81"/>
  <rect class="cls-1" x="919.44" y="133.32" width="20.12" height="14.89" rx="1.81" ry="1.81"/>
  <rect class="cls-3" x="919.44" y="133.32" width="20.12" height="14.89" rx="1.81" ry="1.81"/>
  <rect class="cls-8" x="919.44" y="133.32" width="20.12" height="14.89" rx="1.81" ry="1.81"/>
  <rect class="cls-3" x="914.33" y="138.07" width="30.33" height="5.39" rx="1.81" ry="1.81"/>
  <rect class="cls-1" x="914.33" y="138.07" width="30.33" height="5.39" rx="1.81" ry="1.81"/>
  <path class="cls-4" d="M922.89,248.78s-47-57.48,4.15-84.07" transform="translate(0 -136.57)"/>
  <path class="cls-4" d="M936.23,248.78s47-57.48-4.15-84.07" transform="translate(0 -136.57)"/>
  <path class="cls-4" d="M927,247.78s-24.61-60,2.45-82.83" transform="translate(0 -136.57)"/>
  <path class="cls-4" d="M932.08,247.78s24.61-60-2.45-82.83" transform="translate(0 -136.57)"/>
  <line class="cls-4" x1="920.5" y1="123.29" x2="924.75" y2="133.32"/>
  <line class="cls-4" x1="938.62" y1="123.29" x2="934.37" y2="133.32"/>
  <g>
    <rect class="cls-3" x="105.99" y="280.25" width="42.17" height="32.27" rx="1.5" ry="1.5"/>
    <rect class="cls-1" x="105.99" y="280.25" width="42.17" height="32.27" rx="1.5" ry="1.5"/>
    <path class="cls-3" d="M70.06,631.44V457.68c0-.71,1.85-1.3,4.11-1.3H427.11c2.26,0,4.11.58,4.11,1.3V631.44" transform="translate(0 -136.57)"/>
    <path class="cls-1" d="M70.06,631.44V457.68c0-.71,1.85-1.3,4.11-1.3H427.11c2.26,0,4.11.58,4.11,1.3V631.44" transform="translate(0 -136.57)"/>
    <path class="cls-1" d="M354.07,619.07v-5.72a1.51,1.51,0,0,1,1.65-1.28h25.1a1.51,1.51,0,0,1,1.65,1.28v5.72" transform="translate(0 -136.57)"/>
    <rect class="cls-1" x="107.18" y="352.88" width="42.17" height="38.31" rx="1.5" ry="1.5"/>
    <line class="cls-4" x1="128.26" y1="352.88" x2="128.26" y2="391.2"/>
    <rect class="cls-5" x="102.96" y="389.7" width="50.6" height="8.69" rx="1.5" ry="1.5"/>
    <rect class="cls-3" x="102.96" y="385.7" width="50.6" height="8.69" rx="1.5" ry="1.5"/>
    <rect class="cls-1" x="102.96" y="385.7" width="50.6" height="8.69" rx="1.5" ry="1.5"/>
    <rect class="cls-1" x="167.18" y="352.88" width="42.17" height="38.31" rx="1.5" ry="1.5"/>
    <line class="cls-4" x1="188.27" y1="352.88" x2="188.27" y2="391.2"/>
    <line class="cls-4" x1="209.35" y1="370.04" x2="167.18" y2="370.04"/>
    <line class="cls-4" x1="149.34" y1="370.04" x2="107.18" y2="370.04"/>
    <line class="cls-4" x1="148.41" y1="310.61" x2="107.39" y2="285.02"/>
    <line class="cls-4" x1="329.36" y1="370.04" x2="287.19" y2="370.04"/>
    <line class="cls-4" x1="269.35" y1="370.04" x2="227.19" y2="370.04"/>
    <rect class="cls-5" x="162.97" y="389.7" width="50.6" height="8.69" rx="1.5" ry="1.5"/>
    <rect class="cls-3" x="162.97" y="385.7" width="50.6" height="8.69" rx="1.5" ry="1.5"/>
    <rect class="cls-1" x="162.97" y="385.7" width="50.6" height="8.69" rx="1.5" ry="1.5"/>
    <rect class="cls-1" x="227.19" y="352.88" width="42.17" height="38.31" rx="1.5" ry="1.5"/>
    <line class="cls-4" x1="248.27" y1="352.88" x2="248.27" y2="391.2"/>
    <rect class="cls-5" x="222.97" y="389.7" width="50.6" height="8.69" rx="1.5" ry="1.5"/>
    <rect class="cls-3" x="222.97" y="385.7" width="50.6" height="8.69" rx="1.5" ry="1.5"/>
    <rect class="cls-1" x="222.97" y="385.7" width="50.6" height="8.69" rx="1.5" ry="1.5"/>
    <rect class="cls-1" x="287.19" y="352.88" width="42.17" height="38.31" rx="1.5" ry="1.5"/>
    <line class="cls-4" x1="308.28" y1="352.88" x2="308.28" y2="391.2"/>
    <rect class="cls-5" x="282.98" y="389.7" width="50.6" height="8.69" rx="1.5" ry="1.5"/>
    <rect class="cls-3" x="282.98" y="385.7" width="50.6" height="8.69" rx="1.5" ry="1.5"/>
    <rect class="cls-1" x="282.98" y="385.7" width="50.6" height="8.69" rx="1.5" ry="1.5"/>
    <rect class="cls-1" x="107.18" y="413.89" width="42.17" height="38.31" rx="1.5" ry="1.5"/>
    <line class="cls-4" x1="128.26" y1="413.89" x2="128.26" y2="452.2"/>
    <rect class="cls-5" x="102.96" y="450.7" width="50.6" height="8.69" rx="1.5" ry="1.5"/>
    <rect class="cls-3" x="102.96" y="446.7" width="50.6" height="8.69" rx="1.5" ry="1.5"/>
    <rect class="cls-1" x="102.96" y="446.7" width="50.6" height="8.69" rx="1.5" ry="1.5"/>
    <rect class="cls-1" x="167.18" y="413.89" width="42.17" height="38.31" rx="1.5" ry="1.5"/>
    <line class="cls-4" x1="188.27" y1="413.89" x2="188.27" y2="452.2"/>
    <line class="cls-4" x1="209.35" y1="431.04" x2="167.18" y2="431.04"/>
    <line class="cls-4" x1="149.34" y1="431.04" x2="107.18" y2="431.04"/>
    <line class="cls-4" x1="329.36" y1="431.04" x2="287.19" y2="431.04"/>
    <line class="cls-4" x1="269.35" y1="431.04" x2="227.19" y2="431.04"/>
    <rect class="cls-5" x="162.97" y="450.7" width="50.6" height="8.69" rx="1.5" ry="1.5"/>
    <rect class="cls-3" x="162.97" y="446.7" width="50.6" height="8.69" rx="1.5" ry="1.5"/>
    <rect class="cls-1" x="162.97" y="446.7" width="50.6" height="8.69" rx="1.5" ry="1.5"/>
    <rect class="cls-1" x="227.19" y="413.89" width="42.17" height="38.31" rx="1.5" ry="1.5"/>
    <line class="cls-4" x1="248.27" y1="413.89" x2="248.27" y2="452.2"/>
    <rect class="cls-5" x="222.97" y="450.7" width="50.6" height="8.69" rx="1.5" ry="1.5"/>
    <rect class="cls-3" x="222.97" y="446.7" width="50.6" height="8.69" rx="1.5" ry="1.5"/>
    <rect class="cls-1" x="222.97" y="446.7" width="50.6" height="8.69" rx="1.5" ry="1.5"/>
    <rect class="cls-1" x="287.19" y="413.89" width="42.17" height="38.31" rx="1.5" ry="1.5"/>
    <line class="cls-4" x1="308.28" y1="413.89" x2="308.28" y2="452.2"/>
    <rect class="cls-5" x="282.98" y="450.7" width="50.6" height="8.69" rx="1.5" ry="1.5"/>
    <rect class="cls-3" x="282.98" y="446.7" width="50.6" height="8.69" rx="1.5" ry="1.5"/>
    <rect class="cls-1" x="282.98" y="446.7" width="50.6" height="8.69" rx="1.5" ry="1.5"/>
    <line class="cls-4" x1="389.36" y1="370.04" x2="347.19" y2="370.04"/>
    <rect class="cls-1" x="347.19" y="352.88" width="42.17" height="38.31" rx="1.5" ry="1.5"/>
    <line class="cls-4" x1="368.28" y1="352.88" x2="368.28" y2="391.2"/>
    <rect class="cls-5" x="342.98" y="389.7" width="50.6" height="8.69" rx="1.5" ry="1.5"/>
    <rect class="cls-3" x="342.98" y="385.7" width="50.6" height="8.69" rx="1.5" ry="1.5"/>
    <rect class="cls-1" x="342.98" y="385.7" width="50.6" height="8.69" rx="1.5" ry="1.5"/>
    <rect class="cls-1" x="347.19" y="413.89" width="42.17" height="68.92" rx="1.5" ry="1.5"/>
    <line class="cls-4" x1="368.28" y1="413.89" x2="368.28" y2="475.5"/>
    <path class="cls-1" d="M431.23,524.84h29.42a1.5,1.5,0,0,0,1.5-1.5v-4.42a1.5,1.5,0,0,0-1.5-1.5H432.23" transform="translate(0 -136.57)"/>
    <line class="cls-6" x1="431.23" y1="366.22" x2="457.61" y2="366.22"/>
    <line class="cls-6" x1="457.92" y1="379.91" x2="457.92" y2="363.47"/>
    <line class="cls-6" x1="447.92" y1="379.91" x2="447.92" y2="363.47"/>
    <line class="cls-6" x1="436.92" y1="379.91" x2="436.92" y2="363.47"/>
    <path class="cls-1" d="M431.23,586.84h29.42a1.5,1.5,0,0,0,1.5-1.5v-4.42a1.5,1.5,0,0,0-1.5-1.5H432.23" transform="translate(0 -136.57)"/>
    <line class="cls-6" x1="431.23" y1="428.23" x2="457.61" y2="428.23"/>
    <line class="cls-6" x1="457.92" y1="441.91" x2="457.92" y2="425.48"/>
    <line class="cls-6" x1="447.92" y1="441.91" x2="447.92" y2="425.48"/>
    <line class="cls-6" x1="436.92" y1="441.91" x2="436.92" y2="425.48"/>
    <line class="cls-6" x1="302.23" y1="312.8" x2="302.23" y2="299.63"/>
    <line class="cls-6" x1="291.56" y1="299.63" x2="312.9" y2="299.63"/>
    <line class="cls-6" x1="291.56" y1="293.63" x2="312.9" y2="293.63"/>
    <line class="cls-6" x1="296.23" y1="293.63" x2="296.23" y2="285.97"/>
    <line class="cls-6" x1="308.23" y1="293.63" x2="308.23" y2="285.97"/>
    <line class="cls-6" x1="302.23" y1="299.63" x2="302.23" y2="294.3"/>
    <polyline class="cls-7" points="393.57 312.8 393.57 306.93 398.7 306.93 398.7 312.18"/>
    <rect class="cls-7" x="389.78" y="301.74" width="12.71" height="5.19" rx="0.81" ry="0.81"/>
    <rect class="cls-5" x="64.89" y="321.95" width="372.85" height="11.04" rx="1.79" ry="1.79"/>
    <rect class="cls-3" x="64.89" y="312.8" width="372.85" height="16.41" rx="1.79" ry="1.79"/>
    <rect class="cls-1" x="64.89" y="312.8" width="372.85" height="16.41" rx="1.79" ry="1.79"/>
    <rect class="cls-3" x="64.89" y="482.81" width="372.85" height="12.24" rx="1.79" ry="1.79"/>
    <rect class="cls-1" x="64.89" y="482.81" width="372.85" height="12.24" rx="1.79" ry="1.79"/>
    <polygon class="cls-3" points="96.86 283.3 101.2 286.89 126.95 281.3 154.28 287.39 157.28 283.3 127.07 272.3 96.86 283.3"/>
    <polygon class="cls-1" points="96.86 283.3 101.2 286.89 126.95 280.3 154.28 287.39 157.28 283.3 127.07 272.3 96.86 283.3"/>
    <line class="cls-4" x1="352.65" y1="447.7" x2="358.9" y2="447.7"/>
    <line class="cls-4" x1="377.65" y1="447.7" x2="383.9" y2="447.7"/>
  </g>
</svg>
