<svg id="Шар_1" data-name="Шар 1" xmlns="http://www.w3.org/2000/svg" viewBox="0 0 119.48 136.41"><defs><style>.cls-1{fill:#fff;}.cls-2{fill:#e8e8e8;}.cls-3,.cls-4{fill:none;stroke:#0a1239;stroke-width:2px;}.cls-3{stroke-linecap:round;stroke-linejoin:round;}.cls-4{stroke-miterlimit:10;}.cls-5{fill:#0a1239;}</style></defs><title>user-2</title><path class="cls-1" d="M351.83,112.71c3.15,3.06,4.6,4.67,5.28,9,0.62,4,2.27,9,1.13,12.89-0.82,2.81-3.38,4.92-2.92,8.1,0.32,2.24,1.8,3.41,3.79,4.17a2.5,2.5,0,0,0,3.08-1.75,35.19,35.19,0,0,1,.93-4.53l-4.57.6,1.45,2.1c1.54,2.23,5.4.94,4.57-1.93a8.78,8.78,0,0,1-.56-3.5l-4.66,1.26a10.58,10.58,0,0,1,1.56,2.48c1.18,2.21,4.68,1.17,4.66-1.26v-1.65l-4.91.66c1.63,4.23.84,9.45,0.61,13.9l4.27-1.77a23.53,23.53,0,0,1-5.1-6.59c-1.38-2.62-5.1-.73-4.57,1.93a44.92,44.92,0,0,0,2.56,8.45c1,2.44,4.91,2.38,4.91-.66a9.41,9.41,0,0,1,.41-3.57,2.53,2.53,0,0,0-2.41-3.16,20.79,20.79,0,0,0-5.32,1,3,3,0,0,0-1.28.77,2.5,2.5,0,0,0-1.1-.64,11,11,0,0,0-3.59.05,2.5,2.5,0,0,0-1.1.64,3.3,3.3,0,0,0,2.92-2.71c1-2.5-2.5-3.93-4.18-2.43L346,146.16l4.18,2.43,0.06-.41-1.75,1.75,0.47-.11-2.82-1.15,0.5,0.86c1.34,2.3,4.42,1.08,4.66-1.26a14.12,14.12,0,0,1,.94-4.19c0.92-2.82-3-4.17-4.57-1.93a7.45,7.45,0,0,0-1.43,3.23l4.91,0.66,0.08-.05-4.66-1.26a8.46,8.46,0,0,1-1.93,6.35l4.18,1.1,0.31-1.34-3.93-3c-1.53,2.85-3,5.79-4.61,8.56-1.78,3-4.34,4.71-6.5,7.33l4.18,2.43a2.9,2.9,0,0,0-3-3.85l1.77,4.27,8.62-9.18c1.86-2-.61-5.62-3-3.93l-1.08.76,3.42,3.42c0.45-.94,1-1.86,1.43-2.82q1.32-.88.57-1.76t0.56,0.1c2,0.26,5.44,3.36,7.17,4.43,4.85,3,9.69,6,14.43,9.15,2.69,1.79,5.19-2.54,2.52-4.32-7-4.69-14.24-9.41-21.61-13.58-5.26-3-7.26,1.82-9.4,6.28-1,2,1.18,5,3.42,3.42l1.08-.76-3-3.93L333.51,163c-1.35,1.44-.51,4.49,1.77,4.27l-1.09-.42-0.64-2.43-0.12.37c-0.75,2.29,2.58,4.37,4.18,2.43,2-2.45,4.64-4.14,6.4-6.85,2.06-3.17,3.7-6.72,5.49-10.05,1.27-2.37-2.11-5.36-3.93-3a6.73,6.73,0,0,0-1.6,6.21,2.51,2.51,0,0,0,4.18,1.1,13.9,13.9,0,0,0,3.4-9.88,2.52,2.52,0,0,0-4.66-1.26,4,4,0,0,0-.77,2.57c-0.05,2.81,4.21,3.41,4.91.66l0.93-2-4.57-1.93a25.81,25.81,0,0,0-1.12,5.52l4.66-1.26-0.5-.86A2.56,2.56,0,0,0,347.6,145l-0.47.11a2.43,2.43,0,0,0-1.75,1.75l-0.06.41c-0.36,2.42,2.2,4.21,4.18,2.43l1.72-1.54L347,145.72c-1.25,3.12-1.81,9.45,3.32,8.88,0.32,0,1.67-.88,1.32-0.87,0.44,0,1.12.91,1.64,1,2.84,0.55,5.13-1.83,8-1.84l-2.41-3.16a20.11,20.11,0,0,0-.59,4.9l4.91-.66a44.92,44.92,0,0,1-2.56-8.45l-4.57,1.93a27.16,27.16,0,0,0,5.88,7.6,2.53,2.53,0,0,0,4.27-1.77c0.25-4.93,1-10.52-.79-15.23-1-2.49-4.93-2.34-4.91.66v1.65l4.66-1.26a10.58,10.58,0,0,0-1.56-2.48c-1.36-1.86-4.74-1.43-4.66,1.26a18.63,18.63,0,0,0,.74,4.83l4.57-1.93-1.45-2.1a2.53,2.53,0,0,0-4.57.6,35.19,35.19,0,0,0-.93,4.53l3.08-1.75c0.49,0.19,3.16-7,3.23-8.26,0.19-3.19-.71-6.62-1.19-9.75-0.42-2.76-.48-5.94-1.61-8.51s-3.51-4.42-5.51-6.38c-2.31-2.24-5.85,1.29-3.54,3.54h0Z" transform="translate(-256.6 -74.28)"/><path class="cls-1" d="M274.81,160.17a38,38,0,0,0,3,10.35c1.3,2.94,5.61.39,4.32-2.52a33.78,33.78,0,0,1-2.51-9.16c-0.18-1.35-1.9-2.06-3.08-1.75a2.56,2.56,0,0,0-1.75,3.08h0Z" transform="translate(-256.6 -74.28)"/><path class="cls-1" d="M280.24,164.91a17,17,0,0,0,2.86,5.12,2.52,2.52,0,0,0,3.54,0,2.56,2.56,0,0,0,0-3.54l-0.1-.14-0.31-.45q-0.26-.4-0.49-0.81c-0.15-.28-0.3-0.56-0.43-0.85q0.1,0.28-.06-0.15-0.1-.25-0.18-0.51a2.5,2.5,0,1,0-4.82,1.33h0Z" transform="translate(-256.6 -74.28)"/><path class="cls-2" d="M43.71,104H76.79a21.33,21.33,0,0,1,21.33,21.33v10a0,0,0,0,1,0,0H22.38a0,0,0,0,1,0,0v-10A21.33,21.33,0,0,1,43.71,104Z"/><path class="cls-3" d="M43.71,104H76.79a21.33,21.33,0,0,1,21.33,21.33v10a0,0,0,0,1,0,0H22.38a0,0,0,0,1,0,0v-10A21.33,21.33,0,0,1,43.71,104Z"/><rect class="cls-1" x="49.76" y="78.51" width="21.71" height="35.97" rx="10.85" ry="10.85"/><rect class="cls-3" x="49.76" y="78.51" width="21.71" height="35.97" rx="10.85" ry="10.85"/><path class="cls-1" d="M317.21,169.13h0c-16.56,0-30-23.13-30-32.78V100.13c0-5,3.64-9.1,8.09-9.1H339.1c4.45,0,8.09,4.09,8.09,9.1v36.22C347.19,146,333.77,169.13,317.21,169.13Z" transform="translate(-256.6 -74.28)"/><path class="cls-3" d="M313.25,120.68s-7.86-4.29-12.72-2.51" transform="translate(-256.6 -74.28)"/><path class="cls-1" d="M275.14,147.61a33.12,33.12,0,0,0,4.63,6.62c4.3,4.9,10.85-.5,9.95-5.79-0.47-2.75-1.28-5.32-1.91-8-0.58-2.49-.33-5.08-0.3-7.62,0.06-6.5-10.65-8.37-11.69-1.58-1.41,9.15.85,20.42,6.17,28.09,3.18,4.59,11.23,3.28,11.09-3a9.57,9.57,0,0,0-.65-3.67c-2.84-6.9-14.12-4.18-11.48,3.17,1.14,3.16,2.87,5.06,4.91,7.67,1.7,2.17,2.41,4.7,4.84,6.26,3.07,2,8,.14,8.75-3.56,0.94-4.7-1.25-11.36-6.46-12.43-6.84-1.4-10.54,7.11-6.76,12.2,4.52,6.08,14.86.15,10.28-6l-0.89,3.76-5.79,1.53q-2.83-3.52-2.15-1.45,0.25,1.32.29-.77l8.75-3.56c2.92,1.88-.36-1.77-1-2.62-1-1.32-2.73-2.62-3.29-4.19l-11.48,3.17,0.22,0.51,11.09-3c-3.36-4.86-5.88-13-5-18.92l-11.69-1.58c0,3.11-.28,6.3.35,9.37s1.74,6.2,2.29,9.43l9.95-5.79a19.85,19.85,0,0,1-2.77-4.21c-3.53-6.8-13.81-.79-10.28,6h0Z" transform="translate(-256.6 -74.28)"/><path class="cls-1" d="M345.27,123.06l4.81,7.9c3.25,5.34,10.56,2.68,11.09-3,0.42-4.45-.52-8.73-1.66-13L348,118.1a54.24,54.24,0,0,1,4,22.16L362.21,136c-2.8-3.39-1-8.18-5.31-10.57a6,6,0,0,0-9,5.14c0,3.8-.64,7.56-0.77,11.35-0.14,4,.61,8.66-1.11,12.49-2.68,6-10,7-11.48,14.09-0.75,3.53.82,6.29,1,9.65s-3,6.17-4.31,9.14c-1.14,2.64-1.55,5.52-.05,8.15a8.84,8.84,0,0,0,1.67,2c3.24,3,0-.34.15-1.55l1.74-4.21c-2,2.5-3.82,4.47-2.62,7.95s4.51,4.91,8,5a19.34,19.34,0,0,0,8.86-1.93c4.2-2.19,3.62-5.8,4.35-9.76l-10.88,1.42c3.06,4,4.19,10.72,10.68,9.81,0.24,0,3.05-.75,3-1q-3.29-.71-1.58.18,0.78,0.46,1.5,1c2.22,1.3,4.07,2,6.67,1.36a5.93,5.93,0,0,0,4.16-4.16c0.75-2.79,0-6.55-.55-9.36-0.66-3.6-2.94-6.39-3.16-10.11-0.2-3.41.48-6.83,0.56-10.23a34.58,34.58,0,0,0-.24-5.09,30.78,30.78,0,0,0-.49-3.09q0.23-2.42-.83-0.8h-6c1.75,0.85,2.63,2.93,3.43,4.56l-0.6-4.59c-1.83,5.66-1.44,12-1.48,17.89,0,6.36.12,12.71,0.42,19.06l10.16-4.21c-2.7-2.85-5.7-5.59-9.58-6.67-1.65-.46-5,0.07-6.36-0.84-1.6-1.07-.65-2.66-1.6-1.1L347,189.8c1.5-.59,3.61-0.51,5.26-1.71,2-1.46,3-3.72,3.74-6,1.69-5,1.66-10.33,3.29-15.31,2.39-7.3-9.1-10.42-11.48-3.17a48.82,48.82,0,0,0-1.64,7.48c-0.14.88-2,7.39-1.65,7.83,0,0,4.57-1.68.8-1a8.38,8.38,0,0,0-2.9,1,7.82,7.82,0,0,0-3.41,6.42,14.23,14.23,0,0,0,6.24,12.56,15.48,15.48,0,0,0,6.91,2.25c3.62,0.45,5,1.25,7.53,3.94,3.46,3.65,10.41.94,10.16-4.21-0.48-10.05-1.68-21.28,0-31.24,0.39-2.36,1.17-4,.36-6.42a18.14,18.14,0,0,0-3.27-5.39c-2.71-3.32-6.33-6.24-10.74-4.16-8.12,3.84-4,14.22-4.42,21-0.29,4.76-.92,9.48.28,14.19,0.55,2.17,1.78,4.06,2.39,6.18a29,29,0,0,1,.55,3.61c0.2,1.21-.13,2.93.43,0.84l4.16-4.16-0.48.11,4.59,0.6c-2.11-.9-3.78-2.61-6-3.24a9.52,9.52,0,0,0-4.25-.09c-0.76.16-3.51,0.42-1.68,0.65l4.21,1.74c-1.28-1.49-1.87-4-3.15-5.68-2.74-3.57-9.85-4.21-10.88,1.42-0.33,1.77-.13,4.1-0.82,5.74l2.74-3.56c-0.42.24-3,.85-2.89,0.93l2.74,3.56-0.22-.57-0.6,4.59c1.36-2.18,3.1-4.92,1.39-8.33a8.25,8.25,0,0,0-1.52-2.16c-4.19-4.15,0,2.12-.63,2.19,1.54-.18,4.64-8,5.06-9.64a15,15,0,0,0,.2-6.09c-0.22-1.46-1.22-3.47-1.06-4.92,0.27-2.47,4.72-4.27,6.45-6a21.4,21.4,0,0,0,5.32-9.46c1.14-4.13,1-8.37,1-12.61s0.74-8.57.79-12.88l-9,5.14,0.44,0.24-2.95-5.14c0.5,5.72,1.65,9,5.41,13.6,3.47,4.2,10,.55,10.16-4.21a62.84,62.84,0,0,0-4.43-25.32C356.74,108,346,110.49,348,118.1a27.19,27.19,0,0,1,1.23,9.85l11.09-3-4.81-7.9c-4-6.54-14.28-.56-10.28,6h0Z" transform="translate(-256.6 -74.28)"/><path class="cls-4" d="M317.21,168.13h0c-16.56,0-30-22.13-30-31.78V100.13c0-5,3.64-9.1,8.09-9.1H339.1c4.45,0,8.09,4.09,8.09,9.1v36.22C347.19,146,333.77,168.13,317.21,168.13Z" transform="translate(-256.6 -74.28)"/><path class="cls-3" d="M320.77,140a5.33,5.33,0,0,1-7.58,0" transform="translate(-256.6 -74.28)"/><circle class="cls-5" cx="47.53" cy="52.99" r="2.81"/><circle class="cls-5" cx="73.22" cy="52.99" r="2.81"/><path class="cls-3" d="M322.38,128.27c1.16-2.07,4-3.53,7.43-3.53s6.28,1.47,7.43,3.53" transform="translate(-256.6 -74.28)"/><path class="cls-3" d="M296.38,128.27c1.16-2.07,4-3.53,7.43-3.53s6.28,1.47,7.43,3.53" transform="translate(-256.6 -74.28)"/><path class="cls-1" d="M288.06,125.17a13.5,13.5,0,0,1,.92-5.59c3-7-7.19-13.15-10.36-6.06l-1.78,4c-2.22,5,2.68,11.84,8.21,8.21,2.48-1.63,5.36-2.42,8-3.78l-9-5.18,0.8-2.16,4.24-1.76-0.37,0,5.79,4.4-0.09-.34-0.6,4.62c1.13-2.09,5.63-3,7.54-4.14a27.31,27.31,0,0,0,7-6.74c3.81-4.95,6.35-10.65,9.58-16,2.53-4.17-.83-8.65-5.18-9-7.11-.61-12.37,3.39-16.25,9-2.16,3.11-4.78,10.7-9.23,11.12l6,6c-0.54-12.49,11.49-20.49,23-20.64,7.22-.09,7.56-9.33,1.6-11.79s-12.19-2-18.11.69c-5.53,2.46-2.64,11.4,3,11.18,9.63-.37,20.29-1.17,29.23,3.17,7.87,3.83,10.95,12.18,11.81,20.43,0.79,7.6,12.8,7.69,12,0-1.18-11.38-5-22.7-15.05-29.26-11.07-7.26-25.32-6.82-38-6.33l3,11.18c3-1.33,6-.67,8.86.52l1.6-11.79c-17.84.23-35.84,13.55-35,32.64,0.13,3,2.65,6.32,6,6,7.22-.68,11.78-4.75,15.6-10.65,2.53-3.91,4.42-9.91,9.88-9.44l-5.18-9c-3.53,5.82-6.19,13.66-11.73,17.92-4.69,3.62-15.12,5.6-13,13.89a6.07,6.07,0,0,0,5.79,4.4c4.75-.22,6.88-3.78,7.33-8.1,0.5-4.83-5.38-7.06-9-5.18-2.64,1.36-5.49,2.13-8,3.78l8.21,8.21,1.78-4-10.36-6.06a28,28,0,0,0-2.55,11.64c0,7.72,12,7.74,12,0h0Z" transform="translate(-256.6 -74.28)"/><path class="cls-1" d="M271.65,176.31l-1.43,2.79,11.18,3a125.26,125.26,0,0,1,1.84-17.67l-11.79-1.6c-0.7,12-6,23.84-2.36,35.84,1.44,4.77,5.32,9,10.63,6.3,0.6-.31,1.06-0.89,1.65-1.16,2.22-1-.28,0,0.17,0,3.11,0.19,5.58,1.7,8.88,1.26,4.32-.58,8.91-2.41,10.52-6.78,1.5-4.06-.21-9.13-3.55-11.79-7.7-6.13-18.19,1.71-18.18,10.42h12a5.64,5.64,0,0,1,0-2.38l-11.79,1.6-0.2.79L291,195.4c-0.52-3.33-1.05-6.65-1.64-10-0.05-.29-0.74-6.79-1.11-7l-3.81,2q0.21,0.3.41,0.6a9.66,9.66,0,0,0,1.33,2.2,44.46,44.46,0,0,0,3.47,5.36c2.65,3.41,9.36,1.57,10-2.65a15.49,15.49,0,0,0-.57-8.26c-0.85-2.33-2.6-4.47-2.9-7s0.66-5.32.4-8a14,14,0,0,0-3.48-7.75l-7.27,9.42-0.09-.52,8.81-6.78c-5.85-2.61-8.05-8.34-10.13-14-1.91-5.23-10.07-6.16-11.57,0L271.47,149l11-1.43c-1.57-2.79-4.18-7.8-.78-9.36l-7.27-9.42a24,24,0,0,0-5.47,14.76c-0.11,2.45.13,4.89,0.16,7.34a16,16,0,0,0,0,2.39c0.49,2.8-2.17-.43,1.19-0.24l5.18,9q4.75-7.87,8.95-16c3.52-6.86-6.83-12.94-10.36-6.06q-4.2,8.18-8.95,16c-2.47,4.08.77,8.78,5.18,9,6.18,0.35,9.8-4.25,10.6-9.94s-1.82-13,2-17.83c4.28-5.35-.9-12.36-7.27-9.42-10.43,4.8-8.12,17.61-3.52,25.78,2.49,4.43,9.74,3.58,11-1.43l1.43-5.84H272.9c3.08,8.44,6.93,17.3,15.64,21.2,4.14,1.85,11-1.35,8.81-6.78-1.2-3-2.55-5-5.42-6.66-6.29-3.6-11.31,4.33-7.27,9.42,0.62,0.79-.18,3.66-0.26,4.58a19.09,19.09,0,0,0,.13,5.55c0.52,2.56,4,6.7,3.59,9.14l10-2.65c-2.1-2.71-3.05-6.1-5.67-8.54a9.73,9.73,0,0,0-12.25-1.19c-3.68,2.56-4.24,6.89-3.7,11,0.75,5.75,2,11.45,2.92,17.19,0.46,2.94,3.93,4.66,6.58,4.3,3.19-.43,4.82-2.88,5.2-5.89a14.18,14.18,0,0,0-.23-4c-1-7.18-11.18-4.58-11.79,1.6a5.64,5.64,0,0,0,0,2.38c0.86,7.47,12,7.92,12,0,0,0.4,0-.87.19-0.45-0.05-.11-1.46-0.31-1.8-0.78q2.94-3.78,1.11-3a6.09,6.09,0,0,1-1.39.4,20.24,20.24,0,0,1-3-.36c-2.5-.6-4.69-1.59-7.31-1.05-0.85.17-4.83,1.51-4.91,2.6a4,4,0,0,1,3.28.56q4.52,2.32,2.82-1.11c0.26-1.18-.39-3.1-0.4-4.35a47.31,47.31,0,0,1,.88-8.74c1.07-6,2.39-11.83,2.74-17.88,0.39-6.66-10.59-8.3-11.79-1.6a148.19,148.19,0,0,0-2.27,20.86c-0.21,5.83,8.47,8.34,11.18,3l1.43-2.79c3.5-6.87-6.85-12.95-10.36-6.06h0Z" transform="translate(-256.6 -74.28)"/><path class="cls-1" d="M295.72,81.24c-0.85.59-1.67,1.23-2.48,1.87l-0.93,1.2-0.6,1.42-0.21,1.58a4.48,4.48,0,0,0,.51,2.29A5.9,5.9,0,0,0,293.84,92a5.83,5.83,0,0,0,3.61,1.28,3.89,3.89,0,0,1,.55,0l-1.58-.21,0.18,0a6.35,6.35,0,0,0,4.59-.6,6,6,0,0,0,2.14-8.15,5.92,5.92,0,0,0-3.56-2.74,11.41,11.41,0,0,0-2.31-.28l4.21,10.16,0.14-.11-1.2.93q0.56-.43,1.14-0.83A6.37,6.37,0,0,0,304.46,88a6.08,6.08,0,0,0-.6-4.59,6,6,0,0,0-3.56-2.74,5.91,5.91,0,0,0-4.59.6h0Z" transform="translate(-256.6 -74.28)"/><path class="cls-1" d="M284,93.39c-1.77,3.33-2.19,7-3.67,10.35-0.66,1.5-1.77,2.69-2.32,4.26a22.47,22.47,0,0,0-.64,4.31c-0.61,4-3.42,7.61-5,11.31-1.33,3.22-3.36,6.17-5,9.29-3.51,6.8,6.76,12.83,10.28,6s7.85-13.5,10.41-20.78c0.69-2,.68-3.84,1.13-5.83q0.08-2-.15-0.13a11.24,11.24,0,0,0,1.1-1.72c2-3.49,2.19-7.57,4-11.06,3.6-6.76-6.68-12.78-10.28-6h0Z" transform="translate(-256.6 -74.28)"/><path class="cls-1" d="M323.25,87.08l0-.12v3.17l0-.12-1.53,2.63,0.09-.11-1.2.93a3.53,3.53,0,0,1,.72-0.39l-1.42.6a5.22,5.22,0,0,1,.82-0.24,6,6,0,0,0,1.42-10.88,6.54,6.54,0,0,0-4.59-.6,8.8,8.8,0,0,0-2.77,1.1,7.15,7.15,0,0,0-2.42,2.37,8.53,8.53,0,0,0-.65,1.54,6.64,6.64,0,0,0,0,3.29,6,6,0,0,0,2.74,3.56,6,6,0,0,0,8.15-2.14l0.6-1.42a6,6,0,0,0,0-3.17h0Z" transform="translate(-256.6 -74.28)"/><path class="cls-1" d="M331.48,86.27l3,1.27A2.56,2.56,0,0,0,338.12,86c1.18-3.32-3.26-4.73-5.64-5.17l-1.33,4.82c2.58,0.42,4.73.23,6.94,1.84a12.88,12.88,0,0,1,4.83,6.31c1.13,3,6,1.69,4.82-1.33a17.83,17.83,0,0,0-6-8.47,14.84,14.84,0,0,0-3.91-2.38c-1.76-.67-3.5-0.5-5.32-0.8-3.13-.51-4.52,4.23-1.33,4.82,0.26,0,2.35.34,2.51,0.63l-0.25-1.93-0.11.32L337,83.22l-3-1.27c-2.93-1.25-5.48,3.05-2.52,4.32h0Z" transform="translate(-256.6 -74.28)"/><path class="cls-1" d="M345.65,120.89a9.78,9.78,0,0,1,1.05,1.88l-0.6-1.42c0.12,0.3.23,0.61,0.32,0.93a6.22,6.22,0,0,0,2.74,3.56,6,6,0,0,0,8.75-6.72,14.43,14.43,0,0,0-2-4.23,6.42,6.42,0,0,0-3.56-2.74,6.08,6.08,0,0,0-4.59.6,6,6,0,0,0-2.74,3.56,5.85,5.85,0,0,0,.6,4.59h0Z" transform="translate(-256.6 -74.28)"/><path class="cls-1" d="M269.22,167.53a10.63,10.63,0,0,1,2,4.37V168a42.68,42.68,0,0,1,0,4.66c0.27-2.08.75-5.81-.5-7.63-0.42-.62-1.13-1.37-1.89-0.89s0.08,2.26-.67.49a12.62,12.62,0,0,0-.46-1.69,2.83,2.83,0,0,0-.61.94,3.72,3.72,0,0,1-.55-1.18q0.17-.85-0.6-0.7V162a1.45,1.45,0,0,1-.38.83v5a2.31,2.31,0,0,1,.4-1v-5c0.42-.79-0.74,1.58-0.77.87v-0.09a14.34,14.34,0,0,0,.65,8.24,8.73,8.73,0,0,0,.54,1.75q0.1,0.89.21,0a3.2,3.2,0,0,0,.15-0.88c0.06-.48.06-0.95,0.07-1.43,0-1.61,0-3.22,0-4.82,0,1.19-.06,3.31,0,4.82a15.67,15.67,0,0,0,.29,2.58,25.62,25.62,0,0,1,0-4.27c0-3.74.06,3.88,0.13,5.07v-4.91l-0.66-3.28v5c0.29,0.28.54,0.69,0.85,0.93,0.57,0.45.26,0.65,0.42-.31a10.15,10.15,0,0,0,0-1.54,17.89,17.89,0,0,0-.22-4.3c0.37,1.56-.28,3.4,0,5l0.6,3.46v-0.09c0.08-1.25.54-10.15-2.12-8.54-0.31.19,0.1,5,0,5,0.93,0.09,3.21-.15,3.4,1v-5a2.18,2.18,0,0,1-1.66.57s-0.15,5,0,5a20.9,20.9,0,0,0,2.27.28v-5l-2.58.14c0.09,0-.26,4.9,0,5a11.24,11.24,0,0,0,4.29.8s0-5,0-5h-2.71c0.1,0-.23,4.94,0,5l0.5,0.12v-5a6,6,0,0,0-2.08.26,30.43,30.43,0,0,0,0,5,2.71,2.71,0,0,0,1.27.51v-5a2,2,0,0,1-1.24.29c0.08,0-.27,4.71,0,5a0.78,0.78,0,0,0,.8.45v-5h-1.59s0,5,0,5h2.06c-0.09,0,.22-5,0-5a3.89,3.89,0,0,1-1.35-.43v5a1.81,1.81,0,0,1,1.6.51v-5l-2,.94c-0.28.13,0.09,5,0,5a15.86,15.86,0,0,0,2.5.07v-5a3.77,3.77,0,0,0-1.26.38c-0.32.13,0.16,5,0,5a5.45,5.45,0,0,1,1.89.34v-5l-1.86.1s-0.17,5,0,5l1.36,0.28v-5a19.93,19.93,0,0,0-2.65.43,35.25,35.25,0,0,0,0,5,6.48,6.48,0,0,0,2.54.61v-5l-1,0c0.1,0-.27,4.68,0,5a0.85,0.85,0,0,0,.89.55v-5l-1.12.81a19.91,19.91,0,0,0,0,5,0.9,0.9,0,0,0,1.1.32s0.16-5,0-5a1,1,0,0,0-1.08.09,36.28,36.28,0,0,0,0,5c0.46,0.11,1.33.56,1.72,0.32,0.76-.45-0.7-4.58,0-5-0.39.23-1.26-.21-1.72-0.32v5a1,1,0,0,1,1.08-.09v-5a0.9,0.9,0,0,1-1.1-.32v5l1.12-.81c0.27-.19,0-5,0-5a0.85,0.85,0,0,1-.89-0.55v5l1,0s0.06-5,0-5a6.48,6.48,0,0,1-2.54-.61v5a19.93,19.93,0,0,1,2.65-.43s0.14-5,0-5l-1.36-.28v5l1.86-.1c-0.08,0,.25-4.91,0-5a5.45,5.45,0,0,0-1.89-.34v5a3.77,3.77,0,0,1,1.26-.38c0.26-.05-0.15-5,0-5a15.86,15.86,0,0,1-2.5-.07v5l2-.94a22.73,22.73,0,0,0,0-5,1.81,1.81,0,0,0-1.6-.51c0.09,0-.26,4.89,0,5a3.89,3.89,0,0,0,1.35.43v-5h-2.06v5h1.59c-0.08,0,.2-5,0-5a0.78,0.78,0,0,1-.8-0.45v5a2,2,0,0,0,1.24-.29,34.49,34.49,0,0,0,0-5,2.71,2.71,0,0,1-1.27-.51v5a6,6,0,0,1,2.08-.26c-0.14,0,.26-4.94,0-5l-0.5-.12v5h2.71v-5a11.24,11.24,0,0,1-4.29-.8v5l2.58-.14s0.06-5,0-5a20.9,20.9,0,0,1-2.27-.28v5c2.41-.11,1.69-2.15,1.68-4a4.46,4.46,0,0,0-.05-1.73c-0.51-.93-2.45-0.75-3.37-0.84v5c1.53-.92,2,1.7,2.17,2.7v-4.91c0-.27-0.55-2-0.65-2.62v5l0.2,0.84v-5c-0.18,1.58-.58,0-1.26-0.62,0.61,0.59-.19,4.07,0,5l0.66,3.28c-0.31-1.53.1-3.35,0-4.91L267,165.93c0.06,0.94,0,2.92,0,4.18l0,2,0-4.27q-0.55-3.27-.25,3.31v-4.91a6.4,6.4,0,0,1-.31,1.76,11.71,11.71,0,0,0-.47-1.77,14.65,14.65,0,0,1-1-3v5l0.17-.63v0.09c0.4,0.16.68-.75,0.77-0.92,0.69-1.32-.69-3.72,0-5a2.31,2.31,0,0,0-.4,1,10.87,10.87,0,0,0,0,2.5c0,0.52.32,2.06,0,2.5q0.21-.69.41-0.16v0.09c0.74-1,.19-0.27.69,0.34a1.86,1.86,0,0,0,.28.59q0.16,0.55.29,0a2.12,2.12,0,0,1,.48-0.69l0.26,0.83c0.28,0.51,0,1.71.43,1.49,0.7-.38-0.07-1.57,1.35-1.19,1.08,0.29,1.49,2,1.57,2.89v-5l-0.09.68v4.66c0.06-3.8.22-6.56-2-9.83,0.77,1.12-.79,3.85,0,5h0Z" transform="translate(-256.6 -74.28)"/><path class="cls-1" d="M265.56,136.07c-0.33,2.87.47,5.56,1.3,8.27a8.88,8.88,0,0,1-.27,6.58c-2.54,7.24,9,10.36,11.48,3.17a19.31,19.31,0,0,0,1-9.79c-0.47-2.78-2-5.38-1.64-8.22,0.37-3.2-3-6-6-6-3.52,0-5.59,2.74-6,6h0Z" transform="translate(-256.6 -74.28)"/><path class="cls-1" d="M264.61,154.09a6.24,6.24,0,0,0-1.24.95c-1.69,1.65,0,5.09,2.43,4.18a5.06,5.06,0,0,0,3-2.49,2.57,2.57,0,0,0-.9-3.42,2.52,2.52,0,0,0-3.42.9c-0.35.71-1.31,2.31-2.14,2.15a2.57,2.57,0,0,0-3.08,1.75,2.52,2.52,0,0,0,1.75,3.08c3.41,0.66,6.31-1.46,7.79-4.45l-4.32-2.52c-0.17.34-.18,0.27,0,0.19l2.43,4.18q-0.2,0,.23-0.17c2.79-1.61.27-5.93-2.52-4.32h0Z" transform="translate(-256.6 -74.28)"/><path class="cls-1" d="M296.42,183.34c1.22,1,1.61,2.33,2.47,3.6,1.21,1.78,2.7,2.95,2.34,5.37-0.42,2.82-3,4.54-3.85,7.2s3.15,4.36,4.57,1.93c2.53-4.34.22-10.1-.82-14.58l-4.18,2.43,1.65,1.62c2.3,2.25,5.84-1.28,3.54-3.54l-1.65-1.62a2.52,2.52,0,0,0-4.18,2.43c0.67,2.88,2.9,8,1.32,10.72l4.57,1.93c0.57-1.84,2.4-3.32,3.16-5.14a9.63,9.63,0,0,0-1.69-10.76c-1.29-1.73-2-3.72-3.7-5.12-2.46-2-6,1.48-3.54,3.54h0Z" transform="translate(-256.6 -74.28)"/><path class="cls-3" d="M268.67,203.33s2.67-2,0-6.5a13.24,13.24,0,0,1-1.5-9.17" transform="translate(-256.6 -74.28)"/><path class="cls-3" d="M271.08,184.42s-1.25,6.42-10.92,3.83c1.42-1,6.58-4.06,6.75-9.94s-4.91-10.81-1.83-16.72" transform="translate(-256.6 -74.28)"/><path class="cls-3" d="M271.5,155.33s-1.46,8.33-13.9,4.42c1.48-1.68,8.56-3.5,9.31-12.58,0-3.08-3.83-7.83-.75-14.58,1.33-2.17,8.58-13.58,10.58-21.92s7.5-16.33,7.5-16.33,8.58-9.58,9.17-11,12-7.92,14.67-7.58,6.25-3.25,18.67,5.25c2.58-.42,16-6.67,25,18.58,0.58,1.83,1.92,8.08,5.5,10.17,1.75,1.17,5.92,5.75,5.92,15.83s3,13.5,3,13.5,0,12.83.42,15.58,4.08,10.08,8.5,11.33c-1.25.58-7.08,3.42-13.08-6" transform="translate(-256.6 -74.28)"/><path class="cls-3" d="M368.5,166.85a42.46,42.46,0,0,1-1.56,12.33c-1.87,6.81.79,9.19,0.79,9.19s4.71,7.56,1.15,15.13" transform="translate(-256.6 -74.28)"/><path class="cls-3" d="M350.63,142.75s5.38,3.38,1.75,10.13a13.62,13.62,0,0,0-.25,12.63s2.12,2.75,4.12,3" transform="translate(-256.6 -74.28)"/><path class="cls-3" d="M300.17,163.33a13.66,13.66,0,0,0-.83,13.5c3.5,7.83,10.17,11.83,6.83,18.67s-4,5.17-3.65,8" transform="translate(-256.6 -74.28)"/><path class="cls-3" d="M335.67,204.17s-9-5.67-3.5-16.5,4.55-15,.86-22" transform="translate(-256.6 -74.28)"/><path class="cls-3" d="M284.5,173.67s-3.67,4-.83,12.5,3.33,7.5,2,10.5" transform="translate(-256.6 -74.28)"/><path class="cls-3" d="M298,190.83s0.53,6-2.8,10.5,0,5.83,0,5.83" transform="translate(-256.6 -74.28)"/><path class="cls-3" d="M274.33,188.86s-1.67,5.3,1.5,8.64,3.17,3.33,1.83,6.67" transform="translate(-256.6 -74.28)"/><path class="cls-3" d="M273.9,181.33s2.56-3.17,0-7.67,2.31-10.33,2.31-10.33,4.46-4.5,4.3-5.83" transform="translate(-256.6 -74.28)"/><path class="cls-3" d="M273.9,146.33s-6.32-5.66,2.31-16.25,4.3-15.58,4.3-15.58" transform="translate(-256.6 -74.28)"/><path class="cls-3" d="M286.37,111s8.84-1.83,16.15-14.83,8.15-8.33,8.15-8.33" transform="translate(-256.6 -74.28)"/><path class="cls-3" d="M285.17,102.83A16.93,16.93,0,0,1,294.83,91" transform="translate(-256.6 -74.28)"/><path class="cls-3" d="M299.33,84.67s7.17-11.5,23.33-1.33" transform="translate(-256.6 -74.28)"/><path class="cls-3" d="M333.22,88s6.12-6.83,15.28,17.17" transform="translate(-256.6 -74.28)"/><path class="cls-3" d="M359.5,141a15.47,15.47,0,0,1-2.33-10.61c1-5.92-4.67-14.42-4.67-14.42" transform="translate(-256.6 -74.28)"/><path class="cls-3" d="M340.86,165.67s8.48,7.83,3.14,17.75-7.33,11.42-5.17,15.58" transform="translate(-256.6 -74.28)"/><path class="cls-3" d="M349.33,189.67a13.23,13.23,0,0,1,1.29,12" transform="translate(-256.6 -74.28)"/><path class="cls-3" d="M356.25,179.33c0.75-2.17-1.25,4.5,4.75,12.5,5.71,7.62-2.33,11.67-2.33,11.67" transform="translate(-256.6 -74.28)"/><path class="cls-3" d="M294.83,157.5s-7,10.78-1.15,20.81" transform="translate(-256.6 -74.28)"/><path class="cls-3" d="M290,118.17s16-8,19.67-18S324,85.7,326.33,87.1" transform="translate(-256.6 -74.28)"/><path class="cls-3" d="M282.59,149.38s2.37-4.62,2.57-15.62,10.21-10.39,10.21-10.39,13.46-11.86,15.29-15.11,7.17-15.62,12-15.87,6.73,0.13,7.72,2.38c1.36-.5,10-2,12.74,8.08s0.38,17,4,22.54a46.91,46.91,0,0,1,5.38,12.25" transform="translate(-256.6 -74.28)"/><path class="cls-3" d="M309.83,149.93s6.3,8.42,14.66.29" transform="translate(-256.6 -74.28)"/><path class="cls-3" d="M322.25,120.68s6.86-4.29,11.72-2.51,6.24,4.42,6.24,4.42" transform="translate(-256.6 -74.28)"/></svg>