<svg id="Шар_1" data-name="Шар 1" xmlns="http://www.w3.org/2000/svg" viewBox="0 0 71.43 122.99"><defs><style>.cls-1{fill:#e8e8e8;}.cls-2,.cls-4{fill:none;stroke:#0a1239;stroke-width:2px;}.cls-2{stroke-linecap:round;stroke-linejoin:round;}.cls-3{fill:#fff;}.cls-4{stroke-miterlimit:10;}.cls-5,.cls-6{fill:#0a1239;}.cls-6{opacity:0.05;}</style></defs><title>user-3</title><rect class="cls-1" x="9.67" y="84.54" width="52.02" height="28.37" rx="14.02" ry="14.02"/><path class="cls-1" d="M468.79,167.88s4.43,3.29,4.17,8S472.46,187,476.5,188c0,0,7.71,3.54,11.89,2.4s12.39,0.51,14-5.56c0-2.28-2.53-4.55,3.29-16.94" transform="translate(-451.36 -84.01)"/><rect class="cls-2" x="9.67" y="84.54" width="52.02" height="28.37" rx="14.02" ry="14.02"/><path class="cls-1" d="M22.33,92.9H48.69A21.33,21.33,0,0,1,70,114.24v7.26a0,0,0,0,1,0,0H1a0,0,0,0,1,0,0v-7.26A21.33,21.33,0,0,1,22.33,92.9Z"/><ellipse class="cls-3" cx="10.66" cy="59.67" rx="8.73" ry="7.59"/><ellipse class="cls-2" cx="10.66" cy="59.67" rx="8.73" ry="7.59"/><ellipse class="cls-3" cx="61.69" cy="59.67" rx="8.73" ry="7.59"/><ellipse class="cls-2" cx="61.69" cy="59.67" rx="8.73" ry="7.59"/><path class="cls-2" d="M22.33,92.9H48.69A21.33,21.33,0,0,1,70,114.24v7.26a0,0,0,0,1,0,0H1a0,0,0,0,1,0,0v-7.26A21.33,21.33,0,0,1,22.33,92.9Z"/><rect class="cls-3" x="25.95" y="69.65" width="19.78" height="32.78" rx="9.78" ry="9.78"/><rect class="cls-2" x="25.95" y="69.65" width="19.78" height="32.78" rx="9.78" ry="9.78"/><rect class="cls-3" x="8.52" y="13.38" width="54.63" height="71.17" rx="27" ry="27"/><rect class="cls-4" x="8.52" y="13.38" width="54.63" height="71.17" rx="27" ry="27"/><path class="cls-2" d="M491.45,133.83s-5.14,5.85-8.93,0" transform="translate(-451.36 -84.01)"/><path class="cls-2" d="M477.84,150.22s7.36,8.36,18.61.33" transform="translate(-451.36 -84.01)"/><line class="cls-2" x1="32.64" y1="75.99" x2="37.64" y2="75.99"/><line class="cls-2" x1="36.64" y1="108.99" x2="36.64" y2="121.99"/><path class="cls-3" d="M514.25,120H511v-0.59s0.24,0.59.22,0.59h-17.5a4.58,4.58,0,0,0-4.25,4H484v-0.53c0-2.2-1.46-3.47-3.7-3.47H462.8c-0.11,0,.2-0.33.2-0.31V120h-3.23a1.53,1.53,0,1,0,0,3H461v11.11c0,3.36,2.25,5.89,5.62,5.89h4.14a13.45,13.45,0,0,0,13.58-13h5.12a13.68,13.68,0,0,0,13.82,13h4.14c3.36,0,5.59-2.53,5.59-5.89V123h1.25A1.53,1.53,0,1,0,514.25,120Z" transform="translate(-451.36 -84.01)"/><path class="cls-2" d="M511,120H493.72a4.58,4.58,0,0,0-4.25,4H484v-0.53c0-2.2-1.46-3.47-3.7-3.47H463" transform="translate(-451.36 -84.01)"/><path class="cls-2" d="M463,120h-3.23a1.53,1.53,0,1,0,0,3H461v11.11c0,3.36,2.25,5.89,5.62,5.89h4.14a13.45,13.45,0,0,0,13.58-13h5.12a13.68,13.68,0,0,0,13.82,13h4.14c3.36,0,5.59-2.53,5.59-5.89V123h1.25a1.53,1.53,0,1,0,0-3H511" transform="translate(-451.36 -84.01)"/><circle class="cls-5" cx="23.92" cy="46.4" r="2.56"/><circle class="cls-5" cx="47.33" cy="46.4" r="2.56"/><line class="cls-2" x1="19.64" y1="31.99" x2="28.64" y2="31.99"/><line class="cls-2" x1="42.64" y1="31.99" x2="51.64" y2="31.99"/><circle class="cls-6" cx="17.87" cy="62.51" r="3.97"/><circle class="cls-6" cx="53.38" cy="62.6" r="3.97"/><path class="cls-3" d="M456,137V111.27s3.6-8.82,5.43-8.27c0.92-2.21,3.82-11.76,14.11-12.32s18.91,2,19.65-5.15c2,0,9-2.94,13,7.54,0,2.39-.56,6.07,1.28,6.8s8.64,5.5,9.19,11.2,0,25.92,0,25.92h-4s0-22.42-10.85-27.57c-0.83-.74-10.75,9.1-20.31-6.16-0.92-.28-15.26,2.48-19.58,11.95s-4.06,21-4.06,21Z" transform="translate(-451.36 -84.01)"/><path class="cls-2" d="M455.64,137s-1.67-19.52,0-25.74c0.65-2.41,4.24-7.33,5.61-8.27,0.92-2.21,3.91-11.76,14.2-12.32s21,2,19.69-5.15c2,0,11-3.5,13.06,7.54,0.44,2.35-.55,6.07,1.29,6.8s8.64,5.5,9.19,11.2,0,25.92,0,25.92h-4s0-22.42-10.85-27.57c-0.83-.74-10.75,9.1-20.31-6.16-0.92-.28-15.26,2.48-19.58,11.95s-4.23,21-4.23,21Z" transform="translate(-451.36 -84.01)"/><path class="cls-2" d="M463.31,108.66s3.29-6.49,15.17-8.68" transform="translate(-451.36 -84.01)"/><path class="cls-2" d="M499.47,89.78s1.85-3,2.7,3" transform="translate(-451.36 -84.01)"/><path class="cls-2" d="M509.76,108.66a14,14,0,0,1,3.29,4.8" transform="translate(-451.36 -84.01)"/><path class="cls-2" d="M468.37,97.79a10.06,10.06,0,0,1,7.87-1.94" transform="translate(-451.36 -84.01)"/><path class="cls-2" d="M488.11,96.77a65.77,65.77,0,0,1,9.54,1" transform="translate(-451.36 -84.01)"/><path class="cls-2" d="M490.37,104.32s2,1.39,9.1,2.4" transform="translate(-451.36 -84.01)"/><line class="cls-2" x1="51.82" y1="17.16" x2="55.2" y2="18.5"/><path class="cls-2" d="M470,174.67s3.76,2.64,3.92,7,1.47,11.24,13.73,10.58" transform="translate(-451.36 -84.01)"/><path class="cls-2" d="M505.33,174.67s-3.76,2.64-3.92,7-1.47,11.24-13.73,10.58" transform="translate(-451.36 -84.01)"/><line class="cls-2" x1="25.64" y1="105.99" x2="25.64" y2="113.99"/><line class="cls-2" x1="47.64" y1="105.99" x2="47.64" y2="113.99"/><path class="cls-2" d="M470.76,87.27s3.65,1.54,2.45,3.11" transform="translate(-451.36 -84.01)"/><path class="cls-2" d="M474.39,90s-1.39-3,4.11-2.74" transform="translate(-451.36 -84.01)"/></svg>