<svg id="Шар_1" data-name="Шар 1" xmlns="http://www.w3.org/2000/svg" viewBox="0 0 87.19 127.79"><defs><style>.cls-1,.cls-6{fill:#0a1239;}.cls-1,.cls-5{opacity:0.05;}.cls-2,.cls-5{fill:#fff;}.cls-3,.cls-7{fill:none;stroke:#0a1239;stroke-linecap:round;stroke-linejoin:round;stroke-width:2px;}.cls-4{fill:#e5e5e5;}.cls-7{opacity:0.2;}</style></defs><title>user-6</title><path class="cls-1" d="M460.17,306.3c-9.2-16.26-.36-29.58-0.36-29.58s10.89,15.65,13.89,14.79" transform="translate(-445 -275.71)"/><path class="cls-1" d="M521,306.3c9.2-16.26.36-29.58,0.36-29.58s-10.89,15.65-13.89,14.79" transform="translate(-445 -275.71)"/><path class="cls-2" d="M460.17,306.3c-9.2-16.26-.36-29.58-0.36-29.58s10.89,15.65,13.89,14.79" transform="translate(-445 -275.71)"/><path class="cls-2" d="M519.81,307.49a33.73,33.73,0,0,0,1.55-30.78s-13.28,16.85-16.28,16" transform="translate(-445 -275.71)"/><path class="cls-3" d="M460.17,306.3c-9.2-16.26-.36-29.58-0.36-29.58s10.89,15.65,13.89,14.79" transform="translate(-445 -275.71)"/><path class="cls-3" d="M461,286.27s5.38,7.77,6.42,10.75" transform="translate(-445 -275.71)"/><path class="cls-3" d="M519.81,307.49a33.73,33.73,0,0,0,1.55-30.78s-13.28,16.85-16.28,16" transform="translate(-445 -275.71)"/><path class="cls-3" d="M520.17,286.27s-5.38,5.38-6.42,8.36" transform="translate(-445 -275.71)"/><path class="cls-3" d="M508.2,291.64c-1.39-.76-2.93-1.51-4.64-2.24A29.3,29.3,0,0,0,492,287l3.63-5.93L482,288h0a28.84,28.84,0,0,0-8.28,3.39" transform="translate(-445 -275.71)"/><path class="cls-1" d="M519.3,354.48a7.37,7.37,0,0,0,.13-1.73L519,354.12Z" transform="translate(-445 -275.71)"/><path class="cls-1" d="M459.94,355l-0.47-2.57C459.48,354,459.62,355,459.94,355Z" transform="translate(-445 -275.71)"/><path class="cls-2" d="M493.45,401.56l-7-2.26-4.66,2.89q3.1,0.31,6.28.31A62.48,62.48,0,0,0,505.62,400l-5.79-.94Z" transform="translate(-445 -275.71)"/><path class="cls-2" d="M469.52,399.69c1.38,0.43,2.79.8,4.21,1.13L470,399.61Z" transform="translate(-445 -275.71)"/><path class="cls-2" d="M530.44,379.74l-4.33-3.21s3.58-.48,5.08-1.83c-0.15-4-12.54-19.45-12.54-19.45l1.64-5.23a68.16,68.16,0,0,1,6.87,6.87c1-4.28-2.34-14.85-3.58-17.81,1.4,1.21,5.75,2.43,7.61,1.69-9.11-13.59-10.9-26.28-10.75-28.37,0.11-1.54,1-11.64-7.1-17.77-24.33-18.32-46,2.1-46,2.1-4.51,3.92-7.31,8.17-7.41,10.81-0.3,7.47-15.08,34.32-13.89,34.47s10.15-5.69,8.21-3S451,360.21,453,357.23s5.9-7.75,5.9-7.75l1,5.71L446.07,376h7.47c-3.58,8,5.11,6.7,5.11,6.7l-3.34,10.51a62.17,62.17,0,0,0,14.21,6.48l0.44-.08,3.77,1.21a62.25,62.25,0,0,0,8.09,1.36l4.66-2.89,7,2.26,6.38-2.51,5.79,0.94a62.21,62.21,0,0,0,18-8.61l-1.73-6.72Z" transform="translate(-445 -275.71)"/><path class="cls-2" d="M460.26,354.76c1.61-2.38,4.7-6.15,4.7-6.15l0.83,4.65L454.73,370h5.95c-2.85,6,4.07,5.18,4.07,5.18l-4,12.5,1.92,2.84,11.1-2,8.4,2.69,4.76-2.95,5.55,1.8,5.08-2,5.23,0.85,6.18,0.87,4.12-2,4.92-.09-2.85-11.07,6.78-3.92-3.45-2.55s2.85-.39,4-1.46c-0.12-3.21-10-15.49-10-15.49l1.31-4.16a57.55,57.55,0,0,1,5.17,5.11l0.43-1.37c-0.08-4-2.14-10.43-3-12.45,1.11,1,4.58,1.94,6.06,1.34-7.25-10.82-8.68-20.93-8.56-22.59,0.09-1.23.82-9.27-5.66-14.15-19.37-14.59-36.6,1.67-36.6,1.67-3.59,3.12-5.82,6.51-5.9,8.61-0.24,5.95-12,27.33-11.06,27.45s8.09-4.52,6.54-2.38c-1,1.42-1.84,8.36-1.81,12.2l0.47,2.57A0.42,0.42,0,0,0,460.26,354.76Z" transform="translate(-445 -275.71)"/><path class="cls-4" d="M458.88,343.82c1.55-2.14-3.2-1.08-4.15-1.2s8.43-21.5,8.67-27.45c0.08-2.1,4.7-5.49,8.29-8.61l20.07,9s10.22-11.83,16.53-7.08c6.48,4.88,5.74,9.34,5.66,10.57-0.12,1.66,1.31,11.77,8.56,22.59-1.49.6-5-.38-6.06-1.34,0.85,2,2.91,8.5,3,12.45l0.85-2.71a68.16,68.16,0,0,1,6.87,6.87c1-4.28-2.34-14.85-3.58-17.81,1.4,1.21,5.75,2.43,7.61,1.69-9.11-13.59-10.9-26.28-10.75-28.37,0.11-1.54,1-11.64-7.1-17.77-24.33-18.32-46,2.09-46,2.09-4.51,3.92-7.31,8.17-7.41,10.81-0.3,7.47-15.08,34.32-13.89,34.46s10.15-5.69,8.21-3S451,360.2,453,357.21s5.9-7.77,5.9-7.77l0.55,3C459.44,348.6,457.86,345.24,458.88,343.82Z" transform="translate(-445 -275.71)"/><path class="cls-5" d="M460.26,354.76c1.61-2.38,4.7-6.15,4.7-6.15l0.83,4.65L454.73,370h5.95c-2.85,6,4.07,5.18,4.07,5.18l-4,12.5,1.92,2.84,11.1-2,8.4,2.69,4.76-2.95,5.55,1.8,5.08-2,5.23,0.85,6.18,0.87,4.12-2,4.92-.09-2.85-11.07,6.78-3.92-3.45-2.55s2.85-.39,4-1.46c-0.12-3.21-10-15.49-10-15.49l1.31-4.16a57.55,57.55,0,0,1,5.17,5.11l0.43-1.37c-0.08-4-2.14-10.43-3-12.45,1.11,1,4.58,1.94,6.06,1.34-7.25-10.82-8.68-20.93-8.56-22.59,0.09-1.23.82-9.27-5.66-14.15-19.37-14.59-36.6,1.67-36.6,1.67-3.59,3.12-5.82,6.51-5.9,8.61-0.24,5.95-12,27.33-11.06,27.45s5.7-2.13,4.15,0c-1,1.42.55,6,.58,9.81l0.47,2.57A0.42,0.42,0,0,0,460.26,354.76Z" transform="translate(-445 -275.71)"/><path class="cls-3" d="M493.45,401.56" transform="translate(-445 -275.71)"/><path class="cls-3" d="M481.82,402.19q3.1,0.31,6.28.31A62.48,62.48,0,0,0,505.62,400" transform="translate(-445 -275.71)"/><path class="cls-3" d="M469.52,399.69c1.38,0.43,2.79.8,4.21,1.13L470,399.61Z" transform="translate(-445 -275.71)"/><path class="cls-3" d="M505.62,400a62.21,62.21,0,0,0,18-8.61l-1.73-6.72,8.51-4.92-4.33-3.21s3.58-.48,5.08-1.83c-0.15-4-12.54-19.45-12.54-19.45l1.64-5.23a68.16,68.16,0,0,1,6.87,6.87c1-4.28-2.34-14.85-3.58-17.81,1.4,1.21,5.75,2.43,7.61,1.69-9.11-13.59-10.9-26.28-10.75-28.37,0.11-1.54,1-11.64-7.1-17.77-24.33-18.32-46,2.1-46,2.1-4.51,3.92-7.31,8.17-7.41,10.81-0.3,7.47-15.08,34.32-13.89,34.47s10.15-5.69,8.21-3S451,360.21,453,357.23s5.9-7.75,5.9-7.75l1,5.71L446.07,376h7.47c-3.58,8,5.11,6.7,5.11,6.7l-3.34,10.51a62.17,62.17,0,0,0,14.21,6.48l0.44-.08,3.77,1.21a62.25,62.25,0,0,0,8.09,1.36" transform="translate(-445 -275.71)"/><path class="cls-3" d="M493.45,401.56" transform="translate(-445 -275.71)"/><circle class="cls-6" cx="28.74" cy="49.53" r="2.58"/><circle class="cls-6" cx="61" cy="49.53" r="2.58"/><path class="cls-3" d="M489.58,363.92c-14.44-.3-14.9-9.85-14.14-14.93,1.15-7.58,8.46-29.47,8.46-29.47" transform="translate(-445 -275.71)"/><path class="cls-3" d="M496.25,319.52s7.32,21.89,8.46,29.47c0.77,5.08.3,14.63-14.14,14.93" transform="translate(-445 -275.71)"/><path class="cls-3" d="M490,363v-3.95s-8.22-5.56-7.93-7.1,7.27-7.18,15,0c-0.51,1.61-6.48,7-6.48,7" transform="translate(-445 -275.71)"/><path class="cls-7" d="M468.57,377.46s-0.8.2,0,4" transform="translate(-445 -275.71)"/><path class="cls-7" d="M464.22,367.31s-0.77,1.39,0,4.18" transform="translate(-445 -275.71)"/><path class="cls-7" d="M472.36,369.4s2.38,2.89,2.58,5.48" transform="translate(-445 -275.71)"/><path class="cls-7" d="M480.92,381.44s-0.6-1,0,3" transform="translate(-445 -275.71)"/><path class="cls-7" d="M488.6,387.42s-2.5.2-1.31,2.79" transform="translate(-445 -275.71)"/><path class="cls-7" d="M470.36,388.81s2,3.58,2,4.18" transform="translate(-445 -275.71)"/><path class="cls-7" d="M500.83,386a35,35,0,0,0,0,4.88" transform="translate(-445 -275.71)"/><path class="cls-7" d="M492.46,377.46s-0.4,5.57.8,7" transform="translate(-445 -275.71)"/><path class="cls-7" d="M503.61,374.87s4,2.59,3.77,5.38" transform="translate(-445 -275.71)"/><path class="cls-7" d="M507.2,313.95s4,2.59,3.77,5.38" transform="translate(-445 -275.71)"/><path class="cls-7" d="M513.74,373.08s-0.82.6,0,4.48" transform="translate(-445 -275.71)"/><path class="cls-7" d="M511.36,342s-0.82.6,0,4.48" transform="translate(-445 -275.71)"/><path class="cls-7" d="M513.74,388.81s-2.76.6-1.77,3" transform="translate(-445 -275.71)"/><path class="cls-7" d="M517.33,332.66s-2.76.6-1.77,3" transform="translate(-445 -275.71)"/><path class="cls-7" d="M460.21,335.07a45.47,45.47,0,0,0,3.19,3.56" transform="translate(-445 -275.71)"/><path class="cls-7" d="M459.93,322.66s1.27,0.14,1.87,2.58" transform="translate(-445 -275.71)"/><path class="cls-7" d="M491,308.32s1.27,0.14,1.87,2.58" transform="translate(-445 -275.71)"/><path class="cls-7" d="M467.43,312.15s-2,4.78-1.44,6" transform="translate(-445 -275.71)"/><path class="cls-7" d="M475.22,307.49s1.32,4.07,1.52,4.66" transform="translate(-445 -275.71)"/><path class="cls-2" d="M449,373.08s44.71,20.79,80.34-2.77l-4-5.39c-40.66,19.3-71.71,1.75-71.71,1.75" transform="translate(-445 -275.71)"/><path class="cls-3" d="M448,373.08s45.71,20.79,81.34-2.77l-4-5.39c-40.66,19.3-71.71,1.75-71.71,1.75" transform="translate(-445 -275.71)"/><line class="cls-3" x1="45" y1="106.29" x2="45" y2="111.29"/><circle class="cls-2" cx="45.61" cy="117.23" r="6.7"/><circle class="cls-3" cx="45.61" cy="117.23" r="6.7"/></svg>