<svg id="Шар_1" data-name="Шар 1" xmlns="http://www.w3.org/2000/svg" viewBox="0 0 83.87 139.08"><defs><style>.cls-1{fill:#e8e8e8;}.cls-2,.cls-4,.cls-6{fill:none;stroke:#0a1239;stroke-width:2px;}.cls-2,.cls-6{stroke-linecap:round;stroke-linejoin:round;}.cls-3{fill:#fff;}.cls-4{stroke-miterlimit:10;}.cls-5{fill:#0a1239;}.cls-6{opacity:0.3;}</style></defs><title>user-1</title><path class="cls-1" d="M26.15,106.39H59.23a21.33,21.33,0,0,1,21.33,21.33v10a0,0,0,0,1,0,0H4.82a0,0,0,0,1,0,0v-10A21.33,21.33,0,0,1,26.15,106.39Z"/><path class="cls-2" d="M26.15,106.39H59.23a21.33,21.33,0,0,1,21.33,21.33v10a0,0,0,0,1,0,0H4.82a0,0,0,0,1,0,0v-10A21.33,21.33,0,0,1,26.15,106.39Z"/><rect class="cls-3" x="32.2" y="80.87" width="21.71" height="35.97" rx="10.85" ry="10.85"/><rect class="cls-2" x="32.2" y="80.87" width="21.71" height="35.97" rx="10.85" ry="10.85"/><rect class="cls-3" x="8.75" y="54.13" width="10.82" height="19.08" rx="5.41" ry="5.41"/><rect class="cls-3" x="170.17" y="126.05" width="10.82" height="19.08" rx="5.41" ry="5.41" transform="translate(247.01 199.26) rotate(180)"/><rect class="cls-4" x="8.75" y="54.13" width="10.82" height="19.08" rx="5.41" ry="5.41"/><rect class="cls-4" x="170.17" y="126.05" width="10.82" height="19.08" rx="5.41" ry="5.41" transform="translate(247.01 199.26) rotate(180)"/><path class="cls-3" d="M147.21,169.13h0c-16.56,0-30-12.16-30-30.78V100.13c0-5,3.64-9.1,8.09-9.1H169.1c4.45,0,8.09,4.09,8.09,9.1v38.22C177.19,157,163.77,169.13,147.21,169.13Z" transform="translate(-104.16 -71.92)"/><path class="cls-4" d="M147.21,169.13h0c-16.56,0-30-12.16-30-30.78V100.13c0-5,3.64-9.1,8.09-9.1H169.1c4.45,0,8.09,4.09,8.09,9.1v38.22C177.19,157,163.77,169.13,147.21,169.13Z" transform="translate(-104.16 -71.92)"/><path class="cls-3" d="M111.31,113.57s-10.19-7.89-2.05-14.13c0-2-2.42-10.27,9.87-13.76,0.87-1.28,6.12-15.41,26.44-9.91,1.38-.37,14.26-8.62,29.85,10.09,1.56,0.73,9.7,2.57,10.39,14.31,1,1.34,2.42,4.59-.69,11.37-1,2.94-.5,20-4.31,25.13a19.38,19.38,0,0,1-5.8,2.39V111.86c-2-10.89-6.61-4.53-8.11-3.91-10.74-15-18.17-.24-19,1.83-8.78-16-18.31-3.42-19.11-1.47-11-8.68-10.8,4.53-10.8,4.53v25.38s-14.83-18.4-8.76-33.08" transform="translate(-104.16 -71.92)"/><path class="cls-2" d="M107.64,109.17s-6.53-4.22,1.62-10.46c0-2-2.42-10.27,9.87-13.76,0.87-1.28,6.12-15.41,26.44-9.91,1.38-.37,14.26-8.62,29.85,10.09,1.56,0.73,9.7,2.57,10.39,14.31,1,1.34,2.42,4.59-.69,11.37-1,2.94-.26,20-4.07,25.13a23,23,0,0,1-4.1,2.39l-1.47-27.21c-2.94-10.89-6.85-4.53-8.35-3.91-10.74-15-18.29-.24-19.09,1.83-8.78-16-18.25-3.42-19.06-1.47-11-8.68-10.74,4.53-10.74,4.53l-1.47,25.38s-13.47-18.4-7.41-33.08" transform="translate(-104.16 -71.92)"/><path class="cls-2" d="M184.47,117.27s2-12-3.49-11.77" transform="translate(-104.16 -71.92)"/><path class="cls-2" d="M115.11,98.16s3.55-6.85,8.86-2.94" transform="translate(-104.16 -71.92)"/><path class="cls-2" d="M127.21,87.4s4.16-6.6,8.78-1.22" transform="translate(-104.16 -71.92)"/><path class="cls-2" d="M127,123.36s7-6.6,14.68-1.22" transform="translate(-104.16 -71.92)"/><path class="cls-2" d="M138.52,94.18s3.23-6.42,7.16,0" transform="translate(-104.16 -71.92)"/><path class="cls-2" d="M150.77,141s-3.42,6.42-7.58,0" transform="translate(-104.16 -71.92)"/><path class="cls-2" d="M152.38,94.18s6-9.93,15.7-.17" transform="translate(-104.16 -71.92)"/><path class="cls-2" d="M147.42,84.06S151,77.61,156.77,83" transform="translate(-104.16 -71.92)"/><path class="cls-2" d="M175.24,92s6.24-.15,6.47,10.12" transform="translate(-104.16 -71.92)"/><circle class="cls-5" cx="29.97" cy="55.35" r="2.81"/><path class="cls-2" d="M152,123.36s7-6.6,14.68-1.22" transform="translate(-104.16 -71.92)"/><circle class="cls-5" cx="55.66" cy="55.35" r="2.81"/><path class="cls-2" d="M136.94,149s8.07,9.17,20.43.37" transform="translate(-104.16 -71.92)"/><line class="cls-2" x1="39.84" y1="88.08" x2="44.84" y2="88.08"/><line class="cls-6" x1="17.84" y1="77.08" x2="17.84" y2="83.08"/><line class="cls-6" x1="20.84" y1="82.08" x2="20.84" y2="87.08"/><line class="cls-6" x1="23.84" y1="86.08" x2="23.84" y2="91.08"/><line class="cls-6" x1="27.84" y1="87.08" x2="27.84" y2="93.08"/><line class="cls-6" x1="30.84" y1="89.08" x2="30.84" y2="95.08"/><line class="cls-6" x1="33.84" y1="91.08" x2="33.84" y2="96.08"/><line class="cls-6" x1="37.84" y1="92.08" x2="37.84" y2="97.08"/><line class="cls-6" x1="40.84" y1="92.08" x2="40.84" y2="97.08"/><line class="cls-6" x1="44.84" y1="92.08" x2="44.84" y2="97.08"/><line class="cls-6" x1="47.84" y1="92.08" x2="47.84" y2="97.08"/><line class="cls-6" x1="50.84" y1="92.08" x2="50.84" y2="96.08"/><line class="cls-6" x1="54.84" y1="91.08" x2="54.84" y2="95.08"/><line class="cls-6" x1="57.84" y1="89.08" x2="57.84" y2="93.08"/><line class="cls-6" x1="60.84" y1="87.08" x2="60.84" y2="91.08"/><line class="cls-6" x1="64.84" y1="84.08" x2="64.84" y2="88.08"/><line class="cls-6" x1="67.84" y1="80.08" x2="67.84" y2="84.08"/><line class="cls-6" x1="69.84" y1="75.08" x2="69.84" y2="79.08"/><line class="cls-2" x1="32.84" y1="110.08" x2="32.84" y2="138.08"/><line class="cls-2" x1="53.84" y1="110.08" x2="53.84" y2="138.08"/><polyline class="cls-2" points="23.34 107.22 19.15 116.32 25.85 122.39 20.41 129.08 25.43 137.45"/><polyline class="cls-2" points="62.88 107.22 67.07 116.32 60.37 122.39 65.81 129.08 60.79 137.45"/></svg>