<svg id="Шар_1" data-name="Шар 1" xmlns="http://www.w3.org/2000/svg" viewBox="0 0 89.93 147.26"><defs><style>.cls-1{fill:#e8e8e8;}.cls-2,.cls-4,.cls-6{fill:none;stroke:#0a1239;stroke-width:2px;}.cls-2,.cls-6{stroke-linecap:round;stroke-linejoin:round;}.cls-3{fill:#fff;}.cls-4{stroke-miterlimit:10;}.cls-5{fill:#0a1239;}.cls-6{opacity:0.2;}</style></defs><title>user-5</title><path class="cls-1" d="M347.58,304.7l15.6-9.62s0.65,14.25-13.85,17.58" transform="translate(-274.26 -263.74)"/><path class="cls-2" d="M347.58,304.7l15.6-9.62s0.65,14.25-13.85,17.58" transform="translate(-274.26 -263.74)"/><path class="cls-1" d="M291.42,304.7l-15.6-9.62s-0.65,14.25,13.85,17.58" transform="translate(-274.26 -263.74)"/><path class="cls-2" d="M291.42,304.7l-15.6-9.62s-0.65,14.25,13.85,17.58" transform="translate(-274.26 -263.74)"/><path class="cls-1" d="M28.05,114.56H61.13A21.33,21.33,0,0,1,82.47,135.9v10a0,0,0,0,1,0,0H6.72a0,0,0,0,1,0,0v-10A21.33,21.33,0,0,1,28.05,114.56Z"/><path class="cls-2" d="M28.05,114.56H61.13A21.33,21.33,0,0,1,82.47,135.9v10a0,0,0,0,1,0,0H6.72a0,0,0,0,1,0,0v-10A21.33,21.33,0,0,1,28.05,114.56Z"/><rect class="cls-3" x="34.1" y="89.04" width="21.71" height="35.97" rx="10.85" ry="10.85"/><rect class="cls-2" x="34.1" y="89.04" width="21.71" height="35.97" rx="10.85" ry="10.85"/><rect class="cls-3" x="10.65" y="62.31" width="10.82" height="19.08" rx="5.41" ry="5.41"/><rect class="cls-3" x="342.17" y="326.05" width="10.82" height="19.08" rx="5.41" ry="5.41" transform="translate(420.91 407.44) rotate(-180)"/><rect class="cls-4" x="10.65" y="62.31" width="10.82" height="19.08" rx="5.41" ry="5.41"/><rect class="cls-4" x="342.17" y="326.05" width="10.82" height="19.08" rx="5.41" ry="5.41" transform="translate(420.91 407.44) rotate(-180)"/><rect class="cls-3" x="15.66" y="21.01" width="59.41" height="84.38" rx="29.71" ry="29.71"/><rect class="cls-4" x="15.66" y="21.01" width="59.41" height="84.38" rx="29.71" ry="29.71"/><circle class="cls-5" cx="31.87" cy="63.53" r="2.81"/><circle class="cls-5" cx="57.56" cy="63.53" r="2.81"/><line class="cls-2" x1="26.74" y1="61.26" x2="37.74" y2="61.26"/><line class="cls-2" x1="51.74" y1="61.26" x2="62.74" y2="61.26"/><line class="cls-2" x1="55.74" y1="49.26" x2="66.74" y2="49.26"/><line class="cls-2" x1="22.74" y1="49.26" x2="33.74" y2="49.26"/><line class="cls-2" x1="45.74" y1="125.26" x2="45.74" y2="146.26"/><path class="cls-2" d="M20.77,53.55H42.14a0,0,0,0,1,0,0V66.76a5.84,5.84,0,0,1-5.84,5.84h-9.7a5.84,5.84,0,0,1-5.84-5.84V53.55A0,0,0,0,1,20.77,53.55Z"/><path class="cls-2" d="M47.77,53.55H69.14a0,0,0,0,1,0,0V66.76a5.84,5.84,0,0,1-5.84,5.84h-9.7a5.84,5.84,0,0,1-5.84-5.84V53.55a0,0,0,0,1,0,0Z"/><line class="cls-2" x1="43.74" y1="60.26" x2="47.74" y2="60.26"/><line class="cls-2" x1="16.74" y1="60.26" x2="20.74" y2="60.26"/><line class="cls-2" x1="69.74" y1="60.26" x2="73.74" y2="60.26"/><path class="cls-3" d="M332.75,355.37a2.34,2.34,0,0,0,.05-0.43c0-3.51-6-6.35-13.48-6.35s-13.48,2.84-13.48,6.35a1.66,1.66,0,0,0,.8,1.54c0,1.67,1.66,3,3.69,3a4.24,4.24,0,0,0,2-.49,4.24,4.24,0,0,0,2,.49,4.12,4.12,0,0,0,2.5-.82,4.23,4.23,0,0,0,5,0,4.23,4.23,0,0,0,5,0,4.12,4.12,0,0,0,2.5.82c2,0,3.69-1.36,3.69-3A2.56,2.56,0,0,0,332.75,355.37Z" transform="translate(-274.26 -263.74)"/><path class="cls-2" d="M332.75,355.37a2.34,2.34,0,0,0,.05-0.43c0-3.51-6-6.35-13.48-6.35s-13.48,2.84-13.48,6.35a1.66,1.66,0,0,0,.8,1.54c0,1.67,1.66,3,3.69,3a4.24,4.24,0,0,0,2-.49,4.24,4.24,0,0,0,2,.49,4.12,4.12,0,0,0,2.5-.82,4.23,4.23,0,0,0,5,0,4.23,4.23,0,0,0,5,0,4.12,4.12,0,0,0,2.5.82c2,0,3.69-1.36,3.69-3A2.56,2.56,0,0,0,332.75,355.37Z" transform="translate(-274.26 -263.74)"/><path class="cls-2" d="M323.77,339s-3.42,6.42-7.58,0" transform="translate(-274.26 -263.74)"/><path class="cls-2" d="M323.77,360s-3.42,6.42-7.58,0" transform="translate(-274.26 -263.74)"/><path class="cls-6" d="M306.57,344.9s-7.36,2.17-7.43,9.75" transform="translate(-274.26 -263.74)"/><path class="cls-3" d="M299,271.21l-2.2,5.65c-0.81,2.07,1.93,3.9,3.67,2.82a12.28,12.28,0,0,0,3-2.4l-4.18-2.43-2.15,2.34,3.76,2.16a9.35,9.35,0,0,1,1-5.5c1.25-2.44-1.88-5.17-3.93-3a10.58,10.58,0,0,1-2.46,2.14l3.67,2.82,0.86-2.73-4.57-1.93-0.76,1.82,4.82,1.33,1-2.48c1-2.6-3.44-4.52-4.57-1.93s-3.26,4.56-4.09,7.13-0.46,5.3-1.53,8l4.82,1.33,1.31-4.39a2.52,2.52,0,0,0-4.18-2.43c-4.13,4.21-2.31,9.15-4.46,14.13a2.54,2.54,0,0,0,2.16,3.76,448,448,0,0,0,58.63-.14,2.54,2.54,0,0,0,2.41-3.16c-1.84-7.91-2.45-19.4-8.36-25.58a12.62,12.62,0,0,0-9.38-3.85c-5.39.11-9.45,4.14-15,3.92-5.38-.21-18.76-7.87-21.41.64a4.48,4.48,0,0,0,2.48,5.7,4.9,4.9,0,0,0,3.4.09,12.39,12.39,0,0,0,1.69-.84c2.09-1,0-1,1.45-.62,1.79,0.41,3.72,2,5.59,2.52a22.52,22.52,0,0,0,5.3.87c4.66,0.2,8.42-1.66,12.78-2.88,3.88-1.09,6-.92,8.32,2.81,1.57,2.49,2.55,6.09,3.43,8.9,1,3.19,1.65,4-1.95,4.47a92.92,92.92,0,0,1-9.54.5q-8.11.27-16.23,0-4.3-.13-8.59-0.4c-1.39-.09-7.53.38-8.27-0.82-0.23-.37,1.81-4,2.13-4.77,1.45-3.36,3.34-6.33,7.28-7.16,2.55-.54,4.46.52,6.92,1.06a30.62,30.62,0,0,0,7.22.72,31,31,0,0,0,7.18-1c1.83-.48,4.85-2.43,6.75-2.32,2.69,0.16,3.66,6,4.37,8.33,0.08,0.27,1.25,4.11,2,2.69-0.34.66-5,.44-5.76,0.45-5.87.09-11.44,0.73-17.26,1.16a56.58,56.58,0,0,1-9.4-.32c-1.29-.12-8.38-0.12-9.29-1.52l-0.9,3.42a17.48,17.48,0,0,0,5.83-5.95c1.14-1.86,1.47-2.86,3.68-3.65s4.64,0.15,6.8.49a32.92,32.92,0,0,0,9.93.36c2.65-.37,7.51-3.11,9.64-2.14,0.77,0.35,3.28,3.91,2.78,4.82-0.67,1.22-3.26.64-4.36,0.67l-12.33.34-12.33.34c-0.25,0-5.67,0-5.69.16-0.58,3.92,5-.51,5.59-0.89,2.7-1.73.2-6.06-2.52-4.32-2.52,1.61-8.1,3.93-6.55,7.94,1.62,4.2,9.71,2.09,13,2l20.87-.58c3.31-.09,8.61.44,9.58-3.81,0.48-2.1-.83-4.23-1.61-6.09s-1.36-4.13-2.81-5.52c-3.66-3.51-8.85,1.24-12.88,2-6.2,1.15-12.35-2.12-18.4-.59-5.72,1.45-6.21,7.08-10.71,10.11a2.54,2.54,0,0,0-.9,3.42c2.16,3.31,7.53,3.35,11.06,3.74a82.9,82.9,0,0,0,19-.37c5.48-.61,12,1,17.26-0.85,4-1.37,2.78-4.72,1.75-8-1.18-3.77-1.81-8.6-5-11.27-4.19-3.53-7.34-.6-11.74.75a25.12,25.12,0,0,1-9.13,1c-3.3-.23-6.27-2-9.47-2.21-4.15-.32-9.3,2.77-11.64,6-1.62,2.27-2.44,5-3.59,7.48-0.72,1.58-2,3.28-1.81,5.13,0.43,4.67,6.62,4,9.9,4.3,13.11,1,27,1.68,40.07,0,11-1.42,4.12-14.52.93-20.76-5.85-11.45-16.4-1.91-25.42-2.41-4-.22-6.43-2.43-10-3.66a3.92,3.92,0,0,0-4,.39c-1.79,1.53-.07,1.18,2.69,2.07,2.26,0.73,4.56,1.43,6.88,2a27.91,27.91,0,0,0,9.33.78c7.06-.82,14.44-8.24,19.18,1.35,3,6.11,3.8,14,5.33,20.61l2.41-3.16a448,448,0,0,1-58.63.14l2.16,3.76c1.7-3.92.65-10,3.68-13.12l-4.18-2.43L290.4,285c-0.95,3.16,3.65,4.23,4.82,1.33a26.53,26.53,0,0,0,1.41-6.33c0.44-2.86,2.56-4.92,3.7-7.56l-4.57-1.93-1,2.48c-1.2,3,3.61,4.25,4.82,1.33l0.76-1.82c1.08-2.59-3.41-4.51-4.57-1.93a16.31,16.31,0,0,0-1.36,3.93c-0.44,2,1.77,4.14,3.67,2.82a21.6,21.6,0,0,0,3.48-2.92l-3.93-3a14.1,14.1,0,0,0-1.69,8,2.53,2.53,0,0,0,3.76,2.16,9.73,9.73,0,0,0,4.45-5.33c1-2.4-2.54-4.1-4.18-2.43l-2,1.61,3.67,2.82,2.2-5.65c1.17-3-3.66-4.3-4.82-1.33h0Z" transform="translate(-274.26 -263.74)"/><path class="cls-3" d="M306.76,279c-0.59,2.48-2.08,6-.17,8.31,1.52,1.84,4.36,1.73,6.36.88,3-1.29,7.16-6.16,4-9.13-3-2.82-8.7-.28-8,3.92,0.92,5.78,7.61,3.34,10.24.74l-4.27-1.77v1.85a2.52,2.52,0,0,0,3.16,2.41,11.49,11.49,0,0,0,5-3.2l-4.27-1.77a27.74,27.74,0,0,0,.34,3.75c0.27,2.16,3.46,3.78,4.66,1.26a19.8,19.8,0,0,0,1.51-4.2l-4.57.6c2.92,6.23,10.27,6.69,9.35-1.51l-4.91.66,0.52,2.84,4.82-1.33c-1.14-2.9-3-4.79-6.13-5.37a2.53,2.53,0,0,0-3.08,3.08c1,3.77,6.19,6.9,10,5.59,4.41-1.5,3.48-6,.89-8.67A2.52,2.52,0,0,0,328,279a8.5,8.5,0,0,0,.81,7c1.13,2.1,4.89,1.24,4.66-1.26a11.31,11.31,0,0,0-1.2-4.51l-3.93,3a21.59,21.59,0,0,0,5.24,3.4,2.54,2.54,0,0,0,3.67-2.82A11,11,0,0,0,335.1,279a2.5,2.5,0,0,0-4.32,2.52l1.57,3.19c0.9,1.82,4.25,1.52,4.57-.6a9.3,9.3,0,0,0,0-3.47c-0.56-3.16-5.38-1.82-4.82,1.33l0,0.81,4.57-.6L335.1,279l-4.32,2.52a5.69,5.69,0,0,1,1.62,3.63l3.67-2.82a16.46,16.46,0,0,1-4.23-2.62,2.51,2.51,0,0,0-3.93,3l0.52,2,4.66-1.26-0.31-3.14-4.18,1.1c-0.89-.9-2.11-0.1-2.56-1.79L323,282.74l2.64,1.88a2.5,2.5,0,0,0,4.82-1.33l-0.52-2.84c-0.5-2.74-5.23-2.15-4.91.66,0.39,3.43.43,0,0-1-0.91-2-4.11-1.41-4.57.6a9.88,9.88,0,0,1-1,3l4.66,1.26a27.74,27.74,0,0,1-.34-3.75c-0.12-2-2.71-3.44-4.27-1.77l-2.75,1.91,3.16,2.41v-1.85a2.53,2.53,0,0,0-4.27-1.77,29.85,29.85,0,0,1-6.39,3.2l1.75,1.75c-0.54-1.49.27-3.35,0.62-4.8,0.74-3.13-4.08-4.46-4.82-1.33h0Z" transform="translate(-274.26 -263.74)"/><path class="cls-6" d="M332,344.9s7.36,2.17,7.43,9.75" transform="translate(-274.26 -263.74)"/><path class="cls-3" d="M275.26,295.08s46.87,31.24,87.93,0C363.19,295.08,333.73,302.45,275.26,295.08Z" transform="translate(-274.26 -263.74)"/><path class="cls-2" d="M275.26,295.08s46.87,31.24,87.93,0C363.19,295.08,333.73,302.45,275.26,295.08Z" transform="translate(-274.26 -263.74)"/><path class="cls-2" d="M286.95,295.79s4.48-32.92,17.47-31,7.84,3.25,14.56,3.68" transform="translate(-274.26 -263.74)"/><path class="cls-2" d="M319,268.51c6.72-.43,1.57-1.73,14.56-3.68s17.47,31,17.47,31" transform="translate(-274.26 -263.74)"/><path class="cls-2" d="M289.92,295.79" transform="translate(-274.26 -263.74)"/><path class="cls-2" d="M290.75,280s20.37,9.67,56.94,1.73" transform="translate(-274.26 -263.74)"/><path class="cls-2" d="M289.75,286s22.37,9.67,58.94,1.73" transform="translate(-274.26 -263.74)"/></svg>