<svg id="Шар_1" data-name="Шар 1" xmlns="http://www.w3.org/2000/svg" viewBox="0 0 93.89 125.67"><defs><style>.cls-1{fill:#e8e8e8;}.cls-2,.cls-4{fill:none;stroke:#0a1239;stroke-linecap:round;stroke-linejoin:round;stroke-width:2px;}.cls-3{fill:#fff;}.cls-4{opacity:0.2;}.cls-5{fill:#0a1239;}</style></defs><title>user-4</title><path class="cls-1" d="M30.59,93.29H63.67A21.33,21.33,0,0,1,85,114.62v10a0,0,0,0,1,0,0H9.26a0,0,0,0,1,0,0v-10A21.33,21.33,0,0,1,30.59,93.29Z"/><path class="cls-2" d="M30.59,93.29H63.67A21.33,21.33,0,0,1,85,114.62v10a0,0,0,0,1,0,0H9.26a0,0,0,0,1,0,0v-10A21.33,21.33,0,0,1,30.59,93.29Z"/><rect class="cls-3" x="36.28" y="67.77" width="21.71" height="35.97" rx="10.85" ry="10.85"/><ellipse class="cls-3" cx="16.18" cy="50" rx="9.36" ry="8.14"/><ellipse class="cls-2" cx="16.18" cy="50" rx="9.36" ry="8.14"/><rect class="cls-2" x="36.28" y="67.77" width="21.71" height="35.97" rx="10.85" ry="10.85"/><ellipse class="cls-3" cx="77.82" cy="50" rx="9.36" ry="8.14"/><ellipse class="cls-2" cx="77.82" cy="50" rx="9.36" ry="8.14"/><path class="cls-2" d="M178.33,331.81s3.93-1.79,3.93,3.2" transform="translate(-99.77 -285.02)"/><path class="cls-3" d="M178,329.51C178,313,164.3,299,147.77,299h-1.7C129.53,299,116,313,116,329.51V343.9c0,3.77,1.85,8.85,5,13.76v5.42c0,4.86,4.41,8.92,9.28,8.92h5.48a7,7,0,0,0,1.07-.09c0.6,0.26,1.2.51,1.81,0.73a9.17,9.17,0,0,0,15.49.35,25.28,25.28,0,0,0,2.81-1,7.52,7.52,0,0,0,.87.06h5.48a8.84,8.84,0,0,0,8.72-8.92V358.9c3.66-5.28,6-10.91,6-15V329.51Z" transform="translate(-99.77 -285.02)"/><path class="cls-2" d="M178,329.51C178,313,164.3,299,147.77,299h-1.7C129.53,299,116,313,116,329.51V343.9c0,3.77,1.85,8.85,5,13.76v5.42c0,4.86,7.08,8.92,9.28,8.92h5.48a7,7,0,0,0,1.07-.09c0.6,0.26,1.2.51,1.81,0.73a9.17,9.17,0,0,0,15.49.35,25.28,25.28,0,0,0,2.81-1,7.52,7.52,0,0,0,.87.06h5.48a8.84,8.84,0,0,0,8.72-8.92V358.9c3.66-5.28,6-10.91,6-15V329.51Z" transform="translate(-99.77 -285.02)"/><path class="cls-2" d="M151.06,344s-3.67,6.89-8.13,0" transform="translate(-99.77 -285.02)"/><path class="cls-2" d="M139.46,354.68s5.42,6.91,16.54.39" transform="translate(-99.77 -285.02)"/><line class="cls-4" x1="41.23" y1="80.98" x2="52.23" y2="80.98"/><circle class="cls-5" cx="2.36" cy="4.53" r="2.36"/><circle class="cls-5" cx="53.36" cy="112.25" r="1.47"/><circle class="cls-5" cx="53.36" cy="120.25" r="1.47"/><circle class="cls-5" cx="41.36" cy="112.25" r="1.47"/><circle class="cls-5" cx="41.36" cy="120.25" r="1.47"/><path class="cls-4" d="M136.57,345.9s-7.36,2.17-7.43,9.75" transform="translate(-99.77 -285.02)"/><path class="cls-4" d="M158,345.9s7.36,2.17,7.43,9.75" transform="translate(-99.77 -285.02)"/><path class="cls-2" d="M115.21,331.81s-3.93-1.79-3.93,3.2" transform="translate(-99.77 -285.02)"/><path class="cls-3" d="M138.85,336c0,4-2.55,5.25-5.7,5.25s-5.7-1.25-5.7-5.25h11.39Z" transform="translate(-99.77 -285.02)"/><path class="cls-3" d="M155.37,336c0,4,2.55,5.25,5.7,5.25s5.7-1.25,5.7-5.25H155.37Z" transform="translate(-99.77 -285.02)"/><line class="cls-2" x1="26.48" y1="18.58" x2="2.76" y2="4.64"/><circle class="cls-5" cx="191.31" cy="299.34" r="2.36" transform="translate(-255.41 -62.07) rotate(-45)"/><line class="cls-2" x1="64.55" y1="21.44" x2="91.18" y2="14.52"/><path class="cls-2" d="M141.13,387.39s-3.42,3.11-3.86,4.11,9.42,0.23,9.91-1.64" transform="translate(-99.77 -285.02)"/><path class="cls-2" d="M152.87,387.39s4.42,3.11,4.86,4.11-9.42.23-9.91-1.64" transform="translate(-99.77 -285.02)"/><line class="cls-2" x1="47.23" y1="105.98" x2="47.23" y2="123.98"/><path class="cls-3" d="M178.61,308.43a3.82,3.82,0,0,0,.68-2.13,4.2,4.2,0,0,0-2.87-3.85,3.86,3.86,0,0,0,.87-2.41,4.43,4.43,0,0,0-4.65-4.17,5.09,5.09,0,0,0-1.39.21,3.7,3.7,0,0,0,.06-0.51,4.43,4.43,0,0,0-4.65-4.17,5,5,0,0,0-2.69.78,4.69,4.69,0,0,0-4.3-2.57,4.94,4.94,0,0,0-3.12,1.08A9.5,9.5,0,0,0,144.83,288a4.89,4.89,0,0,0-3.08.24,4.73,4.73,0,0,0-4.06-2.17,4.86,4.86,0,0,0-3.49,1.44A4.86,4.86,0,0,0,130.7,286a4.5,4.5,0,0,0-4.59,3.62c-0.13,0-.26,0-0.4,0a4.43,4.43,0,0,0-4.65,4.17,3.83,3.83,0,0,0,.7,2.17,4.06,4.06,0,0,0-1.67,2.76,8,8,0,0,0-6,7.44,7.32,7.32,0,0,0,2,5,3.74,3.74,0,0,0,.33,1.2,7.87,7.87,0,0,0-5.35,7.22c0,4.32,3.91,7.83,8.73,7.83A9,9,0,0,0,127,324a16.72,16.72,0,0,0,5.15.8,15.7,15.7,0,0,0,9.2-2.84,9,9,0,0,0,7.39,3.67,8.69,8.69,0,0,0,8.29-5.39h0.2a21,21,0,0,0,5.59-.76,10.49,10.49,0,0,0,9.79,6.07c5.79,0,10.48-4.2,10.48-9.39A9.14,9.14,0,0,0,178.61,308.43Z" transform="translate(-99.77 -285.02)"/><path class="cls-2" d="M178.61,308.43a3.82,3.82,0,0,0,.68-2.13,4.2,4.2,0,0,0-2.87-3.85,3.86,3.86,0,0,0,.87-2.41,4.43,4.43,0,0,0-4.65-4.17,5.09,5.09,0,0,0-1.39.21,3.7,3.7,0,0,0,.06-0.51,4.43,4.43,0,0,0-4.65-4.17,5,5,0,0,0-2.69.78,4.69,4.69,0,0,0-4.3-2.57,4.94,4.94,0,0,0-3.12,1.08A9.5,9.5,0,0,0,144.83,288a4.89,4.89,0,0,0-3.08.24,4.73,4.73,0,0,0-4.06-2.17,4.86,4.86,0,0,0-3.49,1.44A4.86,4.86,0,0,0,130.7,286a4.5,4.5,0,0,0-4.59,3.62c-0.13,0-.26,0-0.4,0a4.43,4.43,0,0,0-4.65,4.17,3.83,3.83,0,0,0,.7,2.17,4.06,4.06,0,0,0-1.67,2.76,8,8,0,0,0-6,7.44,7.32,7.32,0,0,0,2,5,3.74,3.74,0,0,0,.33,1.2,7.87,7.87,0,0,0-5.35,7.22c0,4.32,3.91,7.83,8.73,7.83A9,9,0,0,0,127,324a16.72,16.72,0,0,0,5.15.8,15.7,15.7,0,0,0,9.2-2.84,9,9,0,0,0,7.39,3.67,8.69,8.69,0,0,0,8.29-5.39h0.2a21,21,0,0,0,5.59-.76,10.49,10.49,0,0,0,9.79,6.07c5.79,0,10.48-4.2,10.48-9.39A9.14,9.14,0,0,0,178.61,308.43Z" transform="translate(-99.77 -285.02)"/><path class="cls-2" d="M123.25,309.5s5.8-5.75,9.9-1" transform="translate(-99.77 -285.02)"/><path class="cls-2" d="M141.5,310.5s8.08-2.33,9.87,2.17" transform="translate(-99.77 -285.02)"/><path class="cls-2" d="M160.4,301.7s7.1-2,8.77,2.8" transform="translate(-99.77 -285.02)"/><path class="cls-2" d="M136.52,295s6.31-2.4,8.15,1.63" transform="translate(-99.77 -285.02)"/><path class="cls-2" d="M129.14,301.28s4.1-1.87,5.57.43" transform="translate(-99.77 -285.02)"/><path class="cls-2" d="M123.25,318.83s6.25-3.17,7.42-1" transform="translate(-99.77 -285.02)"/><path class="cls-2" d="M145.5,318s4.5,4,6.5.88" transform="translate(-99.77 -285.02)"/><path class="cls-2" d="M168.23,313.33s6.27-2.17,6.94,1.83" transform="translate(-99.77 -285.02)"/><path class="cls-2" d="M148.75,301.13s3.92-.35,5.08,1.76" transform="translate(-99.77 -285.02)"/><circle class="cls-3" cx="31.74" cy="48.37" r="10.14"/><circle class="cls-2" cx="31.74" cy="48.37" r="10.14"/><circle class="cls-3" cx="63.74" cy="48.37" r="10.14"/><circle class="cls-2" cx="63.74" cy="48.37" r="10.14"/><path class="cls-2" d="M141.66,333.39s5.09-4.73,11.72,0" transform="translate(-99.77 -285.02)"/><path class="cls-2" d="M127.53,335.52a4,4,0,0,1,8,0" transform="translate(-99.77 -285.02)"/><path class="cls-2" d="M159.4,335.52a4,4,0,0,1,8,0" transform="translate(-99.77 -285.02)"/></svg>